<?xml version="1.0" encoding="UTF-8" standalone="no"?>
<!-- Created with Inkscape (http://www.inkscape.org/) -->

<svg
   xmlns:dc="http://purl.org/dc/elements/1.1/"
   xmlns:cc="http://creativecommons.org/ns#"
   xmlns:rdf="http://www.w3.org/1999/02/22-rdf-syntax-ns#"
   xmlns:svg="http://www.w3.org/2000/svg"
   xmlns="http://www.w3.org/2000/svg"
   xmlns:sodipodi="http://sodipodi.sourceforge.net/DTD/sodipodi-0.dtd"
   xmlns:inkscape="http://www.inkscape.org/namespaces/inkscape"
   width="100.0mm"
   height="100.0mm"
   viewBox="0 0 100.0 100.0"
   version="1.1"
   id="svg677"
   inkscape:version="0.92.5 (2060ec1f9f, 2020-04-08)"
   sodipodi:docname="flower-outline.svg">
  <defs
     id="defs671" />
  <sodipodi:namedview
     id="base"
     pagecolor="#ffffff"
     bordercolor="#666666"
     borderopacity="1.0"
     inkscape:pageopacity="0.0"
     inkscape:pageshadow="2"
     inkscape:zoom="3.0450581"
     inkscape:cx="260.39528"
     inkscape:cy="276.33188"
     inkscape:document-units="mm"
     inkscape:current-layer="g716"
     showgrid="true"
     inkscape:window-width="2560"
     inkscape:window-height="1376"
     inkscape:window-x="0"
     inkscape:window-y="27"
     inkscape:window-maximized="1"
     borderlayer="true"
     showguides="false">
    <inkscape:grid
       spacingx="2.54"
       spacingy="2.54"
       empspacing="1"
       type="xygrid"
       units="mm"
       id="grid680" />
  </sodipodi:namedview>
  <metadata
     id="metadata674">
    <rdf:RDF>
      <cc:Work
         rdf:about="">
        <dc:format>image/svg+xml</dc:format>
        <dc:type
           rdf:resource="http://purl.org/dc/dcmitype/StillImage" />
        <dc:title />
      </cc:Work>
    </rdf:RDF>
  </metadata>
  <g
     id="g686"
     sodipodi:insensitive="true"
     inkscape:groupmode="layer"
     inkscape:label="[fixed] BG">
    <rect
       id="rect684"
       style="stroke:none;fill-opacity:1;fill:#FFFFFF"
       height="100.0"
       width="100.0"
       y="0"
       x="0" />
  </g>
  <g
     id="g688"
     inkscape:groupmode="layer"
     inkscape:label="F.Cu" />
  <g
     id="g690"
     inkscape:groupmode="layer"
     inkscape:label="B.Cu" />
  <g
     id="g692"
     inkscape:groupmode="layer"
     inkscape:label="B.Adhes-disabled" />
  <g
     id="g694"
     inkscape:groupmode="layer"
     inkscape:label="F.Adhes-disabled" />
  <g
     id="g696"
     inkscape:groupmode="layer"
     inkscape:label="B.Paste-disabled" />
  <g
     id="g698"
     inkscape:groupmode="layer"
     inkscape:label="F.Paste-disabled" />
  <g
     id="g700"
     inkscape:groupmode="layer"
     inkscape:label="B.SilkS" />
  <g
     id="g702"
     inkscape:groupmode="layer"
     inkscape:label="F.SilkS" />
  <g
     id="g704"
     inkscape:groupmode="layer"
     inkscape:label="B.Mask" />
  <g
     id="g706"
     inkscape:groupmode="layer"
     inkscape:label="F.Mask" />
  <g
     id="g708"
     inkscape:groupmode="layer"
     inkscape:label="Dwgs.User-disabled" />
  <g
     id="g710"
     inkscape:groupmode="layer"
     inkscape:label="Cmts.User-disabled" />
  <g
     id="g712"
     inkscape:groupmode="layer"
     inkscape:label="Eco1.User-disabled" />
  <g
     id="g714"
     inkscape:groupmode="layer"
     inkscape:label="Eco2.User-disabled" />
  <g
     id="g716"
     inkscape:groupmode="layer"
     inkscape:label="Edge.Cuts">
    <path
       inkscape:connector-curvature="0"
       id="path7132"
       d="m 56.089187,54.774254 -0.210473,-0.08384 -0.173852,-0.09491 -0.152432,-0.1158 -0.146213,-0.146506 -0.185054,-0.231192 -0.06337,-0.107208 -0.04664,-0.109417 -0.03193,-0.117478 -0.01925,-0.131388 -0.0086,-0.327914 -0.03752,-0.860758 -0.102714,-1.436874 -0.14889,-1.967225 -0.01438,-0.04104 -0.04387,-0.04985 -0.180593,-0.128136 -0.311678,-0.169355 -0.451508,-0.214552 -1.357493,-0.580605 -2.021764,-0.809126 -0.955795,-0.396996 -0.751075,-0.346716 -0.564526,-0.319094 -0.590859,-0.384712 -0.565291,-0.414454 -0.487824,-0.408324 -0.270185,-0.258685 -0.262388,-0.276338 -0.253927,-0.292764 -0.2448,-0.307961 -0.23501,-0.321932 -0.224555,-0.334674 -0.213435,-0.34619 -0.201651,-0.356477 -0.189203,-0.365538 -0.176089,-0.373371 -0.162313,-0.379976 -0.14787,-0.385354 -0.132764,-0.389504 -0.116994,-0.392428 -0.100557,-0.394123 -0.08346,-0.394591 -0.07785,-0.530807 -0.05849,-0.624758 -0.03148,-0.613402 0.0032,-0.496739 0.0189,-0.331243 h 0.56018 l 0.541016,0.01822 0.546311,0.05419 0.548973,0.08949 0.549005,0.124117 0.546404,0.158062 0.541172,0.191328 0.533308,0.223916 0.522811,0.255827 0.741271,0.418972 0.6953,0.454415 0.652409,0.492737 0.612597,0.53394 0.575861,0.578023 0.542206,0.624985 0.511628,0.674828 0.484128,0.727551 0.247312,0.409552 0.221456,0.39602 0.197352,0.386538 0.175002,0.381103 0.154403,0.379715 0.135557,0.382376 0.118465,0.389083 0.103123,0.399839 0.102567,0.412765 0.03188,0.1118 0.01252,0.02472 -0.12043,-1.775467 -0.160002,-2.315934 -0.131206,-2.114029 -0.103926,-1.953246 -0.07816,-1.833585 -0.0539,-1.755049 -0.03116,-1.717634 -0.0099,-1.721342 0.0098,-1.766175 0.0585,-3.65693 0.0258,-0.582989 -0.17292,0.520238 -0.157007,0.43877 -0.174445,0.424912 -0.191195,0.410255 -0.207255,0.394796 -0.222629,0.378536 -0.237314,0.361477 -0.25131,0.343617 -0.26462,0.324956 -0.27724,0.305494 -0.289172,0.285231 -0.300417,0.264169 -0.310973,0.242304 -0.320841,0.219641 -0.330022,0.196176 -0.338513,0.17191 -0.346317,0.146843 -0.357155,0.115483 -0.36348,0.07665 -0.367308,0.03891 -0.368638,0.0022 -0.367472,-0.03333 -0.363808,-0.06782 -0.357647,-0.101223 -0.348989,-0.133543 -0.337833,-0.16478 -0.324181,-0.194932 -0.30803,-0.223999 -0.289383,-0.251981 -0.268239,-0.27888 -0.244597,-0.304692 -0.218458,-0.32942 -0.189822,-0.353065 -0.10069,-0.226484 -0.08494,-0.227777 -0.06993,-0.232837 -0.05566,-0.241663 -0.07149,-0.524865 -0.02332,-0.605359 0.02857,-0.620031 0.08736,-0.610431 0.145276,-0.598615 0.202309,-0.584585 0.258461,-0.56834 0.313733,-0.549881 0.368122,-0.529207 0.42163,-0.50632 0.299618,-0.314892 0.305565,-0.290459 0.311352,-0.265911 0.316979,-0.241249 0.322446,-0.216471 0.327753,-0.19158 0.3329,-0.166574 0.337887,-0.141453 0.257789,-0.09941 0.115151,-0.05607 0.01222,-0.01816 -0.01369,-0.01498 -0.09209,-0.03063 -0.265522,-0.02517 -0.396848,0.0074 -0.424953,5.31e-4 -0.459669,-0.04682 -0.484726,-0.09124 -0.500129,-0.132754 -0.505875,-0.171344 -0.501965,-0.207016 -0.488398,-0.239768 -0.465175,-0.269603 -0.273369,-0.181659 -0.262965,-0.19382 -0.251833,-0.204963 -0.239972,-0.215091 -0.227384,-0.2242 -0.214067,-0.232293 -0.200023,-0.239369 -0.185249,-0.245427 -0.169749,-0.250469 -0.15352,-0.254494 -0.136563,-0.257501 -0.118878,-0.259491 -0.100464,-0.260465 -0.08132,-0.260421 -0.06145,-0.25936 -0.04086,-0.257283 -0.02011,-0.30863 0.01122,-0.315648 0.04176,-0.319742 0.07152,-0.320914 0.100495,-0.319166 0.128681,-0.314495 0.156082,-0.306902 0.182697,-0.296387 0.145905,-0.201166 0.159226,-0.191434 0.171383,-0.181093 0.182372,-0.170146 0.393053,-0.305016 0.423024,-0.253929 0.443668,-0.197979 0.226662,-0.07649 0.228325,-0.06068 0.228823,-0.04426 0.228156,-0.02723 0.226321,-0.0096 0.223322,0.0086 0.291555,0.03131 0.288473,0.04649 0.285733,0.06184 0.283336,0.07738 0.281283,0.0931 0.279573,0.109015 0.278206,0.125111 0.277181,0.141392 0.552663,0.332372 0.552683,0.399722 0.555447,0.468557 0.560957,0.538874 0.407557,0.407893 0.169513,0.1561 -0.12601,-0.415374 -0.126588,-0.47461 -0.08736,-0.507743 -0.04828,-0.532175 -0.0094,-0.547905 0.0294,-0.554932 0.068,-0.5532579 0.106447,-0.5428813 0.144735,-0.5238027 0.148101,-0.406758 0.195563,-0.461341 0.213516,-0.4501712 0.20196,-0.3732488 0.202225,-0.3150868 0.241278,-0.3443593 0.217761,-0.2875087 0.131676,-0.1445352 0.30705,-0.361161 0.268057,-0.314885 0.276866,-0.2677634 0.287104,-0.221358 0.29877,-0.1756688 0.311863,-0.1306959 0.326384,-0.086439 0.342335,-0.042899 0.359711,-7.47e-5 0.352437,0.043612 0.344775,0.088767 0.333603,0.1317491 0.318923,0.172558 0.300735,0.2111937 0.279037,0.2476563 0.253832,0.2819458 0.225118,0.314062 0.200555,0.3934205 0.255408,0.5938978 0.238559,0.6183999 0.150008,0.4669268 0.09607,0.4923036 0.05046,0.5098664 0.005,0.5265301 -0.04045,0.5422946 -0.08575,0.5571602 -0.130947,0.571125 -0.176041,0.584193 -0.221031,0.59636 -0.17156,0.449413 0.103707,-0.08052 0.249333,-0.228923 0.260307,-0.235333 0.269649,-0.221612 0.278476,-0.207684 0.286787,-0.193548 0.294582,-0.179206 0.301861,-0.164656 0.308625,-0.149902 0.314871,-0.134938 0.320602,-0.11977 0.325818,-0.104393 0.330517,-0.08881 0.3347,-0.07302 0.338368,-0.05702 0.341519,-0.04082 0.344154,-0.02441 0.346274,-0.0078 0.398549,0.01439 0.389574,0.04121 0.379209,0.06712 0.367456,0.09213 0.354312,0.116243 0.339781,0.139447 0.32386,0.161748 0.306549,0.183144 0.28785,0.203637 0.267762,0.223225 0.246284,0.24191 0.223417,0.25969 0.199161,0.276568 0.173516,0.29254 0.146482,0.30761 0.118058,0.321774 0.05694,0.205919 0.03555,0.201023 0.01826,0.228901 0.0051,0.289549 -0.01448,0.430783 -0.04865,0.366153 -0.09147,0.345304 -0.142949,0.36823 -0.108395,0.229322 -0.121577,0.218865 -0.135849,0.209202 -0.151209,0.20033 -0.167658,0.192253 -0.185196,0.184967 -0.203823,0.178474 -0.223539,0.172775 -0.244343,0.167868 -0.266237,0.163754 -0.60251,0.318336 -0.703151,0.311394 -0.812503,0.310792 -0.611497,0.208361 -0.506188,0.143467 -0.45824,0.09261 -0.467655,0.0558 -0.44095,0.03775 0.33806,0.166762 0.43271,0.239145 0.413162,0.279931 0.391018,0.317996 0.366279,0.353339 0.338945,0.385963 0.309015,0.415863 0.276491,0.443044 0.24137,0.467503 0.106601,0.251966 0.0895,0.260477 0.07247,0.267955 0.05551,0.274399 0.03863,0.279809 0.02181,0.284186 0.0051,0.287528 -0.01161,0.289837 -0.02821,0.291111 -0.04474,0.291352 -0.0612,0.290559 -0.07759,0.288733 -0.09391,0.285872 -0.110163,0.281977 -0.126341,0.277049 -0.142448,0.271086 -0.290981,0.465107 -0.322336,0.417284 -0.351227,0.367632 -0.377652,0.316146 -0.401611,0.262828 -0.423104,0.20768 -0.218842,0.08259 -0.223291,0.06811 -0.227432,0.05341 -0.231264,0.03848 -0.349022,0.02726 -0.156611,-0.0065 -0.154183,-0.02177 -0.329606,-0.09479 -0.405458,-0.172256 -0.412605,-0.208128 -0.405207,-0.238295 -0.399569,-0.269889 -0.395694,-0.302911 -0.393578,-0.337363 -0.393225,-0.373243 -0.394632,-0.410551 -0.3978,-0.449289 -0.193215,-0.223906 -0.09771,-0.09733 -0.02173,-0.0071 -0.0083,0.01741 0.0099,0.09896 0.145486,1.974657 0.275161,4.311444 0.319487,5.272502 0.278466,4.857828 0.06981,1.131801 0.04468,0.469808 0.06521,-0.152429 0.119252,-0.364309 0.252027,-0.784206 0.290238,-0.846988 0.273678,-0.75424 0.202347,-0.505965 0.176664,-0.362625 0.200783,-0.35685 0.223908,-0.350184 0.246037,-0.342631 0.267172,-0.334189 0.287313,-0.32486 0.306457,-0.31464 0.324608,-0.303534 0.341763,-0.291538 0.357923,-0.278655 0.373089,-0.264882 0.387261,-0.250222 0.400436,-0.234672 0.412617,-0.218235 0.423804,-0.200909 0.433995,-0.182695 0.374473,-0.137965 0.402045,-0.131136 0.802239,-0.2213 0.35791,-0.07993 0.300915,-0.05261 0.222778,-0.02018 0.1235,0.01737 0.05616,0.05947 0.05358,0.110038 0.09768,0.351025 0.08214,0.491055 0.06311,0.589602 0.04061,0.646666 0.01462,0.662247 -0.01484,0.636346 -0.04779,0.56896 -0.120445,0.772761 -0.162235,0.727479 -0.205061,0.684586 -0.248925,0.644084 -0.293826,0.605972 -0.339765,0.570248 -0.38674,0.536916 -0.434753,0.505972 -0.430089,0.43306 -0.461927,0.405899 -0.516853,0.393147 -0.594869,0.394808 -0.695975,0.41088 -0.820168,0.441363 -0.967453,0.486257 -1.137826,0.545562 -0.826527,0.396222 -0.369973,0.190441 -0.0081,0.198639 0.01389,0.51991 0.08548,1.779434 0.124485,1.975859 0.04793,0.480179 0.04589,0.23418 0.05181,0.1844 0.02698,0.18133 0.0027,0.175555 -0.02104,0.167075 -0.04423,0.155889 -0.06687,0.142 -0.08896,0.125405 -0.110506,0.106104 -0.07431,0.04524 -0.09328,0.03562 -0.224907,0.04087 -0.245119,-0.0022 -0.228218,-0.04828 -8e-5,10e-7"
       style="fill:#000000;stroke-width:0.05151466" />
  </g>
  <g
     id="g718"
     inkscape:groupmode="layer"
     inkscape:label="Margin-disabled" />
  <g
     id="g720"
     inkscape:groupmode="layer"
     inkscape:label="B.CrtYd-disabled" />
  <g
     id="g722"
     inkscape:groupmode="layer"
     inkscape:label="F.CrtYd-disabled" />
  <g
     id="g724"
     inkscape:groupmode="layer"
     inkscape:label="B.Fab-disabled" />
  <g
     id="g726"
     inkscape:groupmode="layer"
     inkscape:label="F.Fab-disabled" />
  <g
     id="g728"
     inkscape:groupmode="layer"
     inkscape:label="Drill" />
</svg>
