<?xml version="1.0" encoding="UTF-8" standalone="no"?>
<!-- Created with Inkscape (http://www.inkscape.org/) -->

<svg
   xmlns:dc="http://purl.org/dc/elements/1.1/"
   xmlns:cc="http://creativecommons.org/ns#"
   xmlns:rdf="http://www.w3.org/1999/02/22-rdf-syntax-ns#"
   xmlns:svg="http://www.w3.org/2000/svg"
   xmlns="http://www.w3.org/2000/svg"
   xmlns:sodipodi="http://sodipodi.sourceforge.net/DTD/sodipodi-0.dtd"
   xmlns:inkscape="http://www.inkscape.org/namespaces/inkscape"
   width="100.0mm"
   height="100.0mm"
   viewBox="0 0 100.0 100.0"
   version="1.1"
   id="svg857"
   inkscape:version="0.92.5 (2060ec1f9f, 2020-04-08)"
   sodipodi:docname="flower-pot-outline.svg">
  <defs
     id="defs851" />
  <sodipodi:namedview
     id="base"
     pagecolor="#ffffff"
     bordercolor="#666666"
     borderopacity="1.0"
     inkscape:pageopacity="0.0"
     inkscape:pageshadow="2"
     inkscape:zoom="2.8284271"
     inkscape:cx="211.6097"
     inkscape:cy="163.54977"
     inkscape:document-units="mm"
     inkscape:current-layer="g896"
     showgrid="true"
     inkscape:window-width="2560"
     inkscape:window-height="1376"
     inkscape:window-x="0"
     inkscape:window-y="27"
     inkscape:window-maximized="1"
     borderlayer="true">
    <inkscape:grid
       spacingx="2.54"
       spacingy="2.54"
       empspacing="1"
       type="xygrid"
       units="mm"
       id="grid860" />
  </sodipodi:namedview>
  <metadata
     id="metadata854">
    <rdf:RDF>
      <cc:Work
         rdf:about="">
        <dc:format>image/svg+xml</dc:format>
        <dc:type
           rdf:resource="http://purl.org/dc/dcmitype/StillImage" />
        <dc:title />
      </cc:Work>
    </rdf:RDF>
  </metadata>
  <g
     id="g866"
     sodipodi:insensitive="true"
     inkscape:groupmode="layer"
     inkscape:label="[fixed] BG">
    <rect
       id="rect864"
       style="stroke:none;fill-opacity:1;fill:#FFFFFF"
       height="100.0"
       width="100.0"
       y="0"
       x="0" />
  </g>
  <g
     id="g868"
     inkscape:groupmode="layer"
     inkscape:label="F.Cu" />
  <g
     id="g870"
     inkscape:groupmode="layer"
     inkscape:label="B.Cu-disabled" />
  <g
     id="g872"
     inkscape:groupmode="layer"
     inkscape:label="B.Adhes-disabled" />
  <g
     id="g874"
     inkscape:groupmode="layer"
     inkscape:label="F.Adhes-disabled" />
  <g
     id="g876"
     inkscape:groupmode="layer"
     inkscape:label="B.Paste-disabled" />
  <g
     id="g878"
     inkscape:groupmode="layer"
     inkscape:label="F.Paste-disabled" />
  <g
     id="g880"
     inkscape:groupmode="layer"
     inkscape:label="B.SilkS-disabled" />
  <g
     id="g882"
     inkscape:groupmode="layer"
     inkscape:label="F.SilkS-disabled" />
  <g
     id="g884"
     inkscape:groupmode="layer"
     inkscape:label="B.Mask-disabled" />
  <g
     id="g886"
     inkscape:groupmode="layer"
     inkscape:label="F.Mask-disabled" />
  <g
     id="g888"
     inkscape:groupmode="layer"
     inkscape:label="Dwgs.User-disabled" />
  <g
     id="g890"
     inkscape:groupmode="layer"
     inkscape:label="Cmts.User-disabled" />
  <g
     id="g892"
     inkscape:groupmode="layer"
     inkscape:label="Eco1.User-disabled" />
  <g
     id="g894"
     inkscape:groupmode="layer"
     inkscape:label="Eco2.User-disabled" />
  <g
     id="g896"
     inkscape:groupmode="layer"
     inkscape:label="Edge.Cuts">
    <path
       inkscape:connector-curvature="0"
       id="path2926"
       d="m 37.4363,20.14469 -0.06794,0.0031 -0.06752,0.0056 -0.06708,0.0081 -0.06662,0.01049 -0.06614,0.01285 -0.06565,0.01518 -0.06514,0.01746 -0.06461,0.01968 -0.06406,0.02187 -0.0635,0.02401 -0.06292,0.0261 -0.06232,0.02815 -0.0617,0.03015 -0.06106,0.03212 -0.06041,0.03403 -0.05974,0.03589 -0.05905,0.0377 -0.05834,0.03948 -0.05762,0.04121 -0.05687,0.04289 -0.05611,0.04453 -0.05533,0.04612 -0.05454,0.04766 -0.05372,0.04916 -0.05289,0.05062 -0.05204,0.05203 -0.05117,0.05339 -0.05029,0.0547 -0.04938,0.05597 -0.04846,0.05719 -0.04752,0.05837 L 35.56,21.26 35.46584,21.22673 35.37145,21.1967 35.27692,21.17 l -0.09457,-0.02328 -0.09453,-0.01976 -0.0944,-0.01616 -0.09418,-0.01246 -0.09387,-0.0087 -0.09346,-0.0048 -0.09297,-8.07e-4 -0.09239,0.0033 -0.09172,0.0074 -0.09096,0.01167 -0.09011,0.01602 -0.04471,0.0097 -0.04446,0.01078 -0.04421,0.01192 -0.04394,0.01306 -0.04366,0.01421 -0.04337,0.01538 -0.04307,0.01656 -0.04275,0.01774 -0.04243,0.01895 -0.04209,0.02016 -0.04175,0.02138 -0.04139,0.02262 -0.04102,0.02386 -0.04064,0.02513 -0.04025,0.0264 -0.03984,0.02768 -0.03943,0.02897 -0.039,0.03027 -0.03857,0.03159 -0.03812,0.03291 -0.03766,0.03425 -0.03719,0.0356 -0.03671,0.03696 -0.03622,0.03834 -0.03571,0.03972 -0.0352,0.04112 -0.03467,0.04252 -0.03414,0.04394 -0.03359,0.04538 -0.03303,0.04682 -0.03246,0.04827 -0.03187,0.04974 -0.03128,0.05122 -0.03068,0.05271 -0.03006,0.0542 -0.02943,0.05571 -0.07881,-0.01203 -0.07754,-0.0097 -0.07627,-0.0074 -0.075,-0.005 -0.07373,-0.0029 -0.07247,-6.01e-4 -0.07121,0.0016 -0.06995,0.0037 -0.0687,0.0058 -0.06745,0.0079 -0.0662,0.01 -0.06495,0.01197 -0.06371,0.01394 -0.06247,0.01587 -0.06123,0.01778 -0.05999,0.01964 -0.05876,0.02148 -0.05753,0.02328 -0.0563,0.02505 -0.05508,0.02677 -0.05386,0.02847 -0.05264,0.03013 -0.05143,0.03176 -0.05021,0.03335 -0.049,0.0349 -0.04779,0.03643 -0.04659,0.03792 -0.04539,0.03937 -0.04419,0.04079 -0.04299,0.04218 -0.0418,0.04352 -0.0406,0.04484 -0.03942,0.04612 -0.03823,0.04736 -0.03705,0.04858 -0.03587,0.04976 -0.03469,0.05089 -0.03352,0.05201 -0.03235,0.05307 -0.03118,0.05412 -0.03001,0.05511 -0.02885,0.05609 -0.02769,0.05702 -0.02653,0.05792 -0.02537,0.05879 -0.02422,0.05962 -0.02307,0.06041 -0.02192,0.06117 -0.02078,0.06189 -0.01964,0.06259 -0.0185,0.06324 -0.01736,0.06387 -0.01623,0.06446 -0.0151,0.06501 -0.01397,0.06553 -0.01285,0.06601 -0.01173,0.06647 -0.01061,0.06688 -0.0095,0.06725 -0.0084,0.0676 -0.01342,0.136105 -0.009,0.137071 -0.10667,0.01362 -0.105274,0.01683 -0.103728,0.02007 -0.102037,0.02336 -0.100198,0.02668 -0.09821,0.03005 -0.09608,0.03346 -0.0938,0.03691 -0.09137,0.04039 -0.08879,0.04392 -0.08607,0.04749 -0.04197,0.0251 -0.04123,0.026 -0.04048,0.02692 -0.0397,0.02784 -0.03891,0.02875 -0.0381,0.02968 -0.03727,0.03062 -0.03643,0.03155 -0.03556,0.0325 -0.03468,0.03345 -0.03378,0.03439 -0.03286,0.03535 -0.03192,0.03631 -0.03096,0.03728 -0.02998,0.03825 -0.02899,0.03923 -0.02798,0.04022 -0.02695,0.0412 -0.0259,0.0422 -0.02483,0.04319 -0.02374,0.04419 -0.02264,0.0452 -0.02152,0.04621 -0.02038,0.04724 -0.01921,0.04825 -0.01804,0.04928 -0.01684,0.05032 -0.01562,0.05136 -0.01439,0.0524 -0.01314,0.05344 -0.01187,0.0545 -0.01058,0.05555 -0.0093,0.05662 -0.0079,0.05768 -0.0066,0.05876 -0.0052,0.05983 -0.0039,0.06092 -0.0025,0.06201 -0.001,0.06311 3.93e-4,0.0642 0.0018,0.0653 0.0033,0.06641 -0.09682,0.03816 -0.09286,0.04054 -0.08896,0.04287 -0.0851,0.04513 -0.08129,0.04732 -0.07752,0.04945 -0.0738,0.05152 -0.07011,0.05352 -0.06648,0.05547 -0.06289,0.05734 -0.05935,0.05915 -0.05585,0.0609 -0.0524,0.06257 -0.04899,0.06419 -0.04563,0.06574 -0.04231,0.06723 -0.03904,0.06865 -0.03581,0.07001 -0.03262,0.07131 -0.02949,0.07254 -0.0264,0.0737 -0.02335,0.0748 -0.02035,0.07584 -0.01739,0.07682 -0.01448,0.07772 -0.01161,0.07856 -0.0088,0.07934 -0.006,0.08006 -0.0033,0.08071 -5.96e-4,0.08129 0.002,0.08181 0.0046,0.08227 0.0072,0.08266 0.0097,0.083 0.01216,0.08325 0.01457,0.08346 0.01694,0.08359 0.01927,0.08367 0.02155,0.08367 0.02379,0.08361 0.02597,0.08349 0.02812,0.0833 0.03022,0.08305 0.03227,0.08273 0.03428,0.08236 0.03625,0.08191 0.03817,0.0814 0.04004,0.08083 0.04187,0.08019 0.04365,0.07949 0.04539,0.07872 0.04708,0.07789 0.04873,0.07699 0.05034,0.07604 0.0519,0.07501 0.05341,0.07392 0.05487,0.07277 0.0563,0.07155 0.05768,0.07027 0.05901,0.06892 0.06029,0.06751 0.06154,0.06604 0.06273,0.06449 0.06389,0.0629 -0.08556,0.03211 -0.08519,0.03399 -0.08474,0.03582 -0.08423,0.03761 -0.08365,0.03937 -0.08298,0.04108 -0.08225,0.04277 -0.08145,0.04441 -0.08057,0.046 -0.07963,0.04757 -0.07861,0.04909 -0.07751,0.05058 -0.07635,0.05203 -0.07511,0.05344 -0.0738,0.05481 -0.07242,0.05614 -0.07097,0.05743 -0.06944,0.05868 -0.06784,0.05989 -0.06617,0.06107 -0.06443,0.06221 -0.06262,0.0633 -0.06073,0.06437 -0.05877,0.06539 -0.05673,0.06637 -0.05463,0.06731 -0.05245,0.06822 -0.0502,0.06909 -0.04788,0.06992 -0.04549,0.0707 -0.04302,0.07145 -0.04049,0.07216 -0.03787,0.07284 -0.03519,0.07347 -0.03244,0.07408 -0.02961,0.07463 -0.02671,0.07515 -0.02374,0.07563 -0.02069,0.07607 -0.01758,0.07647 -0.01439,0.07684 -0.01113,0.07716 -0.0078,0.07746 -0.0044,0.0777 -9.08e-4,0.07791 0.0026,0.07808 0.0063,0.07822 0.01,0.0783 0.01373,0.07836 0.01757,0.07838 0.02148,0.07835 0.02546,0.07829 0.02952,0.0782 0.03365,0.07806 0.03785,0.07788 0.04212,0.07766 0.04647,0.07742 0.05088,0.07712 0.05537,0.07679 0.05994,0.07642 0.06457,0.07601 0.06928,0.07556 0.07406,0.07508 0.07891,0.07456 -0.03901,0.08419 -0.03534,0.08341 -0.03172,0.08261 -0.02816,0.0818 -0.02466,0.08099 -0.02122,0.08015 -0.01783,0.07931 -0.0145,0.07846 -0.01123,0.07759 -0.008,0.07672 -0.0048,0.07583 -0.0017,0.07493 0.0013,0.07403 0.0043,0.0731 0.0072,0.07217 0.01011,0.07123 0.01293,0.07027 0.01569,0.0693 0.0184,0.06833 0.02105,0.06733 0.02365,0.06634 0.02619,0.06532 0.02867,0.06431 0.03109,0.06327 0.03346,0.06223 0.03577,0.06116 0.03803,0.0601 0.04022,0.05901 0.04237,0.05793 0.04445,0.05683 0.04648,0.05571 0.04845,0.05459 0.05037,0.05344 0.05223,0.0523 0.05403,0.05114 0.05577,0.04998 0.05746,0.04879 0.0591,0.0476 0.06067,0.0464 0.06219,0.04518 0.06365,0.04395 0.06506,0.04271 0.06641,0.04146 0.0677,0.0402 0.06893,0.03893 0.07011,0.03764 0.07124,0.03634 0.0723,0.03504 0.07331,0.03372 0.07427,0.0324 0.07516,0.03106 0.076,0.0297 0.07678,0.02834 0.07751,0.02697 0.07818,0.02558 0.07879,0.02418 0.07935,0.02277 0.07985,0.02135 0.08029,0.01992 0.08068,0.01848 0.08101,0.01702 0.08128,0.01556 0.0815,0.01409 0.08166,0.0126 -0.05266,0.08079 -0.05089,0.08272 -0.04909,0.08454 -0.04726,0.08626 -0.0454,0.08788 -0.0435,0.08938 -0.04157,0.09079 -0.03961,0.09209 -0.03762,0.09329 -0.0356,0.09438 -0.03355,0.09537 -0.03146,0.09625 -0.02935,0.09703 -0.0272,0.0977 -0.02502,0.09828 -0.02281,0.09874 -0.02056,0.0991 -0.01829,0.09935 -0.01598,0.0995 -0.01365,0.09955 -0.01128,0.09949 -0.0089,0.09933 -0.0064,0.09906 -0.004,0.09869 -0.0015,0.09821 0.001,0.09763 0.0036,0.09694 0.0062,0.09616 0.0088,0.09526 0.01147,0.09426 0.01415,0.09315 0.01687,0.09195 0.01962,0.09064 0.0224,0.08922 0.02521,0.08769 0.02805,0.08606 0.03092,0.08433 0.03383,0.08249 0.03677,0.08055 0.03974,0.07851 0.04274,0.07636 0.04577,0.07411 0.04883,0.07175 0.05193,0.06927 0.05505,0.06671 0.05821,0.06404 0.0614,0.06126 0.06462,0.05838 0.06788,0.0554 0.07116,0.0523 0.03682,0.02496 0.03765,0.02415 0.03849,0.02332 0.03933,0.02248 0.04018,0.02164 0.04103,0.02077 0.04188,0.01989 0.04274,0.019 0.0436,0.0181 0.04446,0.01718 0.04533,0.01624 0.0462,0.01531 0.04708,0.01435 0.04796,0.01339 0.04884,0.0124 0.04973,0.0114 0.05062,0.0104 0.05152,0.0094 0.05242,0.0084 0.05333,0.0073 0.05423,0.0062 0.05514,0.0051 0.05606,0.004 0.05698,0.003 0.0579,0.0019 0.05883,7.35e-4 0.05976,-4.04e-4 0.0607,-0.0016 0.02809,0.07541 0.02963,0.07308 0.03113,0.07076 0.03261,0.06847 0.03406,0.0662 0.03547,0.06395 0.03686,0.06171 0.03821,0.05951 0.03953,0.05732 0.04082,0.05515 0.04208,0.05299 0.0433,0.05086 0.0445,0.04875 0.04566,0.04666 0.04679,0.04459 0.04789,0.04255 0.04896,0.04052 0.05,0.03851 0.051,0.03652 0.05198,0.03456 0.05292,0.03261 0.05383,0.03068 0.05471,0.02877 0.05556,0.02689 0.05638,0.02502 0.05717,0.02317 0.05792,0.02135 0.05864,0.01955 0.05933,0.01775 0.05999,0.01599 0.06062,0.01424 0.06122,0.01252 0.06178,0.01081 0.06232,0.0092 0.06282,0.0075 0.06329,0.0058 0.06373,0.0042 0.06414,0.0026 0.06451,9.86e-4 0.06486,-5.48e-4 0.06517,-0.0021 0.06545,-0.0036 0.0657,-0.0051 0.06592,-0.0066 0.06611,-0.0081 0.06626,-0.0095 0.06639,-0.01092 0.06648,-0.01232 0.06654,-0.0137 0.06657,-0.01506 0.06657,-0.0164 0.06654,-0.01772 0.06647,-0.01902 0.06638,-0.02029 0.06625,-0.02156 0.06609,-0.0228 0.0659,-0.02402 0.06568,-0.02521 0.06543,-0.0264 0.06514,-0.02755 0.06483,-0.02868 0.06448,-0.02981 0.0641,-0.0309 0.06369,-0.03198 0.02032,0.07988 0.02177,0.07956 0.02322,0.07918 0.02464,0.07876 0.02605,0.07826 0.02745,0.07772 0.02883,0.07711 0.0302,0.07645 0.03155,0.07574 0.03289,0.07496 0.03421,0.07414 0.03552,0.07325 0.03681,0.0723 0.03809,0.07131 0.03936,0.07024 0.04061,0.06913 0.04184,0.06796 0.04306,0.06672 0.04427,0.06544 0.04546,0.0641 0.04664,0.0627 0.0478,0.06124 0.04895,0.05972 0.05008,0.05816 0.0512,0.05653 0.0523,0.05485 0.05339,0.0531 0.05446,0.05131 0.05552,0.04945 0.05657,0.04754 0.0576,0.04557 0.05861,0.04354 0.05962,0.04146 0.0606,0.03932 0.06157,0.03712 0.06253,0.03487 0.06347,0.03256 0.0644,0.03019 0.06531,0.02777 0.06621,0.02528 0.06709,0.02275 0.06796,0.02016 0.06881,0.01751 0.06965,0.0148 0.07048,0.01203 0.07129,0.0092 0.07208,0.0063 0.07287,0.0034 0.07363,3.94e-4 0.07438,-0.0027 0.07512,-0.0057 0.07584,-0.009 0.07655,-0.01214 0.07724,-0.01543 0.07792,-0.01876 0.07858,-0.02216 0.07923,-0.0256 0.07986,-0.02911 0.08048,-0.03267 0.08109,-0.03629 0.08168,-0.03997 0.08225,-0.0437 0.08281,-0.04749 0.08336,-0.05134 0.0616,0.04919 0.0617,0.04656 0.06178,0.04394 0.06185,0.04137 0.0619,0.03883 0.06194,0.03631 0.06197,0.03384 0.06198,0.03139 0.06197,0.02896 0.06195,0.02657 0.06191,0.02422 0.06186,0.02188 0.0618,0.01959 0.06171,0.01733 0.06162,0.01509 0.06151,0.01288 0.06138,0.01072 0.06124,0.0086 0.06108,0.0064 0.06091,0.0043 0.06072,0.0024 0.06052,3.02e-4 0.06031,-0.0017 0.06008,-0.0036 0.05983,-0.0056 0.05957,-0.0075 0.05929,-0.0094 0.059,-0.01117 0.0587,-0.01297 0.05837,-0.01475 0.05804,-0.01649 0.05769,-0.01821 0.05732,-0.01989 0.05694,-0.02154 0.05654,-0.02315 0.05613,-0.02475 0.05571,-0.02631 0.05527,-0.02784 0.05481,-0.02933 0.05434,-0.03079 0.05385,-0.03223 0.05335,-0.03363 0.05284,-0.03501 0.0523,-0.03635 0.05176,-0.03766 0.0512,-0.03895 0.05062,-0.0402 0.05003,-0.04142 0.04942,-0.0426 0.0488,-0.04377 0.04817,-0.04489 0.04752,-0.04599 0.04685,-0.04706 0.04617,-0.04809 0.04547,-0.0491 0.04476,-0.05007 0.04403,-0.05101 0.04329,-0.05193 0.0843,-0.106463 0.08116,-0.109741 0.07789,-0.112774 0.119178,0.06428 0.120453,0.0601 0.121522,0.05575 0.0611,0.02619 0.06129,0.02504 0.06145,0.02386 0.06159,0.02267 0.06171,0.02145 0.0618,0.02021 0.06186,0.01895 0.0619,0.01766 0.06191,0.01636 0.0619,0.01504 0.06186,0.01369 0.06179,0.01232 0.06171,0.01093 0.06159,0.0096 0.06145,0.0081 0.06128,0.0066 0.06109,0.0051 0.06087,0.0036 0.06063,0.0022 0.06036,5.93e-4 0.06007,-9.72e-4 0.05975,-0.0026 0.0594,-0.0041 0.05903,-0.0058 0.05864,-0.0075 0.05822,-0.0091 0.05777,-0.0108 0.0573,-0.01252 0.0568,-0.01426 0.05628,-0.01602 0.05573,-0.0178 0.05515,-0.0196 0.05455,-0.02142 0.05393,-0.02327 0.05328,-0.02514 0.0526,-0.02702 0.0519,-0.02893 0.05117,-0.03086 0.05042,-0.03281 0.04964,-0.0348 0.04884,-0.03679 0.04801,-0.03881 0.04715,-0.04085 0.04627,-0.04291 0.04536,-0.045 0.04443,-0.0471 0.04348,-0.04923 0.04249,-0.05138 0.04149,-0.05354 0.04045,-0.05573 0.03939,-0.05795 0.03831,-0.06018 0.0372,-0.06243 0.03606,-0.06471 0.0349,-0.06702 0.03372,-0.06933 0.0325,-0.07168 0.03127,-0.07404 0.07216,0.0047 0.07095,0.003 0.06973,0.0011 0.06853,-6.93e-4 0.06733,-0.0025 0.06612,-0.0042 0.06493,-0.0059 0.06374,-0.0076 0.06256,-0.0093 0.06137,-0.01088 0.0602,-0.01249 0.05903,-0.01408 0.05786,-0.01563 0.0567,-0.01716 0.05554,-0.01867 0.05438,-0.02015 0.05323,-0.02161 0.05209,-0.02304 0.05094,-0.02445 0.04981,-0.02582 0.04868,-0.02718 0.04755,-0.02851 0.04642,-0.02981 0.0453,-0.03108 0.04419,-0.03233 0.04308,-0.03356 0.04197,-0.03477 0.04087,-0.03594 0.03977,-0.03708 0.03868,-0.03821 0.03759,-0.03931 0.03651,-0.04037 0.03543,-0.04143 0.03435,-0.04244 0.03328,-0.04344 0.03221,-0.04442 0.03115,-0.04536 0.03009,-0.04628 0.02904,-0.04718 0.02799,-0.04804 0.02695,-0.04888 0.02591,-0.0497 0.02487,-0.05049 0.02384,-0.05126 0.02281,-0.052 0.02179,-0.05272 0.02077,-0.05341 0.01976,-0.05407 0.01875,-0.05471 0.01774,-0.05532 0.03249,-0.112379 0.02852,-0.114524 0.02458,-0.116467 0.02069,-0.118204 0.01682,-0.119737 0.013,-0.121066 0.0092,-0.12219 0.08604,0.0073 0.08597,0.0056 0.08585,0.0039 0.08567,0.0023 0.08543,6.29e-4 0.08514,-0.0011 0.08478,-0.0028 0.08437,-0.0044 0.08391,-0.0061 0.08338,-0.0078 0.0828,-0.0095 0.08216,-0.01117 0.08147,-0.01287 0.08071,-0.01459 0.0799,-0.0163 0.07903,-0.01802 1.2684,1.300083 0.09553,0.06462 0.09181,0.0671 0.08814,0.06952 0.08453,0.0719 0.08096,0.07422 0.07744,0.07649 0.07398,0.07871 0.07056,0.08088 0.06719,0.083 0.06387,0.08506 0.06061,0.08707 0.05739,0.08903 0.05422,0.09093 0.0511,0.09279 0.04803,0.0946 0.04501,0.09634 0.04205,0.09805 0.03913,0.0997 0.03626,0.101293 0.03344,0.102837 0.03067,0.104331 0.02795,0.105771 0.02529,0.107161 0.02267,0.108499 0.0201,0.109784 0.01758,0.111018 0.01511,0.112201 0.01269,0.113329 0.01032,0.114409 0.008,0.115436 0.0057,0.11641 0.0035,0.117332 0.0013,0.118204 -7.78e-4,0.119024 -0.0028,0.119791 -0.0049,0.120505 -0.0068,0.12117 -0.0088,0.121783 -0.01063,0.122342 -0.01245,0.12285 -0.01422,0.123306 -0.01594,0.123712 -0.01761,0.124064 -0.01923,0.124366 -0.0208,0.124614 -0.02232,0.124811 -0.02379,0.124957 -0.02522,0.125051 -0.02659,0.125092 -0.02791,0.125082 -0.02918,0.125021 -0.0304,0.124907 -0.03157,0.124741 -0.03269,0.124524 -0.06856,0.248189 -0.07244,0.246698 -0.07593,0.244791 -0.07902,0.242471 -0.08171,0.239736 -0.413128,-0.0078 -0.208115,-0.0024 -0.209536,-8.54e-4 -0.249674,8.24e-4 -0.248124,0.0025 -0.246494,0.004 -0.244791,0.0057 -0.243009,0.0073 -0.241153,0.0088 -0.23922,0.01034 -0.23721,0.01186 -0.235127,0.01335 -0.232964,0.01482 -0.230727,0.01628 -0.228413,0.01772 -0.226024,0.01913 -0.223558,0.02053 -0.221015,0.02191 -0.218397,0.02326 -0.215703,0.0246 -0.212932,0.02592 -0.210085,0.02722 -0.207163,0.0285 -0.204164,0.02976 -0.201088,0.03099 -0.197936,0.03221 -0.19471,0.03341 -0.191406,0.03459 -0.188025,0.03574 -0.184571,0.03689 -0.181037,0.038 -0.17743,0.0391 -0.173745,0.04018 -0.169985,0.04124 -0.166147,0.04228 -0.162236,0.04329 -0.158245,0.0443 -0.154181,0.04527 -0.150039,0.04624 -0.145822,0.04718 -0.141528,0.04809 -0.137158,0.04899 -0.132712,0.04988 -0.128191,0.05073 -0.123591,0.05157 -0.118918,0.05239 -0.114166,0.0532 -0.10934,0.05398 -0.104438,0.05474 -0.09946,0.05548 -0.0944,0.0562 -0.08927,0.05689 -0.08406,0.05759 -0.07878,0.05825 -0.07342,0.05889 -0.06798,0.05951 -0.06247,0.06011 -0.05688,0.06069 -0.02632,0.03056 -0.0249,0.0307 -0.02346,0.03083 -0.02202,0.03096 -0.02056,0.0311 -0.0191,0.03122 -0.01763,0.03135 -0.01614,0.03147 -0.01465,0.03159 -0.01315,0.03171 -0.01164,0.03183 -0.01012,0.03194 -0.0086,0.03205 -0.007,0.03215 -0.0055,0.03226 -0.0039,0.03237 -0.0024,0.03247 -7.93e-4,0.03257 0.0014,0.04077 0.004,0.04059 0.0066,0.04041 0.0091,0.04024 0.01152,0.04007 0.01385,0.0399 0.0161,0.03973 0.01826,0.03958 0.0042,0.276006 0.0012,0.2468 -0.0014,0.220212 -0.0036,0.196241 -0.0055,0.174887 -0.0069,0.156149 -0.0081,0.14003 -0.0088,0.126526 -0.0183,0.223013 -0.01677,0.200406 -0.0069,0.09826 -0.0054,0.100468 -0.0035,0.105283 -0.0012,0.112718 0.0022,0.05417 0.0066,0.05389 0.01097,0.0536 0.01526,0.0533 0.01951,0.05298 0.02371,0.05266 0.02786,0.05232 0.03195,0.05197 0.036,0.05161 0.04,0.05125 0.04394,0.05086 0.04784,0.05048 0.05168,0.05007 0.05548,0.04967 0.05922,0.04925 0.06291,0.04881 0.07154,0.437261 0.07501,0.449698 0.0781,0.460501 0.08082,0.469679 0.168274,0.960366 0.174618,0.977511 0.17795,0.981618 0.178272,0.972686 0.345468,1.866418 0.310625,1.67422 0.13472,0.732439 0.116977,0.645272 0.09622,0.545067 0.03939,0.230883 0.03307,0.200941 0.02638,0.16937 0.01931,0.13617 0.01186,0.101338 0.003,0.0371 10e-4,0.02778 5.78e-4,0.02349 0.0017,0.02342 0.0069,0.04662 0.01141,0.04632 0.01587,0.04599 0.02029,0.04566 0.02464,0.04531 0.02894,0.04495 0.03319,0.04457 0.03737,0.04418 0.04151,0.04378 0.04558,0.04335 0.04961,0.04292 0.05357,0.04247 0.05748,0.04201 0.06134,0.04154 0.06514,0.04105 0.06888,0.04053 0.07257,0.04002 0.0762,0.03948 0.07978,0.03893 0.0833,0.03836 0.08677,0.03779 0.09018,0.0372 0.09353,0.03659 0.09683,0.03597 0.100074,0.03534 0.103262,0.03469 0.106394,0.03403 0.109471,0.03335 0.112492,0.03266 0.115457,0.03195 0.118367,0.03123 0.121221,0.03049 0.12402,0.02974 0.126763,0.02898 0.12945,0.0282 0.132082,0.0274 0.134659,0.0266 0.137179,0.02578 0.139643,0.02495 0.142053,0.02409 0.144408,0.02323 0.146705,0.02235 0.148948,0.02146 0.151135,0.02055 0.153267,0.01963 0.155342,0.0187 0.157362,0.01774 0.159326,0.01678 0.161237,0.0158 0.163089,0.01481 0.164887,0.0138 0.16663,0.01278 0.168315,0.01174 0.169947,0.01069 0.171523,0.0097 0.173041,0.0086 0.174506,0.0075 0.175916,0.0063 0.177267,0.0052 0.178565,0.004 0.179806,0.003 0.180994,0.0018 0.182123,5.95e-4 0.182123,-5.95e-4 0.180994,-0.0018 0.179806,-0.003 0.178565,-0.004 0.177268,-0.0052 0.175915,-0.0063 0.174505,-0.0075 0.173043,-0.0086 0.171522,-0.0097 0.169946,-0.01069 0.168317,-0.01174 0.166628,-0.01278 0.164887,-0.0138 0.16309,-0.01481 0.161236,-0.0158 0.159326,-0.01678 0.157362,-0.01774 0.155343,-0.0187 0.153266,-0.01963 0.151135,-0.02055 0.148947,-0.02146 0.146706,-0.02235 0.144407,-0.02323 0.142053,-0.02409 0.139644,-0.02495 0.13718,-0.02578 0.134658,-0.0266 0.132081,-0.0274 0.12945,-0.0282 0.126764,-0.02898 0.12402,-0.02974 0.121221,-0.03049 0.118366,-0.03123 0.115458,-0.03195 0.112492,-0.03266 0.10947,-0.03335 0.106394,-0.03403 0.103262,-0.03469 0.100074,-0.03534 0.09683,-0.03597 0.09353,-0.03659 0.09018,-0.0372 0.08677,-0.03779 0.0833,-0.03836 0.07978,-0.03893 0.0762,-0.03948 0.07257,-0.04002 0.06888,-0.04053 0.06514,-0.04105 0.06134,-0.04154 0.05748,-0.04201 0.05357,-0.04247 0.04961,-0.04292 0.04558,-0.04335 0.04151,-0.04378 0.03737,-0.04418 0.03319,-0.04457 0.02894,-0.04495 0.02464,-0.04531 0.02029,-0.04566 0.01587,-0.04599 0.01141,-0.04632 0.0069,-0.04662 0.0017,-0.02342 5.78e-4,-0.02349 0.0027,-0.06095 0.008,-0.09061 0.01324,-0.119375 0.01836,-0.147252 0.02337,-0.174236 0.02828,-0.200329 0.07087,-0.475366 0.08926,-0.56903 0.106818,-0.655558 0.123545,-0.734948 0.139439,-0.807203 0.154502,-0.87232 0.168735,-0.9303 0.182135,-0.981145 0.194704,-1.024852 0.101806,-0.526586 0.104638,-0.534836 0.107363,-0.542194 0.109987,-0.548662 0.112505,-0.554234 0.11492,-0.558918 0.117232,-0.562707 0.119438,-0.565605 0.04055,-0.03992 0.03814,-0.04018 0.0357,-0.04041 0.03323,-0.04066 0.03074,-0.0409 0.02821,-0.04112 0.02566,-0.04135 0.02308,-0.04157 0.02047,-0.04178 0.01783,-0.042 0.01517,-0.0422 0.01247,-0.04239 0.0098,-0.04259 0.007,-0.04278 0.0042,-0.04297 0.0014,-0.04314 -6.83e-4,-0.476245 -0.0036,-0.529286 -0.0088,-0.654272 -0.01627,-0.851198 0.01197,-0.04653 0.0093,-0.04668 0.006,-0.0469 0.0021,-0.04719 -0.0021,-0.05332 -0.0063,-0.05304 -0.01053,-0.05277 -0.01467,-0.05248 -0.01877,-0.05217 -0.02282,-0.05186 -0.02684,-0.05153 -0.03081,-0.0512 -0.03474,-0.05085 -0.03863,-0.0505 -0.04247,-0.05013 -0.04627,-0.04976 -0.05004,-0.04936 -0.05376,-0.04897 -0.05743,-0.04856 -0.06107,-0.04813 -0.06466,-0.0477 -0.06821,-0.04725 -0.07172,-0.0468 -0.07519,-0.04634 -0.07862,-0.04586 -0.082,-0.04537 -0.08534,-0.04488 -0.08864,-0.04437 -0.0919,-0.04385 -0.09512,-0.04331 -0.09829,-0.04277 -0.101422,-0.04222 -0.104512,-0.04166 -0.107562,-0.04109 -0.110566,-0.0405 -0.113531,-0.0399 -0.116452,-0.0393 -0.119334,-0.03868 -0.12217,-0.03805 -0.124967,-0.03741 -0.127721,-0.03676 -0.130433,-0.0361 -0.133105,-0.03543 -0.135732,-0.03474 -0.138318,-0.03405 -0.140862,-0.03335 -0.143365,-0.03263 -0.145825,-0.0319 -0.148244,-0.03116 -0.150619,-0.03041 -0.152955,-0.02965 -0.155247,-0.02888 -0.157497,-0.0281 -0.159706,-0.0273 -0.161872,-0.02651 -0.163996,-0.02569 -0.3342,-0.04889 -0.342193,-0.04551 -0.349852,-0.04203 -0.357176,-0.03847 -0.364161,-0.03482 -0.370813,-0.03108 0.0717,-0.23517 0.06946,-0.237879 0.06688,-0.240167 0.06395,-0.242029 0.06068,-0.243468 0.05706,-0.244486 0.05309,-0.245081 0.04878,-0.245251 0.02267,-0.122557 0.02146,-0.122441 0.02021,-0.122273 0.01892,-0.122052 0.01758,-0.121776 0.0162,-0.12145 0.01478,-0.121069 0.01331,-0.120635 0.0118,-0.12015 0.01025,-0.119611 0.0087,-0.119019 0.007,-0.118375 0.0053,-0.117676 0.0036,-0.116927 0.0018,-0.116123 2.6e-5,-0.115267 0.05001,0.02699 0.05149,0.02589 0.05297,0.02479 0.05447,0.02366 0.05598,0.02252 0.0575,0.02136 0.05902,0.0202 0.06056,0.019 0.06211,0.0178 0.06368,0.01659 0.06525,0.01536 0.06683,0.01411 0.06842,0.01284 0.07003,0.01156 0.07164,0.01027 0.07326,0.009 0.0749,0.0077 0.07655,0.0063 0.0782,0.0049 0.07987,0.0035 0.08155,0.0022 0.08324,8e-4 0.08494,-6.14e-4 0.08665,-0.0021 0.08837,-0.0035 0.0901,-0.0049 0.09185,-0.0064 0.0936,-0.0079 0.09537,-0.0095 0.09714,-0.01094 0.09893,-0.01247 0.100723,-0.01403 0.10253,-0.01559 0.104348,-0.01717 0.106176,-0.01877 0.108015,-0.02038 0.109866,-0.022 0.111727,-0.02365 0.113597,-0.0253 0.11548,-0.02698 0.117373,-0.02867 0.119277,-0.03037 0.12119,-0.03208 0.123115,-0.03382 0.125051,-0.03556 0.126998,-0.03733 0.128955,-0.0391 0.130922,-0.0409 0.267791,-0.08724 0.275791,-0.0946 0.283876,-0.102078 0.292048,-0.109677 0.300304,-0.117396 0.308647,-0.125239 0.317075,-0.133204 0.325588,-0.141287 0.193213,-0.233468 0.193027,-0.227314 0.192748,-0.221243 0.192379,-0.215253 0.191913,-0.209346 0.191355,-0.203518 0.190707,-0.197773 0.189961,-0.19211 0.189126,-0.186529 0.188196,-0.181029 0.187173,-0.17561 0.186058,-0.170273 0.184849,-0.165018 0.183547,-0.159844 0.182152,-0.154752 0.180665,-0.149743 0.179083,-0.144813 0.177409,-0.139966 0.175643,-0.135201 0.173781,-0.130517 0.171829,-0.125914 0.169782,-0.121394 0.167644,-0.116955 0.165411,-0.112598 0.163085,-0.108322 0.160667,-0.104128 0.158155,-0.100015 0.155551,-0.09599 0.152853,-0.09204 0.150063,-0.08817 0.147178,-0.08439 0.144201,-0.08068 0.141133,-0.07705 0.137969,-0.07351 0.134712,-0.07005 0.131364,-0.06667 0.127921,-0.06338 0.124388,-0.06017 0.120758,-0.05703 0.117037,-0.05398 0.222538,-0.09913 0.206536,-0.0879 0.18979,-0.07733 0.1723,-0.06741 0.154063,-0.05815 0.135084,-0.04953 0.210252,-0.07583 0.07368,-0.02761 0.05172,-0.0216 0.01739,-0.0088 0.01163,-0.0075 0.0058,-0.0063 6.55e-4,-0.0028 -8.46e-4,-0.0025 -0.0045,-0.0017 -0.01484,-0.0072 -0.05994,-0.02986 -0.0989,-0.04875 -0.136165,-0.06557 -0.171745,-0.0803 -0.205638,-0.09293 -0.237844,-0.103469 -0.130471,-0.05503 -0.13789,-0.05689 -0.145099,-0.05847 -0.152094,-0.0598 -0.158881,-0.06087 -0.165456,-0.06168 -0.171819,-0.06222 -0.177973,-0.0625 -0.183914,-0.06252 -0.189648,-0.06229 -0.195166,-0.06178 -0.200477,-0.06102 -0.205575,-0.05999 -0.210462,-0.05871 -0.21514,-0.05716 -0.219605,-0.05536 -0.22386,-0.05329 -0.227905,-0.05095 -0.231737,-0.04836 -0.235361,-0.04551 -0.23877,-0.0424 -0.241972,-0.03901 -0.244961,-0.03538 -0.247739,-0.03147 -0.124847,-0.01419 -0.125461,-0.01312 -0.126051,-0.01201 -0.126613,-0.01087 -0.127151,-0.0097 -0.127659,-0.0085 -0.128144,-0.0073 -0.128601,-0.006 -0.129033,-0.0047 -0.129436,-0.0034 -0.129815,-0.002 -0.130167,-5.96e-4 -0.130492,8.36e-4 -0.130793,0.0023 -0.131064,0.0038 -0.131311,0.0053 -0.131531,0.0069 -0.131726,0.0085 -0.131892,0.01011 -0.132033,0.01178 -0.132147,0.01348 -0.132237,0.0152 -0.132298,0.01696 -0.132334,0.01875 -0.132342,0.02057 -0.132327,0.02244 -0.132282,0.02432 -0.132212,0.02624 -0.132116,0.0282 -0.131993,0.03018 -0.131845,0.0322 -0.131669,0.03425 -0.131467,0.03634 -0.131239,0.03846 -0.130985,0.04061 -0.130704,0.0428 -0.130396,0.04502 -0.130063,0.04726 -0.129704,0.04954 -0.129317,0.05186 -0.128904,0.0542 -0.128466,0.05659 -0.128001,0.059 -0.127508,0.06144 -0.12699,0.06392 -0.126445,0.06643 -0.125875,0.06898 -0.125279,0.07155 -0.124654,0.07417 -0.124004,0.0768 -0.123328,0.07948 -0.122626,0.08218 -0.06374,0.04557 -0.06367,0.04699 -0.06357,0.04838 -0.06346,0.04974 -0.126496,0.103454 -0.125799,0.108561 -0.124947,0.113441 -0.123932,0.118097 -0.12276,0.122524 -0.12143,0.126726 -0.119943,0.130701 -0.118294,0.134449 -0.116488,0.137973 -0.114524,0.141267 -0.1124,0.144337 -0.11012,0.14718 -0.107679,0.149796 -0.10508,0.152186 -0.102322,0.154349 -0.09941,0.156287 -0.09633,0.157998 -0.0931,0.159481 -0.08971,0.16074 -0.08616,0.161771 -0.08245,0.162576 -0.07858,0.163153 -0.07455,0.163506 -0.07037,0.163633 -0.06603,0.16353 -0.06153,0.163204 -0.05687,0.16265 -0.05205,0.16187 -0.04707,0.160863 -0.02162,0.07998 -0.02031,0.07965 -0.05208,-0.08095 -0.05377,-0.08129 -0.05544,-0.08163 -0.05708,-0.08195 -0.118973,-0.16483 -0.125218,-0.166004 -0.131258,-0.167095 -0.137087,-0.168104 -0.14271,-0.16903 -0.148123,-0.169875 -0.153328,-0.170637 -0.158325,-0.171316 -0.163113,-0.171912 -0.167694,-0.172428 -0.172065,-0.172859 -0.176229,-0.17321 -0.180184,-0.173477 -0.18393,-0.173662 0.03689,-0.06852 0.03405,-0.07076 0.03114,-0.07303 0.02815,-0.07531 0.02509,-0.0776 0.02195,-0.07991 0.01875,-0.08223 0.01546,-0.08456 0.01211,-0.08692 0.0087,-0.08929 0.0052,-0.09166 0.0016,-0.09406 -0.0021,-0.09646 -0.0058,-0.09888 -0.0096,-0.101322 -0.01344,-0.103773 0.0841,-0.0413 0.08074,-0.04297 0.07742,-0.04459 0.07413,-0.04617 0.07089,-0.04771 0.06767,-0.0492 0.0645,-0.05065 0.06136,-0.05204 0.05826,-0.05341 0.0552,-0.05472 0.05217,-0.05599 0.04918,-0.05722 0.04623,-0.0584 0.04331,-0.05954 0.04044,-0.06063 0.03759,-0.06169 0.03479,-0.06269 0.03202,-0.06366 0.02929,-0.06457 0.02659,-0.06545 0.02394,-0.06628 0.02131,-0.06707 0.01873,-0.06782 0.01618,-0.06851 0.01367,-0.06917 0.0112,-0.06978 0.0088,-0.07034 0.0064,-0.07087 0.004,-0.07135 0.0017,-0.07178 -6.21e-4,-0.07217 -0.0029,-0.07252 -0.0051,-0.07282 -0.0073,-0.07308 -0.0094,-0.0733 -0.01152,-0.07348 -0.01359,-0.0736 -0.01562,-0.07368 -0.01761,-0.07372 -0.01957,-0.07372 -0.02149,-0.07367 -0.02338,-0.07357 -0.02523,-0.07344 -0.02704,-0.07326 -0.02881,-0.07303 -0.03055,-0.07276 -0.03225,-0.07246 -0.03391,-0.0721 -0.03554,-0.0717 -0.03713,-0.07126 -0.03868,-0.07076 -0.0402,-0.07023 -0.04168,-0.06966 -0.04312,-0.06904 -0.04453,-0.06838 -0.0459,-0.06767 -0.04723,-0.06691 -0.04852,-0.06612 -0.04978,-0.06528 -0.051,-0.0644 -0.05219,-0.06347 -0.05334,-0.06249 -0.05445,-0.06148 -0.05552,-0.06042 0.0879,-0.02834 0.08764,-0.03031 0.08731,-0.03224 0.0869,-0.03413 0.08641,-0.03599 0.08585,-0.0378 0.08521,-0.03959 0.08449,-0.04132 0.0837,-0.04303 0.08283,-0.04469 0.08188,-0.04632 0.08086,-0.04791 0.07976,-0.04945 0.07858,-0.05096 0.07733,-0.05244 0.076,-0.05387 0.0746,-0.05527 0.07312,-0.05663 0.07156,-0.05795 0.06992,-0.05923 0.06821,-0.06047 0.06642,-0.06168 0.06456,-0.06285 0.06262,-0.06397 0.0606,-0.06507 0.05851,-0.06612 0.05634,-0.06714 0.05409,-0.06811 0.05177,-0.06905 0.04937,-0.06995 0.04689,-0.07081 0.04434,-0.07163 0.04171,-0.07242 0.03901,-0.07317 0.03622,-0.07388 0.03336,-0.07455 0.03043,-0.07518 0.02742,-0.07577 0.02433,-0.07633 0.02116,-0.07686 0.01792,-0.07733 0.0146,-0.07777 0.01121,-0.07818 0.0077,-0.07854 0.0042,-0.07887 5.68e-4,-0.07916 -0.0031,-0.07941 -0.0069,-0.07963 -0.01076,-0.0798 -0.01469,-0.07993 -0.0187,-0.08004 -0.02278,-0.0801 -0.02694,-0.08012 -0.03118,-0.0801 -0.03549,-0.08005 -0.03988,-0.07995 -0.04434,-0.07982 -0.04888,-0.07966 -0.0535,-0.07945 -0.0582,-0.0792 -0.06297,-0.07892 -0.06782,-0.0786 -0.07274,-0.07824 -0.07774,-0.07784 0.04892,-0.09886 0.04367,-0.09788 0.03852,-0.09688 0.03347,-0.09585 0.02851,-0.09481 0.02365,-0.09374 0.01888,-0.09266 0.01422,-0.09155 0.0096,-0.09042 0.0052,-0.08928 7.94e-4,-0.0881 -0.0035,-0.08692 -0.0077,-0.08571 -0.01176,-0.08447 -0.01575,-0.08322 -0.01964,-0.08194 -0.02343,-0.08065 -0.02713,-0.07934 -0.03073,-0.078 -0.03424,-0.07665 -0.03765,-0.07527 -0.04096,-0.07387 -0.04417,-0.07245 -0.04729,-0.07101 -0.05031,-0.06955 -0.05324,-0.06807 -0.05606,-0.06657 -0.05879,-0.06505 -0.06142,-0.0635 -0.06396,-0.06193 -0.0664,-0.06035 -0.06874,-0.05874 0.043,-0.11452 0.03898,-0.114927 0.03482,-0.115167 0.03054,-0.115237 0.02613,-0.115135 0.02159,-0.114868 0.0091,-0.05728 0.0079,-0.05715 0.0067,-0.05699 0.0055,-0.05683 0.0042,-0.05663 0.003,-0.05641 0.0017,-0.05617 4.43e-4,-0.05592 -8.51e-4,-0.05564 -0.0022,-0.05534 -0.0035,-0.05502 -0.0048,-0.05468 -0.0062,-0.05431 -0.0076,-0.05393 -0.0089,-0.05352 -0.01035,-0.05309 -0.01177,-0.05265 -0.01321,-0.05217 -0.01466,-0.05168 -0.01613,-0.05118 -0.01762,-0.05065 -0.01912,-0.05008 -0.02063,-0.04951 -0.02217,-0.04891 -0.02372,-0.0483 -0.02528,-0.04766 -0.02686,-0.047 -0.02846,-0.04632 -0.03007,-0.04562 -0.0317,-0.04489 -0.03334,-0.04415 -0.035,-0.04338 -0.03668,-0.04259 -0.03837,-0.04178 -0.04008,-0.04096 -0.0418,-0.0401 -0.04354,-0.03923 -0.04529,-0.03834 -0.04707,-0.03743 -0.04885,-0.03649 -0.05066,-0.03553 -0.05248,-0.03456 -0.05431,-0.03355 -0.05616,-0.03254 -0.05803,-0.03149 -0.05991,-0.03043 -0.06181,-0.02935 -0.06372,-0.02824 -0.06565,-0.02712 -0.0676,-0.02597 -0.06956,-0.0248 -0.07154,-0.02362 -3.43e-4,-0.07738 -0.0024,-0.07582 -0.0045,-0.07426 -0.0065,-0.07272 -0.0085,-0.07118 -0.01047,-0.06965 -0.0124,-0.06812 -0.01429,-0.06662 -0.01615,-0.0651 -0.01798,-0.0636 -0.01978,-0.06211 -0.02155,-0.06063 -0.02328,-0.05915 -0.02497,-0.05768 -0.02664,-0.05622 -0.02827,-0.05476 -0.02988,-0.05333 -0.03144,-0.05189 -0.03298,-0.05046 -0.03448,-0.04903 -0.03595,-0.04762 -0.03739,-0.04621 -0.03879,-0.04482 -0.04017,-0.04343 -0.04151,-0.04204 -0.04281,-0.04067 -0.04409,-0.0393 -0.04533,-0.03794 -0.04654,-0.03659 -0.04771,-0.03525 -0.04886,-0.03391 -0.04997,-0.03259 -0.05104,-0.03127 -0.05209,-0.02995 -0.0531,-0.02865 -0.05408,-0.02735 -0.05503,-0.02606 -0.05595,-0.02478 -0.05683,-0.02351 -0.05768,-0.02225 -0.05849,-0.02099 -0.05928,-0.01973 -0.06003,-0.01849 -0.06075,-0.01726 -0.06143,-0.01604 -0.06209,-0.01482 -0.06271,-0.0136 -0.06329,-0.0124 -0.06385,-0.01121 -0.06437,-0.01002 -0.06486,-0.0089 -0.06532,-0.0077 -0.06575,-0.0065 -0.06614,-0.0053 -0.0665,-0.0042 -0.06682,-0.0031 -0.134496,-0.0028 -0.135411,0.0018 -0.136065,0.0061 -0.136456,0.01048 -0.02341,-0.112182 -0.02679,-0.110485 -0.0302,-0.108606 -0.03363,-0.106549 -0.03708,-0.104312 -0.04056,-0.101894 -0.04407,-0.0993 -0.0476,-0.09652 -0.02513,-0.04717 -0.02602,-0.0464 -0.02692,-0.04562 -0.02782,-0.04481 -0.02872,-0.04398 -0.02962,-0.04313 -0.03053,-0.04226 -0.03144,-0.04136 -0.03236,-0.04044 -0.03328,-0.03951 -0.0342,-0.03854 -0.03512,-0.03756 -0.03605,-0.03654 -0.03698,-0.03552 -0.03791,-0.03446 -0.03885,-0.03339 -0.03979,-0.03229 -0.04073,-0.03117 -0.04168,-0.03003 -0.04263,-0.02886 -0.04358,-0.02767 -0.04454,-0.02646 -0.04549,-0.02522 -0.04646,-0.02397 -0.04742,-0.02269 -0.04839,-0.02139 -0.04936,-0.02007 -0.05034,-0.01873 -0.05131,-0.01736 -0.05229,-0.01597 -0.05328,-0.01456 -0.05427,-0.01312 -0.05526,-0.01166 -0.05625,-0.01018 -0.05725,-0.0087 -0.05825,-0.0072 -0.05925,-0.0056 -0.06026,-0.004 -0.06127,-0.0025 -0.06228,-8.31e-4 -0.06329,8.06e-4 -0.06431,0.0025 -0.06533,0.0041 -0.06636,0.0058 -0.06739,0.0076 -0.06842,0.0094 -0.06945,0.0111 -0.07049,0.01289 -0.03056,-0.05408 -0.03124,-0.05256 -0.03191,-0.05106 -0.03256,-0.04956 -0.0332,-0.04808 -0.03383,-0.04661 -0.03444,-0.04516 -0.03505,-0.04372 -0.03564,-0.04228 -0.03622,-0.04086 -0.03678,-0.03945 -0.03734,-0.03805 -0.03788,-0.03666 -0.03841,-0.03529 -0.03892,-0.03392 -0.03943,-0.03257 -0.03992,-0.03123 -0.04039,-0.0299 -0.04086,-0.02858 -0.04131,-0.02727 -0.04175,-0.02597 -0.04218,-0.02469 -0.04259,-0.02342 -0.043,-0.02216 -0.04339,-0.02092 -0.04376,-0.01967 -0.04413,-0.01845 -0.04448,-0.01724 -0.04482,-0.01604 -0.04514,-0.01484 -0.04546,-0.01366 -0.04576,-0.0125 -0.04605,-0.01133 -0.04633,-0.01019 -0.04659,-0.0091 -0.04684,-0.008 -0.09439,-0.01257 -0.09524,-0.0082 -0.09599,-0.0039 -0.09665,1.92e-4 -0.0972,0.0042 -0.09765,0.0083 -0.098,0.01212 -0.09825,0.01591 -0.0984,0.01961 -0.09844,0.02321 -0.09839,0.02672 -0.09824,0.03014 -0.09799,0.03346 -0.09763,0.0367 -0.0671,-0.110199 -0.07014,-0.107282 -0.0731,-0.10414 -0.07599,-0.100765 -0.07882,-0.09716 -0.04045,-0.04716 -0.04113,-0.04617 -0.0418,-0.04516 -0.04246,-0.04411 -0.04311,-0.04305 -0.04376,-0.04194 -0.04439,-0.04081 -0.04502,-0.03965 -0.04563,-0.03846 -0.04624,-0.03725 -0.04684,-0.03601 -0.04744,-0.03474 -0.04802,-0.03344 -0.04859,-0.0321 -0.04916,-0.03074 -0.04971,-0.02935 -0.05026,-0.02793 -0.0508,-0.0265 -0.05133,-0.02502 -0.05185,-0.02352 -0.05236,-0.02198 -0.05286,-0.02042 -0.05336,-0.01884 -0.05384,-0.01722 -0.05432,-0.01557 -0.05479,-0.0139 -0.05525,-0.0122 -0.0557,-0.01047 -0.05614,-0.0087 -0.05657,-0.0069 -0.057,-0.0051 -0.05741,-0.0033 -0.05782,-0.0014 -0.05821,5.21e-4 -0.0586,0.0025 -0.05898,0.0044 -0.05935,0.0064 -0.05972,0.0084 -0.06007,0.01047 -0.06041,0.01254 -0.06075,0.01465 -0.06107,0.01678 -0.06139,0.01894 -0.0617,0.02112 -0.062,0.02334 -0.06229,0.02559 -0.06258,0.02787 -0.06285,0.03017 -0.06312,0.03251 -0.06337,0.03486 -0.06362,0.03726 -0.06386,0.03967 -0.06409,0.04212 -0.06431,0.04459 -0.08395,-0.05972 -0.08389,-0.05523 -0.08379,-0.05079 -0.08367,-0.04643 -0.08351,-0.04214 -0.08333,-0.03792 -0.08311,-0.03377 -0.08286,-0.02969 -0.08258,-0.02568 -0.08228,-0.02173 -0.08194,-0.01787 -0.08157,-0.01408 -0.08117,-0.01035 -0.08074,-0.0067 -0.08027,-0.0032 -0.07978,4.1e-4 v 0"
       style="fill:#ff9602;stroke:#000000;stroke-width:0.01045593;stroke-linecap:round;stroke-linejoin:round" />
  </g>
  <g
     id="g898"
     inkscape:groupmode="layer"
     inkscape:label="Margin-disabled" />
  <g
     id="g900"
     inkscape:groupmode="layer"
     inkscape:label="B.CrtYd-disabled" />
  <g
     id="g902"
     inkscape:groupmode="layer"
     inkscape:label="F.CrtYd-disabled" />
  <g
     id="g904"
     inkscape:groupmode="layer"
     inkscape:label="B.Fab-disabled" />
  <g
     id="g906"
     inkscape:groupmode="layer"
     inkscape:label="F.Fab-disabled" />
  <g
     id="g908"
     inkscape:groupmode="layer"
     inkscape:label="Drill">
    <g
       transform="matrix(0.07841538,0,0,0.07841538,20.752011,4.4586923)"
       id="g3770" />
  </g>
</svg>
