<?xml version="1.0" encoding="UTF-8" standalone="no"?>
<svg
   xmlns:dc="http://purl.org/dc/elements/1.1/"
   xmlns:cc="http://creativecommons.org/ns#"
   xmlns:rdf="http://www.w3.org/1999/02/22-rdf-syntax-ns#"
   xmlns:svg="http://www.w3.org/2000/svg"
   xmlns="http://www.w3.org/2000/svg"
   xmlns:sodipodi="http://sodipodi.sourceforge.net/DTD/sodipodi-0.dtd"
   xmlns:inkscape="http://www.inkscape.org/namespaces/inkscape"
   width="100.0mm"
   height="100.0mm"
   version="1.1"
   id="svg72"
   sodipodi:docname="michigan-smooth-v2.svg"
   viewBox="0 0 100.0 100.0"
   inkscape:version="0.92.5 (2060ec1f9f, 2020-04-08)">
  <metadata
     id="metadata78">
    <rdf:RDF>
      <cc:Work
         rdf:about="">
        <dc:format>image/svg+xml</dc:format>
        <dc:type
           rdf:resource="http://purl.org/dc/dcmitype/StillImage" />
        <dc:title>Michigan Map Outline</dc:title>
      </cc:Work>
    </rdf:RDF>
  </metadata>
  <defs
     id="defs76" />
  <sodipodi:namedview
     pagecolor="#ffffff"
     bordercolor="#666666"
     borderopacity="1"
     objecttolerance="10"
     gridtolerance="10"
     guidetolerance="10"
     inkscape:pageopacity="0"
     inkscape:pageshadow="2"
     inkscape:window-width="1280"
     inkscape:window-height="1376"
     id="namedview74"
     showgrid="true"
     inkscape:zoom="0.20743456"
     inkscape:cx="1175.796"
     inkscape:cy="-444.22327"
     inkscape:window-x="1280"
     inkscape:window-y="27"
     inkscape:window-maximized="0"
     inkscape:current-layer="svg72"
     borderlayer="true"
     inkscape:document-units="mm">
    <inkscape:grid
       id="grid82"
       units="mm"
       type="xygrid"
       empspacing="1"
       spacingy="2.54"
       spacingx="2.54" />
  </sodipodi:namedview>
  <title
     id="title64">Michigan Map Outline</title>
  <g
     id="g92"
     sodipodi:insensitive="true"
     inkscape:groupmode="layer"
     inkscape:label="[fixed] BG">
    <rect
       id="rect90"
       style="stroke:none;fill-opacity:1;fill:#FFFFFF"
       height="100.0"
       width="100.0"
       y="0"
       x="0" />
  </g>
  <g
     id="g94"
     inkscape:groupmode="layer"
     inkscape:label="F.Cu" />
  <g
     id="g96"
     inkscape:groupmode="layer"
     inkscape:label="B.Cu-disabled" />
  <g
     id="g98"
     inkscape:groupmode="layer"
     inkscape:label="B.Adhes-disabled" />
  <g
     id="g100"
     inkscape:groupmode="layer"
     inkscape:label="F.Adhes-disabled" />
  <g
     id="g102"
     inkscape:groupmode="layer"
     inkscape:label="B.Paste-disabled" />
  <g
     id="g104"
     inkscape:groupmode="layer"
     inkscape:label="F.Paste-disabled" />
  <g
     id="g106"
     inkscape:groupmode="layer"
     inkscape:label="B.SilkS-disabled" />
  <g
     id="g108"
     inkscape:groupmode="layer"
     inkscape:label="F.SilkS-disabled" />
  <g
     id="g110"
     inkscape:groupmode="layer"
     inkscape:label="B.Mask-disabled" />
  <g
     id="g112"
     inkscape:groupmode="layer"
     inkscape:label="F.Mask-disabled" />
  <g
     id="g114"
     inkscape:groupmode="layer"
     inkscape:label="Dwgs.User-disabled" />
  <g
     id="g116"
     inkscape:groupmode="layer"
     inkscape:label="Cmts.User-disabled" />
  <g
     id="g118"
     inkscape:groupmode="layer"
     inkscape:label="Eco1.User-disabled" />
  <g
     id="g120"
     inkscape:groupmode="layer"
     inkscape:label="Eco2.User-disabled" />
  <g
     id="g122"
     inkscape:groupmode="layer"
     inkscape:label="Edge.Cuts">
    <path
       inkscape:connector-curvature="0"
       id="path1390-3"
       d="m 4.4529427,22.250069 1.5308335,-0.651307 1.5372883,-0.637797 1.5449011,-0.619583 1.5536724,-0.596666 1.563601,-0.569045 1.574688,-0.536721 1.586934,-0.499693 1.600337,-0.457962 0.399428,-0.229913 0.391901,-0.242876 0.763843,-0.520036 0.741602,-0.55808 0.724609,-0.586923 0.71286,-0.606561 0.70636,-0.616997 1.414199,-1.228491 0.718333,-0.593088 0.732816,-0.566712 0.752546,-0.531134 0.777523,-0.486353 0.399767,-0.223507 0.407978,-0.208861 0.416846,-0.193065 0.426368,-0.176117 0.436548,-0.1580195 0.447381,-0.138772 0.458873,-0.1183737 0.471018,-0.096825 0.150268,0.2279007 0.116498,0.2200065 0.08441,0.212487 0.054,0.205341 0.02526,0.198569 -0.0018,0.192173 -0.02716,0.186149 -0.05086,0.180501 -0.07287,0.175226 -0.09321,0.170327 -0.111861,0.1658 -0.128838,0.161648 -0.301887,0.312339 -0.349641,0.300222 -0.383961,0.2911 -0.404844,0.284972 -0.818602,0.563534 -0.386888,0.28455 -0.354033,0.290398 -0.307743,0.299238 -0.132314,0.153871 -0.115704,0.157203 -0.174179,0.188855 -0.156439,0.196509 -0.139014,0.202754 -0.121904,0.20759 -0.105109,0.211016 -0.08863,0.213033 -0.07246,0.213641 -0.05661,0.212839 -0.06693,0.417636 -0.0073,0.397517 0.01792,0.187691 0.03188,0.178434 0.04552,0.167766 0.05885,0.155691 0.07187,0.142205 0.08457,0.12731 0.09696,0.111006 0.109028,0.09329 0.120784,0.07417 0.132225,0.05364 0.143351,0.0317 0.154164,0.0083 0.164659,-0.01641 0.174841,-0.04258 0.184708,-0.07016 0.19426,-0.09915 0.203497,-0.129547 0.212418,-0.161354 0.221026,-0.194569 0.229317,-0.229195 0.343898,-0.04742 0.337457,-0.02502 0.331187,-0.0035 0.325089,0.017 0.319162,0.03661 0.313408,0.0553 0.307825,0.07306 0.302414,0.08988 0.297174,0.105779 0.292107,0.120746 0.569699,0.28268 0.551489,0.331398 0.534655,0.372684 0.519194,0.406533 0.505108,0.432948 0.492395,0.451929 0.481056,0.463475 0.933595,0.931848 0.904731,0.888814 0.220459,0.173885 0.227043,0.159493 0.472263,0.277199 0.493874,0.223796 0.512338,0.173167 0.52765,0.125315 0.539815,0.08024 0.54883,0.03793 0.554695,-0.0016 0.557412,-0.03835 0.556979,-0.07232 0.553396,-0.103524 0.546665,-0.131951 0.536785,-0.157602 0.523754,-0.180479 0.507575,-0.20058 0.488246,-0.217905 0.942192,-0.601427 0.948026,-0.590533 0.962459,-0.552112 0.489329,-0.253045 0.496161,-0.233118 0.504069,-0.209748 0.513051,-0.182938 0.523108,-0.152687 0.534239,-0.118995 0.546445,-0.08186 0.559727,-0.04129 0.574083,0.0027 0.589513,0.05018 0.509295,-0.07241 0.524734,-0.110647 1.077198,-0.285592 1.083201,-0.287295 0.532238,-0.112776 0.519801,-0.07539 0.502719,-0.0254 0.243502,0.01 0.237489,0.02721 0.230895,0.04601 0.223722,0.06638 0.215966,0.08834 0.207631,0.111862 0.198715,0.136963 0.189218,0.16364 0.17914,0.191893 0.168481,0.221722 0.157242,0.253125 0.145422,0.286104 0.133022,0.320659 0.12004,0.35679 0.135805,0.340442 0.146321,0.295877 0.156328,0.253861 0.165825,0.214392 0.174814,0.177471 0.183293,0.143098 0.191265,0.111273 0.198726,0.08199 0.205678,0.05527 0.212122,0.03108 0.218057,0.0094 0.223482,-0.0096 0.461206,-0.06634 0.476799,-0.112109 0.984094,-0.279998 0.499149,-0.127124 0.498456,-0.09136 0.247695,-0.0259 0.245994,-0.0093 0.243785,0.0098 0.241066,0.03149 0.237839,0.05572 0.234102,0.0825 0.229856,0.111818 0.225102,0.143688 0.251181,0.08036 0.214678,0.01986 0.181915,-0.02927 0.15289,-0.06705 0.127605,-0.09348 0.106059,-0.108543 0.162435,-0.216856 0.06386,-0.0856 0.05727,-0.05524 0.05442,-0.01352 0.0553,0.03956 0.05993,0.103995 0.0683,0.179787 0.176657,0.632377 0.02505,0.374432 0.05209,0.380358 0.07548,0.384383 0.09522,0.386504 0.235064,0.771756 0.27021,0.7574 0.529012,1.410827 0.200382,0.622975 0.07138,0.284216 0.04731,0.263498 -0.220279,0.135609 -0.230198,0.110961 -0.239257,0.08832 -0.247452,0.0677 -0.254787,0.04908 -0.26126,0.03247 -0.538489,0.02318 -0.554035,-0.01912 -0.562688,-0.04532 -1.123752,-0.104919 -0.547274,-0.02743 -0.528345,0.01071 -0.25492,0.02469 -0.247602,0.04025 -0.239423,0.05783 -0.230381,0.07742 -0.220478,0.09902 -0.209713,0.122625 -0.198086,0.148246 -0.185597,0.175878 -0.172245,0.205519 -0.158034,0.237172 -0.142958,0.270835 -0.127022,0.30651 -0.176728,-0.264986 -0.188561,-0.2456 -0.199796,-0.226749 -0.210438,-0.208434 -0.220482,-0.190652 -0.229931,-0.173406 -0.238786,-0.156694 -0.247043,-0.140518 -0.254706,-0.124876 -0.261773,-0.109769 -0.268244,-0.0952 -0.27412,-0.08116 -0.563484,-0.122345 -0.579839,-0.07261 -0.591429,-0.02716 -0.598254,0.01402 -0.600314,0.05091 -0.597608,0.08353 -0.590139,0.11187 -0.577904,0.135931 -0.560904,0.155713 -0.539139,0.171218 -0.445732,0.161448 -0.455154,0.134328 -0.462363,0.113118 -0.467361,0.09782 -0.940873,0.17338 -0.934333,0.183103 -0.459185,0.109974 -0.450916,0.130135 -0.440436,0.156206 -0.427745,0.188189 -0.412842,0.22608 -0.395729,0.269882 -0.376403,0.319594 -0.354867,0.375216 -0.248915,0.178872 -0.265174,0.229773 -0.556387,0.55677 -0.553213,0.593926 -0.504565,0.520112 -0.219829,0.197699 -0.190615,0.137631 -0.08258,0.04196 -0.07314,0.02174 -0.06299,-2.15e-4 -0.05214,-0.0239 -0.04057,-0.04932 -0.02829,-0.07647 -0.01531,-0.105363 -0.0016,-0.135984 0.04072,-0.37077 0.104037,-0.514063 -0.153215,-0.121618 -0.152482,-0.09716 -0.151794,-0.07424 -0.151154,-0.05286 -0.150558,-0.03302 -0.15001,-0.01472 -0.149508,0.0021 -0.149052,0.01728 -0.296922,0.0741 -0.295654,0.116568 -0.294756,0.146733 -0.29423,0.164598 -0.588359,0.333579 -0.294871,0.14438 -0.295826,0.113037 -0.29715,0.06939 -0.149188,0.01449 -0.149658,-10e-4 -0.150174,-0.0181 -0.150737,-0.0367 -0.151347,-0.05683 -0.152001,-0.07851 -0.361942,0.299414 -0.314725,0.331057 -0.273439,0.358824 -0.238084,0.382713 -0.208661,0.402726 -0.185166,0.418862 -0.167605,0.431122 -0.155973,0.439504 -0.300774,0.888652 -0.156664,0.441393 -0.168755,0.434269 -0.186779,0.423269 -0.210732,0.408392 -0.240617,0.389638 -0.276432,0.367007 -0.03038,0.322392 -0.05397,0.296769 -0.07582,0.271503 -0.09592,0.246591 -0.114266,0.222033 -0.13087,0.197831 -0.145726,0.173984 -0.158836,0.150492 -0.170197,0.127355 -0.179813,0.104573 -0.187681,0.08215 -0.193802,0.06007 -0.198175,0.03836 -0.200802,0.01699 -0.201682,-0.004 -0.200815,-0.02467 -0.1982,-0.04496 -0.193838,-0.06491 -0.18773,-0.08449 -0.179874,-0.103725 -0.170271,-0.122602 -0.158921,-0.141124 -0.145824,-0.159292 -0.13098,-0.177104 -0.114389,-0.194561 -0.09605,-0.211664 -0.07597,-0.228411 -0.05413,-0.244803 -0.03055,-0.260841 -0.0052,-0.276523 0.02185,-0.291851 0.05067,-0.306823 -0.05787,-0.410847 -0.07591,-0.410083 -0.09356,-0.40848 -0.110819,-0.406037 -0.127692,-0.402753 -0.144175,-0.39863 -0.16027,-0.393667 -0.175974,-0.387864 -0.191289,-0.381221 -0.206216,-0.373738 -0.220753,-0.365415 -0.2349,-0.356252 -0.248659,-0.34625 -0.262028,-0.335407 -0.275008,-0.323724 -0.287598,-0.311202 -0.2998,-0.29784 -0.311612,-0.283637 -0.323034,-0.268595 -0.334068,-0.252713 -0.344713,-0.23599 -0.354967,-0.218429 -0.364833,-0.200026 -0.374309,-0.180785 -0.383396,-0.160703 -0.392095,-0.139781 -0.400403,-0.118019 -0.408322,-0.09542 -0.415852,-0.07198 -0.422993,-0.0477 -0.429744,-0.02257 -0.436107,0.0034 -1.667829,-0.06132 -0.844824,-0.06423 -0.419358,-0.05001 -0.415117,-0.06555 -0.409226,-0.08382 -0.401683,-0.104791 -0.392487,-0.128479 -0.38164,-0.154882 L 17.847665,29.920408 17.492677,29.704579 17.153493,29.454205 16.831765,29.166573 16.073284,28.878454 15.295237,28.608413 13.702355,28.095776 12.096938,27.575079 11.303223,27.294965 10.522807,26.992744 9.7611678,26.661717 9.023782,26.295188 8.3161275,25.886459 7.9751612,25.664176 7.6436818,25.428832 7.322374,25.179589 7.0119225,24.915609 6.7130119,24.636057 6.4263269,24.340094 6.1525523,24.026883 5.8923726,23.695587 5.6464727,23.34537 5.4155371,22.975393 5.3714766,22.802947 5.2890547,22.671184 5.1765607,22.571451 5.0422839,22.495096 4.741539,22.377904 4.5916495,22.319762 4.4531344,22.250386"
       style="fill:none;stroke:#000000;stroke-width:1.32291663" />
    <path
       inkscape:connector-curvature="0"
       id="path1414-6"
       d="m 48.941046,90.789327 0.33255,-0.564797 0.31732,-0.576305 0.301669,-0.587088 0.285597,-0.597146 0.269104,-0.60648 0.25219,-0.615089 0.234856,-0.622974 0.2171,-0.630133 0.198923,-0.636568 0.180326,-0.642279 0.161308,-0.647265 0.141868,-0.651526 0.122008,-0.655063 0.101727,-0.657876 0.08103,-0.659962 0.0599,-0.661326 0.03836,-0.661963 0.01639,-0.661878 -0.006,-0.661066 -0.0288,-0.659531 -0.05203,-0.65727 -0.07567,-0.654286 -0.09974,-0.650576 -0.124234,-0.646143 -0.149146,-0.640983 -0.174477,-0.6351 -0.200231,-0.628493 -0.226404,-0.621159 -0.252999,-0.613103 -0.280015,-0.60432 -0.307452,-0.594815 -0.335309,-0.584583 -0.217664,-0.273572 -0.194621,-0.279278 -0.172726,-0.284698 -0.151977,-0.289828 -0.132376,-0.294672 -0.113923,-0.299227 -0.09661,-0.303495 -0.08046,-0.307474 -0.117021,-0.625736 -0.06615,-0.638199 -0.02445,-0.648359 0.0081,-0.656218 0.03141,-0.661771 0.04557,-0.665022 0.09693,-1.330587 0.033,-0.660958 0.01046,-0.654996 -0.02126,-0.646732 -0.06216,-0.636165 0.354625,-1.233365 0.383192,-1.228002 0.392058,-1.226698 0.381221,-1.229455 0.350682,-1.236273 0.157733,-0.621962 0.14271,-0.62519 0.125224,-0.628925 0.105276,-0.633166 0.08287,-0.637917 0.05799,-0.643175 0.395269,-0.743937 0.49439,-0.863545 0.277837,-0.45203 0.294784,-0.452416 0.30912,-0.442963 0.320843,-0.423673 0.329956,-0.394544 0.336458,-0.355575 0.340348,-0.306769 0.341627,-0.248125 0.170477,-0.099 0.169817,-0.08064 0.168832,-0.06106 0.167519,-0.04025 0.165881,-0.01821 0.163916,0.0051 0.161624,0.02956 0.159006,0.05529 -0.004,0.355748 0.031,0.319839 0.06328,0.284933 0.09279,0.251032 0.119537,0.218136 0.143515,0.186245 0.164726,0.155359 0.18317,0.125477 0.198848,0.0966 0.211759,0.06873 0.221903,0.04186 0.229282,0.016 0.233892,-0.0089 0.235737,-0.03271 0.234815,-0.05556 0.231126,-0.07741 0.224671,-0.09824 0.215449,-0.11808 0.20346,-0.136909 0.188705,-0.154734 0.171183,-0.171554 0.150894,-0.18737 0.127839,-0.20218 0.102018,-0.215986 0.07343,-0.228788 0.04207,-0.240583 0.008,-0.251376 -0.02894,-0.261162 -0.06859,-0.269945 -0.111012,-0.277722 -0.156201,-0.284495 -0.204156,-0.290263 -0.02031,-0.245663 0.0032,-0.232318 0.02506,-0.219911 0.04513,-0.208441 0.06346,-0.197909 0.08005,-0.188314 0.0949,-0.179658 0.108004,-0.171938 0.248366,-0.32447 0.2799,-0.304845 0.598689,-0.580821 0.29093,-0.290979 0.266746,-0.301358 0.228635,-0.31924 0.09567,-0.16867 0.08092,-0.175953 0.06443,-0.184174 0.04619,-0.193333 0.02622,-0.203428 0.0045,-0.214463 -0.01895,-0.226435 -0.04415,-0.239343 -0.07109,-0.253191 -0.09978,-0.267975 -0.09482,-0.33627 -0.06539,-0.3289 -0.03709,-0.320951 -0.0099,-0.312424 0.01607,-0.303317 0.04094,-0.293631 0.06466,-0.283368 0.08725,-0.272523 0.108686,-0.261102 0.128985,-0.2491 0.148142,-0.236519 0.166157,-0.223361 0.183029,-0.209622 0.198759,-0.195305 0.213348,-0.180409 0.226793,-0.164934 0.239097,-0.148879 0.250259,-0.132247 0.260278,-0.115034 0.269156,-0.09724 0.27689,-0.07887 0.283484,-0.05992 0.288935,-0.0404 0.293244,-0.02029 0.29641,3.96e-4 0.298434,0.02166 0.299317,0.04351 0.299057,0.06593 0.297655,0.08893 0.295111,0.112509 0.291425,0.136669 0.286596,0.161407 0.452317,0.198033 0.441702,0.219337 0.433033,0.236585 0.42631,0.249773 0.840234,0.52288 0.836696,0.526937 0.848726,0.498529 0.43374,0.228466 0.442586,0.20919 0.453378,0.185855 0.466116,0.158463 0.4808,0.127011 0.497431,0.0915 0.440982,0.08617 0.435798,0.113135 0.427843,0.13987 0.417118,0.166378 0.403624,0.192658 0.38736,0.218712 0.368326,0.244539 0.346522,0.27014 0.321948,0.295513 0.294605,0.32066 0.264491,0.345579 0.231608,0.370272 0.195954,0.394739 0.157532,0.418977 0.116338,0.44299 0.07238,0.466776 0.411471,1.564667 0.413588,1.600453 0.192203,0.809701 0.174269,0.813913 0.150183,0.816548 0.119941,0.817605 0.08355,0.817085 0.041,0.814985 -0.0077,0.811309 -0.06256,0.806054 -0.05378,0.400564 -0.0698,0.398658 -0.08659,0.396556 -0.104151,0.394256 -0.122481,0.391759 -0.14158,0.389064 -0.161449,0.386174 -0.182086,0.383084 -0.159335,0.358115 -0.178085,0.344726 -0.195268,0.332332 -0.210881,0.320933 -0.224925,0.31053 -0.2374,0.301122 -0.505951,0.577998 -0.537023,0.552306 -0.555545,0.534574 -1.116449,1.047796 -0.188421,0.285895 -0.146203,0.288044 -0.10604,0.288749 -0.06794,0.288007 -0.03189,0.28582 0.0021,0.282186 0.03403,0.277108 0.0639,0.270584 0.09172,0.262613 0.117475,0.253197 0.141176,0.242336 0.162818,0.230028 0.182403,0.216274 0.199931,0.201076 0.215401,0.184432 0.228813,0.166341 0.240167,0.146805 0.249464,0.125823 0.256704,0.103395 0.261885,0.07952 0.265009,0.0542 0.266075,0.02744 0.265085,-7.72e-4 0.262035,-0.03043 0.256928,-0.06153 0.249765,-0.09408 0.240543,-0.128071 0.229263,-0.163511 0.215926,-0.200395 0.200531,-0.238726 0.183079,-0.278503 0.163569,-0.319724 0.49992,-0.852248 0.508992,-0.911978 0.265467,-0.460433 0.27682,-0.45382 0.291201,-0.440024 0.30861,-0.419046 0.329046,-0.390886 0.352512,-0.355545 0.379006,-0.31302 0.200384,-0.13832 0.208144,-0.124995 0.21628,-0.110773 0.224797,-0.09565 0.233691,-0.07964 0.242965,-0.06272 0.252616,-0.04491 0.262646,-0.0262 0.273055,-0.0066 0.283842,0.01392 0.276754,0.05664 0.263999,0.07337 0.2516,0.08939 0.239553,0.104698 0.227862,0.119289 0.216523,0.133168 0.20554,0.146332 0.194909,0.158785 0.184634,0.170522 0.174711,0.181548 0.321074,0.393318 0.285636,0.42886 0.253028,0.458694 0.223254,0.482824 0.196312,0.501247 0.172202,0.513964 0.150925,0.520975 0.132479,0.52228 0.116867,0.517878 0.198223,0.999729 0.08282,0.608644 0.113189,0.600516 0.139249,0.593516 0.160999,0.587646 0.178439,0.582905 0.191569,0.579292 0.405294,1.152261 0.406102,1.151357 0.372435,1.159485 0.162819,0.585613 0.141473,0.591031 0.115818,0.597578 0.08585,0.605255 0.04155,0.483987 -0.0059,0.470967 -0.05058,0.457689 -0.09249,0.444156 -0.131627,0.430367 -0.16799,0.416321 -0.201582,0.402019 -0.2324,0.387461 -0.260446,0.372646 -0.285721,0.357576 -0.308222,0.342249 -0.327951,0.326666 -0.344909,0.310827 -0.359093,0.294732 -0.370505,0.278379 -0.379145,0.261772 -0.246944,0.268531 -0.232429,0.276397 -0.424775,0.57455 -0.377093,0.600476 -0.336324,0.622705 -0.302472,0.641241 -0.275536,0.656081 -0.255513,0.667225 -0.242407,0.674673 -0.473156,1.356911 -0.244579,0.674848 -0.259135,0.667514 -0.280604,0.656486 -0.30899,0.641762 -0.34429,0.623343 -0.386506,0.601228 -0.272789,0.210177 -0.278631,0.189664 -0.284182,0.170111 -0.289442,0.151518 -0.29441,0.133884 -0.299088,0.117209 -0.303474,0.101494 -0.307568,0.08674 -0.626258,0.133048 -0.639143,0.08554 -0.6497,0.04571 -0.657926,0.01355 -0.663824,-0.01093 -0.667391,-0.02773 -1.336169,-0.07517 -0.664119,-0.03209 -0.658369,-0.01819 -0.65029,0.0034 -0.639881,0.03264 -6.504754,-0.0028 -6.5047,0.02672 -6.504694,0.02121 -3.252358,-0.0024 -3.252374,-0.01695"
       style="fill:none;stroke:#000000;stroke-width:1.32291663" />
  </g>
  <g
     id="g124"
     inkscape:groupmode="layer"
     inkscape:label="Margin-disabled" />
  <g
     id="g126"
     inkscape:groupmode="layer"
     inkscape:label="B.CrtYd-disabled" />
  <g
     id="g128"
     inkscape:groupmode="layer"
     inkscape:label="F.CrtYd-disabled" />
  <g
     id="g130"
     inkscape:groupmode="layer"
     inkscape:label="B.Fab-disabled" />
  <g
     id="g132"
     inkscape:groupmode="layer"
     inkscape:label="F.Fab-disabled" />
  <g
     id="g134"
     inkscape:groupmode="layer"
     inkscape:label="Drill" />
  <g
     transform="matrix(0.26458333,0,0,0.26458333,-17.83767,-22.141455)"
     id="g291">
    <title
       id="title287">Layer 1</title>
  </g>
</svg>
