<?xml version="1.0" encoding="UTF-8" standalone="no"?>
<svg
   xmlns:dc="http://purl.org/dc/elements/1.1/"
   xmlns:cc="http://creativecommons.org/ns#"
   xmlns:rdf="http://www.w3.org/1999/02/22-rdf-syntax-ns#"
   xmlns:svg="http://www.w3.org/2000/svg"
   xmlns="http://www.w3.org/2000/svg"
   xmlns:sodipodi="http://sodipodi.sourceforge.net/DTD/sodipodi-0.dtd"
   xmlns:inkscape="http://www.inkscape.org/namespaces/inkscape"
   width="100.0mm"
   height="100.0mm"
   version="1.1"
   id="svg72"
   sodipodi:docname="michigan-smooth-v3.svg"
   viewBox="0 0 100.0 100.0"
   inkscape:version="0.92.5 (2060ec1f9f, 2020-04-08)">
  <metadata
     id="metadata78">
    <rdf:RDF>
      <cc:Work
         rdf:about="">
        <dc:format>image/svg+xml</dc:format>
        <dc:type
           rdf:resource="http://purl.org/dc/dcmitype/StillImage" />
        <dc:title>Michigan Map Outline</dc:title>
      </cc:Work>
    </rdf:RDF>
  </metadata>
  <defs
     id="defs76" />
  <sodipodi:namedview
     pagecolor="#ffffff"
     bordercolor="#666666"
     borderopacity="1"
     objecttolerance="10"
     gridtolerance="10"
     guidetolerance="10"
     inkscape:pageopacity="0"
     inkscape:pageshadow="2"
     inkscape:window-width="960"
     inkscape:window-height="1016"
     id="namedview74"
     showgrid="true"
     inkscape:zoom="3.0377142"
     inkscape:cx="251.93409"
     inkscape:cy="259.43891"
     inkscape:window-x="960"
     inkscape:window-y="27"
     inkscape:window-maximized="0"
     inkscape:current-layer="g122"
     borderlayer="true"
     inkscape:document-units="mm">
    <inkscape:grid
       spacingx="2.54"
       spacingy="2.54"
       empspacing="1"
       type="xygrid"
       units="mm"
       id="grid82" />
  </sodipodi:namedview>
  <title
     id="title64">Michigan Map Outline</title>
  <g
     id="g92"
     sodipodi:insensitive="true"
     inkscape:groupmode="layer"
     inkscape:label="[fixed] BG">
    <rect
       id="rect90"
       style="stroke:none;fill-opacity:1;fill:#FFFFFF"
       height="100.0"
       width="100.0"
       y="0"
       x="0" />
  </g>
  <g
     id="g94"
     inkscape:groupmode="layer"
     inkscape:label="F.Cu" />
  <g
     id="g96"
     inkscape:groupmode="layer"
     inkscape:label="B.Cu-disabled" />
  <g
     id="g98"
     inkscape:groupmode="layer"
     inkscape:label="B.Adhes-disabled" />
  <g
     id="g100"
     inkscape:groupmode="layer"
     inkscape:label="F.Adhes-disabled" />
  <g
     id="g102"
     inkscape:groupmode="layer"
     inkscape:label="B.Paste-disabled" />
  <g
     id="g104"
     inkscape:groupmode="layer"
     inkscape:label="F.Paste-disabled" />
  <g
     id="g106"
     inkscape:groupmode="layer"
     inkscape:label="B.SilkS-disabled" />
  <g
     id="g108"
     inkscape:groupmode="layer"
     inkscape:label="F.SilkS-disabled" />
  <g
     id="g110"
     inkscape:groupmode="layer"
     inkscape:label="B.Mask-disabled" />
  <g
     id="g112"
     inkscape:groupmode="layer"
     inkscape:label="F.Mask-disabled" />
  <g
     id="g114"
     inkscape:groupmode="layer"
     inkscape:label="Dwgs.User-disabled" />
  <g
     id="g116"
     inkscape:groupmode="layer"
     inkscape:label="Cmts.User-disabled" />
  <g
     id="g118"
     inkscape:groupmode="layer"
     inkscape:label="Eco1.User-disabled" />
  <g
     id="g120"
     inkscape:groupmode="layer"
     inkscape:label="Eco2.User-disabled" />
  <g
     id="g122"
     inkscape:groupmode="layer"
     inkscape:label="Edge.Cuts">
    <g
       id="g722">
      <path
         inkscape:connector-curvature="0"
         id="path1390-3"
         d="m 4.4529427,22.250069 1.5462544,-0.66321 1.5554398,-0.642948 1.564539,-0.620995 1.5735521,-0.597352 1.582477,-0.572019 1.591318,-0.544995 1.600071,-0.516283 1.608738,-0.485878 0.76896,-0.470077 0.743499,-0.513671 0.722943,-0.548723 0.707289,-0.575236 1.387226,-1.19584 1.383445,-1.199392 0.702562,-0.579675 0.716326,-0.554939 0.734991,-0.521663 0.758562,-0.479846 0.389651,-0.221571 0.397382,-0.207915 0.405726,-0.193189 0.414683,-0.177397 0.424252,-0.160536 0.434435,-0.1426086 0.44523,-0.1236128 0.456638,-0.1035495 0.116736,0.041021 0.104272,0.063512 0.09179,0.083463 0.07929,0.1008725 0.06677,0.1157414 0.05423,0.128068 0.07076,0.282954 0.02036,0.30177 -0.03018,0.300257 -0.08088,0.278417 -0.0595,0.124665 -0.07223,0.111582 -0.27066,0.324773 -0.297376,0.302024 -0.319014,0.283519 -0.335573,0.269259 -0.700512,0.512715 -0.705809,0.506608 -0.342196,0.261625 -0.328286,0.272832 -0.309298,0.288284 -0.285231,0.307979 -0.256086,0.331919 -0.221862,0.360103 -0.182562,0.392533 -0.138181,0.429207 -0.05496,0.175062 -0.03702,0.188749 -0.01901,0.198348 -9.24e-4,0.203863 0.01723,0.20529 0.03547,0.202632 0.05377,0.195888 0.07215,0.185056 0.0906,0.17014 0.109128,0.151137 0.127727,0.128048 0.146401,0.100872 0.165147,0.06961 0.183968,0.03426 0.202863,-0.0052 0.22183,-0.04869 0.147449,-0.05924 0.140415,-0.0718 0.264812,-0.170606 0.501139,-0.374435 0.256664,-0.161096 0.134304,-0.06467 0.13998,-0.05052 0.146928,-0.03371 0.155146,-0.01422 0.164635,0.0079 0.175396,0.03277 0.311498,0.01932 0.30473,0.0353 0.298203,0.05059 0.291913,0.0652 0.565919,0.1715 0.543634,0.22174 0.523264,0.266514 0.504806,0.305821 0.488264,0.339661 0.473633,0.368033 0.460917,0.39094 0.450115,0.408379 0.875477,0.847207 0.85523,0.851361 0.850292,0.811779 0.242561,0.170485 0.248461,0.155809 0.51306,0.268843 0.531983,0.213899 0.54779,0.161462 0.560481,0.111533 0.570057,0.06411 0.576516,0.01919 0.579861,-0.02321 0.580088,-0.06311 0.577201,-0.100509 0.571198,-0.135396 0.562079,-0.167776 0.549844,-0.197649 0.534493,-0.225014 0.516026,-0.249872 0.494445,-0.272224 0.880779,-0.572014 0.910642,-0.545994 0.466199,-0.256629 0.473278,-0.242191 0.48023,-0.225108 0.487053,-0.205381 0.493748,-0.183009 0.500313,-0.157993 0.50675,-0.130333 0.513059,-0.100028 0.519238,-0.06708 0.525291,-0.03148 0.531213,0.0068 0.537007,0.04764 0.376255,-0.04863 0.379357,-0.07291 0.765815,-0.195954 0.771604,-0.224961 0.772977,-0.208567 0.385625,-0.08395 0.384312,-0.06283 0.382449,-0.03603 0.380032,-0.0036 0.377066,0.03459 0.373546,0.07842 0.369475,0.127917 0.364852,0.183091 0.236041,0.182353 0.202093,0.21446 0.173923,0.240819 0.151528,0.261426 0.13491,0.276283 0.124069,0.28539 0.238721,0.575099 0.126204,0.278208 0.13847,0.264315 0.156511,0.244669 0.180329,0.219274 0.209924,0.18813 0.245294,0.151233 0.286443,0.108588 0.160456,0.0365 0.17291,0.02369 0.339863,-0.0075 0.341571,-0.03721 0.342861,-0.06078 0.343736,-0.07818 0.688433,-0.183857 0.686941,-0.17936 0.341871,-0.07256 0.34025,-0.05291 0.338214,-0.0271 0.33576,0.0049 0.332892,0.04306 0.329606,0.0874 0.325906,0.137915 0.321789,0.194601 0.121448,0.07871 0.116435,0.03408 0.111525,-0.0038 0.106713,-0.035 0.102001,-0.05945 0.09739,-0.07719 0.181349,-0.180697 0.164108,-0.170974 0.07584,-0.06504 0.07183,-0.04244 0.06792,-0.01312 0.06411,0.02292 0.0604,0.06568 0.05679,0.115164 0.236665,1.19972 0.133544,0.59728 0.147809,0.593998 0.165167,0.589548 0.185619,0.583927 0.209164,0.577136 0.235803,0.569176 0.09579,0.272608 0.117444,0.297332 0.110823,0.305256 0.07593,0.296377 0.01604,0.139609 -0.0033,0.131087 -0.02614,0.120468 -0.05253,0.107746 -0.08246,0.09293 -0.115923,0.076 -0.152919,0.05698 -0.193448,0.03586 -0.394541,0.101639 -0.403532,0.0572 -0.41076,0.02069 -0.416225,-0.0079 -0.419927,-0.02855 -0.421866,-0.04129 -0.842496,-0.08907 -0.417105,-0.03193 -0.411991,-0.01296 -0.405115,0.01394 -0.396475,0.04876 -0.386074,0.09151 -0.373907,0.14218 -0.181841,0.09257 -0.178139,0.10821 -0.174216,0.124841 -0.170072,0.142464 -0.310153,0.504118 -0.127671,0.182006 -0.121508,0.114874 -0.06128,0.02747 -0.06314,0.0049 -0.06614,-0.0195 -0.07028,-0.04586 -0.07555,-0.07414 -0.08195,-0.104328 -0.187661,-0.306889 -0.213347,-0.200371 -0.220596,-0.184045 -0.227447,-0.168183 -0.2339,-0.152787 -0.239957,-0.137854 -0.245614,-0.123386 -0.506614,-0.205227 -0.524475,-0.15293 -0.539155,-0.104348 -0.550655,-0.05948 -0.558974,-0.01833 -0.564111,0.0191 -0.566067,0.05282 -0.564843,0.08282 -0.560438,0.109101 -0.552851,0.13167 -0.542084,0.150523 -0.528135,0.165659 -0.511006,0.177079 -0.432856,0.120047 -0.441881,0.105376 -0.901487,0.183914 -0.909545,0.176754 -0.898911,0.203943 -0.439626,0.1229 -0.429958,0.142578 -0.417954,0.16655 -0.403613,0.194814 -0.386935,0.227372 -0.367921,0.264223 -0.346571,0.305369 -0.322883,0.350808 -0.351692,0.2739 -0.324529,0.310641 -0.307768,0.332572 -0.301408,0.339694 -0.305452,0.33201 -0.319895,0.309515 -0.344741,0.272212 -0.184939,0.11749 -0.19505,0.102611 -0.06309,-0.09999 -0.03843,-0.109891 -0.01832,-0.117702 -0.0027,-0.123425 0.02309,-0.255666 0.03094,-0.2535 0.0025,-0.234633 -0.02077,-0.10502 -0.0415,-0.09404 -0.06677,-0.08097 -0.09657,-0.06581 -0.130916,-0.04857 -0.169797,-0.02923 -0.279851,-0.04102 -0.272275,0.0094 -0.265771,0.05193 -0.260341,0.08651 -0.255983,0.11315 -0.2527,0.131859 -0.499841,0.288111 -0.499584,0.267746 -0.252379,0.106402 -0.255535,0.07751 -0.259764,0.04069 -0.265065,-0.0041 -0.271441,-0.05676 -0.27889,-0.117389 -0.363949,0.30723 -0.316214,0.336545 -0.274463,0.36226 -0.238697,0.384373 -0.208916,0.402884 -0.185119,0.417795 -0.167307,0.429105 -0.155479,0.436812 -0.299415,0.882345 -0.155905,0.438329 -0.168016,0.431632 -0.186112,0.421333 -0.210192,0.407435 -0.240257,0.389933 -0.276307,0.368831 4.91e-4,0.274962 -0.03587,0.270157 -0.06957,0.262296 -0.10061,0.251377 -0.128999,0.237401 -0.154732,0.220369 -0.17781,0.200279 -0.198233,0.177133 -0.215999,0.15093 -0.231111,0.121669 -0.243566,0.08935 -0.253366,0.05398 -0.26051,0.01555 -0.265,-0.02594 -0.266832,-0.07049 -0.26601,-0.118089 -0.211498,-0.106327 -0.187073,-0.125857 -0.163951,-0.143592 -0.142131,-0.159531 -0.121614,-0.173675 -0.102399,-0.186025 -0.08449,-0.19658 -0.06788,-0.205338 -0.05257,-0.212303 -0.03856,-0.217472 -0.04031,-0.44327 8.1e-5,-0.442407 0.03006,-0.427181 L 31.90877,38.716639 31.8236,38.312386 31.721023,37.910449 31.601448,37.511617 31.465282,37.116681 31.312931,36.72643 31.144799,36.341654 30.961292,35.963142 30.762815,35.591685 30.549775,35.228073 30.322577,34.873095 30.081625,34.527541 29.827327,34.192202 29.560086,33.867866 29.28031,33.555324 28.988403,33.255365 28.68477,32.96878 28.369818,32.696358 28.043952,32.438889 27.707576,32.197164 27.361098,31.971971 27.004922,31.7641 26.639454,31.574343 26.2651,31.403487 l -0.382836,-0.151163 -0.390911,-0.130681 -0.398581,-0.10941 -0.405846,-0.08735 -0.412705,-0.0645 -0.419158,-0.04085 -0.425206,-0.01642 -0.430849,0.0088 -0.830111,-0.01774 -0.840943,-0.04075 -0.840405,-0.08005 -0.416449,-0.05986 -0.412053,-0.0758 -0.406234,-0.09377 -0.399034,-0.11364 L 18.463444,30.19447 18.083189,30.034549 17.714437,29.848505 17.358607,29.634299 17.01712,29.389894 16.691399,29.113253 15.985217,28.847998 15.264756,28.598606 13.796803,28.125433 12.319161,27.649774 11.586589,27.397275 10.863453,27.127669 10.153705,26.835462 9.4612986,26.515158 8.7901859,26.161262 8.1443196,25.76828 7.5276525,25.330717 7.2315038,25.0935 6.9441372,24.843077 6.6660467,24.578761 6.3977263,24.299865 6.1396703,24.005703 5.8923726,23.695587 5.7398739,23.461336 5.6031182,23.228269 5.4703189,23.003451 5.3296893,22.793948 5.1694427,22.606824 4.9777925,22.449146 l -0.1112849,-0.06559 -0.1235557,-0.05558 -0.1373,-0.04469 -0.1525175,-0.03291"
         style="fill:none;stroke:#000000;stroke-width:1.32291663" />
      <path
         inkscape:connector-curvature="0"
         id="path1414-6"
         d="m 48.941046,90.789327 0.32735,-0.555052 0.312546,-0.566056 0.29735,-0.576383 0.281762,-0.586033 0.265781,-0.595006 0.249408,-0.603303 0.232641,-0.610923 0.215483,-0.617865 0.197933,-0.624132 0.179988,-0.629721 0.161654,-0.634633 0.142924,-0.638868 0.123804,-0.642427 0.104291,-0.64531 0.08439,-0.647514 0.06409,-0.649042 0.0434,-0.649893 0.02231,-0.650069 8.36e-4,-0.649565 -0.02103,-0.648387 -0.04329,-0.646531 -0.06594,-0.643997 -0.08899,-0.640789 -0.112428,-0.636901 -0.13626,-0.632338 -0.160482,-0.627099 -0.185098,-0.621181 -0.210107,-0.614587 -0.235506,-0.607317 -0.2613,-0.599369 -0.287485,-0.590744 -0.314063,-0.581444 -0.245196,-0.30717 -0.221912,-0.319483 -0.19932,-0.33078 -0.177425,-0.341064 -0.156222,-0.350332 -0.135714,-0.358587 -0.115899,-0.365825 -0.09678,-0.372051 -0.07835,-0.37726 -0.06062,-0.381456 -0.04359,-0.384636 -0.02724,-0.386803 -0.01159,-0.387954 0.0034,-0.388091 0.04881,-0.772533 0.09085,-1.200296 0.06473,-1.203874 0.02367,-1.202193 -0.0082,-0.598822 -0.02409,-0.596429 0.366841,-1.229644 0.382447,-1.228264 0.383604,-1.229278 0.370309,-1.232681 0.342564,-1.238475 0.300368,-1.246661 0.129844,-0.627148 0.113877,-0.63009 0.0961,-0.633333 0.07652,-0.636873 0.766549,-1.359868 0.402502,-0.685412 0.432175,-0.66456 0.231165,-0.318717 0.243324,-0.306611 0.257061,-0.292209 0.27238,-0.275509 0.289279,-0.256511 0.307757,-0.235217 0.327816,-0.211624 0.349454,-0.185735 0.161455,-0.05732 0.13903,-0.02952 0.118512,-0.004 0.0999,0.0192 0.0832,0.04011 0.0684,0.05872 0.05551,0.07504 0.04453,0.08905 0.06373,0.210968 0.04268,0.239456 0.03689,0.249557 0.04635,0.241275 0.0903,0.189862 0.105338,0.168522 0.119071,0.147773 0.131504,0.127619 0.142633,0.108058 0.152463,0.08909 0.16099,0.07071 0.168215,0.05293 0.174138,0.03574 0.178761,0.01915 0.182082,0.0031 0.1841,-0.01227 0.369051,-0.06839 0.361506,-0.122918 0.34355,-0.172697 0.315178,-0.217731 0.276395,-0.258022 0.1204,-0.142637 0.106799,-0.15093 0.0919,-0.15863 0.07569,-0.165738 0.05819,-0.172252 0.03938,-0.178173 0.01927,-0.1835 -0.0021,-0.188236 -0.02485,-0.192378 -0.04887,-0.195926 -0.263277,-0.545846 -0.115368,-0.27863 -0.08831,-0.28227 -0.0491,-0.285789 0.0023,-0.289183 0.0242,-0.145826 0.0416,-0.146629 0.06053,-0.147416 0.08097,-0.148187 0.147046,-0.25616 0.175074,-0.24519 0.19713,-0.236535 0.213212,-0.230197 0.450774,-0.450641 0.443418,-0.453082 0.204017,-0.233246 0.184258,-0.240804 0.158524,-0.250679 0.126817,-0.262869 0.08914,-0.277376 0.04548,-0.294198 -0.0041,-0.313338 -0.05974,-0.334793 -0.149437,-0.350186 -0.111123,-0.361404 -0.07348,-0.369203 -0.03651,-0.373583 -2.05e-4,-0.374545 0.03543,-0.372088 0.07039,-0.366211 0.104678,-0.356916 0.138297,-0.344203 0.171247,-0.32807 0.203524,-0.308519 0.235133,-0.285548 0.26607,-0.259159 0.296336,-0.229352 0.325932,-0.196125 0.354857,-0.159479 0.377612,-0.158365 0.378089,-0.109914 0.377996,-0.06507 0.377332,-0.02382 0.376097,0.01382 0.374292,0.04786 0.371916,0.0783 0.368969,0.105132 0.365453,0.128363 0.361365,0.147992 0.708186,0.34046 0.684988,0.375743 0.657227,0.382203 0.683704,0.443241 0.693713,0.43292 0.706466,0.411423 0.721961,0.378753 0.7402,0.334906 0.377797,0.147518 0.383385,0.132367 0.389317,0.115817 0.395592,0.09787 0.402209,0.07853 0.409169,0.05779 0.404754,0.11034 0.395536,0.139789 0.384278,0.168017 0.37098,0.195024 0.355643,0.22081 0.338265,0.245373 0.318849,0.268717 0.297392,0.290838 0.273896,0.311738 0.24836,0.331417 0.220784,0.349875 0.191169,0.367111 0.159513,0.383127 0.125818,0.39792 0.09008,0.411492 0.05231,0.423844 0.400746,1.516966 0.395186,1.549009 0.181674,0.783045 0.163683,0.786885 0.14016,0.789336 0.111102,0.790396 0.07651,0.790067 0.03639,0.788348 -0.0093,0.785238 -0.06046,0.780738 -0.05116,0.388248 -0.06603,0.386602 -0.08159,0.384781 -0.09785,0.382788 -0.114799,0.380621 -0.132439,0.37828 -0.150771,0.375765 -0.169793,0.373076 -0.162167,0.388508 -0.186419,0.371527 -0.208275,0.356153 -0.227734,0.342387 -0.244795,0.33023 -0.259461,0.31968 -0.553329,0.614143 -0.583227,0.591238 -0.593952,0.581197 -0.585502,0.58402 -0.557877,0.599705 -0.125333,0.22221 -0.09766,0.225815 -0.07111,0.228393 -0.04569,0.229941 -0.02139,0.230459 0.0018,0.22995 0.02382,0.22841 0.04474,0.225843 0.06453,0.222246 0.0832,0.21762 0.100736,0.211966 0.11715,0.205281 0.132438,0.197569 0.1466,0.188828 0.159636,0.179056 0.171545,0.168257 0.182329,0.156429 0.191987,0.143571 0.200519,0.129685 0.207924,0.114769 0.214205,0.09882 0.219357,0.08185 0.223386,0.06385 0.226287,0.04482 0.228063,0.02476 0.228713,0.0037 0.228237,-0.01845 0.226634,-0.0416 0.223905,-0.06577 0.220052,-0.09098 0.21507,-0.117212 0.208965,-0.144475 0.305142,-0.368564 0.282843,-0.390347 0.265061,-0.407766 0.251801,-0.42082 0.4819,-0.863348 0.483094,-0.863198 0.253296,-0.420633 0.267153,-0.407503 0.285532,-0.39001 0.308429,-0.368152 0.335847,-0.341931 0.367785,-0.311345 0.404242,-0.276395 0.44522,-0.237082 0.202701,-0.08219 0.202676,-0.06621 0.404096,-0.08642 0.400455,-0.02831 0.394449,0.02593 0.386083,0.07629 0.375352,0.12277 0.362261,0.165381 0.346806,0.204116 0.328989,0.238977 0.308809,0.269962 0.286268,0.297074 0.261363,0.320311 0.234096,0.339673 0.204466,0.35516 0.172475,0.366772 0.138121,0.374511 0.175715,0.47758 0.154825,0.483115 0.137098,0.487813 0.122537,0.491674 0.214051,0.991589 0.193787,0.997 0.198841,0.99572 0.229217,0.987752 0.133911,0.488796 0.151,0.484295 0.171253,0.478958 0.194672,0.472784 0.33314,0.973943 0.346671,1.003074 0.319826,1.023149 0.137228,0.516273 0.115376,0.517896 0.08848,0.518387 0.05653,0.517746 0.01954,0.515973 -0.02251,0.513069 -0.06959,0.509032 -0.121729,0.503864 -0.178911,0.497563 -0.112476,0.246065 -0.128664,0.244066 -0.145559,0.274579 -0.162359,0.259751 -0.177379,0.246465 -0.190616,0.234721 -0.413827,0.440374 -0.445413,0.411896 -0.928604,0.787686 -0.454701,0.400456 -0.429307,0.421308 -0.408696,0.548627 -0.36356,0.571962 -0.324688,0.592033 -0.292077,0.608839 -0.265731,0.622382 -0.245646,0.632662 -0.456091,1.283108 -0.450909,1.285061 -0.239168,0.635104 -0.256661,0.625801 -0.280417,0.613235 -0.310436,0.597404 -0.346717,0.578311 -0.389262,0.555953 -0.260761,0.189334 -0.265706,0.171594 -0.270402,0.154647 -0.274854,0.138494 -0.279057,0.123133 -0.283015,0.108566 -0.576918,0.176604 -0.58979,0.127854 -0.60069,0.08545 -0.609618,0.04939 -0.616574,0.01968 -0.621558,-0.0037 -0.624568,-0.0207 -1.250283,-0.06708 -1.238662,-0.059 -0.610042,-0.01061 -0.60122,0.01045 -13.254229,0.05146 -6.627633,0.01305 -6.627275,-0.01373"
         style="fill:none;stroke:#000000;stroke-width:1.32291663" />
    </g>
  </g>
  <g
     id="g124"
     inkscape:groupmode="layer"
     inkscape:label="Margin-disabled" />
  <g
     id="g126"
     inkscape:groupmode="layer"
     inkscape:label="B.CrtYd-disabled" />
  <g
     id="g128"
     inkscape:groupmode="layer"
     inkscape:label="F.CrtYd-disabled" />
  <g
     id="g130"
     inkscape:groupmode="layer"
     inkscape:label="B.Fab-disabled" />
  <g
     id="g132"
     inkscape:groupmode="layer"
     inkscape:label="F.Fab-disabled" />
  <g
     id="g134"
     inkscape:groupmode="layer"
     inkscape:label="Drill" />
  <g
     transform="matrix(0.26458333,0,0,0.26458333,-17.83767,-22.141455)"
     id="g291">
    <title
       id="title287">Layer 1</title>
  </g>
</svg>
