<?xml version="1.0" encoding="UTF-8" standalone="no"?>
<svg
   xmlns:dc="http://purl.org/dc/elements/1.1/"
   xmlns:cc="http://creativecommons.org/ns#"
   xmlns:rdf="http://www.w3.org/1999/02/22-rdf-syntax-ns#"
   xmlns:svg="http://www.w3.org/2000/svg"
   xmlns="http://www.w3.org/2000/svg"
   xmlns:sodipodi="http://sodipodi.sourceforge.net/DTD/sodipodi-0.dtd"
   xmlns:inkscape="http://www.inkscape.org/namespaces/inkscape"
   sodipodi:docname="potus46.svg"
   id="svg223"
   version="1.1"
   aria-labelledby="bb-seal-reduced-svg-title-5fbc7bec301d7"
   role="img"
   fill="none"
   viewBox="0 0 100.0 100.0"
   width="100.0mm"
   height="100.0mm"
   inkscape:version="0.92.5 (2060ec1f9f, 2020-04-08)">
  <metadata
     id="metadata229">
    <rdf:RDF>
      <cc:Work
         rdf:about="">
        <dc:format>image/svg+xml</dc:format>
        <dc:type
           rdf:resource="http://purl.org/dc/dcmitype/StillImage" />
      </cc:Work>
    </rdf:RDF>
  </metadata>
  <defs
     id="defs227" />
  <sodipodi:namedview
     pagecolor="#ffffff"
     bordercolor="#666666"
     borderopacity="1"
     objecttolerance="10"
     gridtolerance="10"
     guidetolerance="10"
     inkscape:pageopacity="0"
     inkscape:pageshadow="2"
     inkscape:window-width="1920"
     inkscape:window-height="1016"
     id="namedview225"
     showgrid="true"
     inkscape:zoom="7.2909091"
     inkscape:cx="203.63965"
     inkscape:cy="172.66124"
     inkscape:window-x="0"
     inkscape:window-y="27"
     inkscape:window-maximized="1"
     inkscape:current-layer="g338"
     borderlayer="true"
     inkscape:document-units="mm">
    <inkscape:grid
       id="grid330"
       units="mm"
       type="xygrid"
       empspacing="1"
       spacingy="2.54"
       spacingx="2.54" />
  </sodipodi:namedview>
  <title
     id="bb-seal-reduced-svg-title-5fbc7bec301d7">
    Seal with the American Eagle coat of arms and the number 46 below  </title>
  <g
     id="g336"
     sodipodi:insensitive="true"
     inkscape:groupmode="layer"
     inkscape:label="[fixed] BG">
    <rect
       id="rect334"
       style="stroke:none;fill-opacity:1;fill:#FFFFFF"
       height="100.0"
       width="100.0"
       y="0"
       x="0" />
  </g>
  <g
     id="g338"
     inkscape:groupmode="layer"
     inkscape:label="F.Cu">
    <path
       inkscape:connector-curvature="0"
       style="fill:currentColor;stroke-width:0.26458332"
       d="m 45.95106,50.823962 v -2.052373 h 0.3855 v 2.763837 c -0.16431,-0.223837 -0.28363,-0.464608 -0.3855,-0.7112 z m 0.79957,1.232958 v -3.28004 h 0.38021 v 3.640932 C 47.0004,52.308803 46.89801,52.211437 46.77365,52.091051 l -0.023,-0.0344 z m 1.18004,0.877094 c -0.14181,-0.06879 -0.24394,-0.148961 -0.3802,-0.217752 v -3.944938 h 0.3802 z m 2.41618,-2.110052 v -2.052373 h -0.37994 v 2.763837 c 0.15319,-0.240771 0.27225,-0.464608 0.37994,-0.7112 z m -0.79984,1.232958 v -3.28004 h -0.38549 v 3.640932 c 0.14737,-0.109009 0.24394,-0.206375 0.35718,-0.326761 l 0.0283,-0.0344 z m -1.18533,0.882914 c 0.14737,-0.06879 0.26644,-0.14896 0.38576,-0.223572 v -3.944938 h -0.38576 z"
       class="bb-seal-red anim-1"
       id="path211" />
    <path
       inkscape:connector-curvature="0"
       style="fill:currentColor;stroke-width:0.26458332"
       d="m 60.03139,42.211774 0.0341,0.0172 0.13785,-0.183885 0.20664,0.09208 0.023,-0.0344 -0.1262,-0.183885 0.1434,-0.172509 -0.0172,-0.0344 -0.21802,0.05741 -0.12065,-0.189706 -0.0344,0.0058 -0.006,0.224102 -0.22383,0.04604 -0.006,0.04022 0.22383,0.08043 -0.0172,0.235479 z m 0.82656,1.551517 0.0288,0.0172 0.1606,-0.160867 0.19527,0.115094 0.023,-0.02884 -0.0976,-0.206904 0.16642,-0.149225 -0.0172,-0.0344 -0.22384,0.02857 -0.0918,-0.206904 -0.0402,0.0058 -0.0344,0.218281 -0.2241,0.02302 -0.0114,0.0344 0.21246,0.109273 z m 0.62574,1.632214 0.0288,0.02858 0.18362,-0.143668 0.17225,0.137847 0.0347,-0.02858 -0.0746,-0.212725 0.1778,-0.132291 -0.0114,-0.0344 h -0.22384 l -0.0632,-0.21246 h -0.0402 l -0.0632,0.21246 -0.22966,-0.0058 -0.0114,0.0344 0.19526,0.138112 -0.0749,0.218282 z m 0.34475,1.332971 0.1778,0.160867 -0.10318,0.212725 0.0228,0.02858 0.20108,-0.12065 0.15505,0.160866 0.0344,-0.02302 -0.046,-0.218282 0.19526,-0.109272 -0.006,-0.04022 -0.2241,-0.02302 -0.0402,-0.223837 -0.0402,-0.0058 -0.086,0.206904 -0.22384,-0.04022 z m 0.48789,1.769798 -0.21828,-0.06323 -0.0227,0.02884 0.15505,0.183886 -0.12647,0.195262 0.023,0.02884 0.20664,-0.09207 0.13785,0.178329 0.0344,-0.01746 -0.0172,-0.223837 0.20664,-0.08625 v -0.0344 l -0.21802,-0.05768 -0.0116,-0.224102 -0.0344,-0.01138 z m 0.17225,1.844675 0.0172,-0.224102 -0.0344,-0.0172 -0.13203,0.178065 -0.21246,-0.09181 -0.023,0.02858 0.13203,0.201084 -0.15505,0.178329 0.0172,0.0344 0.2241,-0.06879 0.10901,0.195262 0.0402,-0.01164 0.0114,-0.224102 0.21246,-0.05742 0.006,-0.04022 z m -0.16642,1.574535 -0.0288,-0.02302 -0.16061,0.160866 -0.19526,-0.12065 -0.0288,0.02858 0.10927,0.212725 -0.17806,0.155046 0.0172,0.04048 0.22384,-0.04048 0.0863,0.206904 0.0402,-0.0056 0.0402,-0.224102 0.22383,-0.02884 0.006,-0.03439 -0.20108,-0.109273 z m -0.40191,1.7526 -0.0344,-0.02302 -0.17224,0.137848 -0.18389,-0.143669 -0.0286,0.02884 0.0802,0.218282 -0.19499,0.137848 0.0114,0.03439 0.22965,-0.0056 0.0632,0.212725 h 0.0344 l 0.0688,-0.218546 h 0.22411 l 0.0114,-0.03439 -0.18362,-0.132292 z m -0.626,1.694921 -0.0227,-0.02858 -0.18971,0.115094 -0.16642,-0.160867 -0.0286,0.0172 0.0458,0.235479 -0.20664,0.109273 0.006,0.0344 0.22966,0.02302 0.0344,0.218281 0.0402,0.0058 0.0918,-0.206904 0.21828,0.02884 0.0172,-0.03439 -0.16669,-0.155311 0.0976,-0.201083 z m -0.82682,1.603375 -0.0227,-0.0344 -0.20109,0.09181 -0.1434,-0.178065 -0.0347,0.01164 0.023,0.235479 -0.22384,0.08625 v 0.04022 l 0.22966,0.04604 0.006,0.224103 0.0344,0.0056 0.12065,-0.189442 0.21802,0.05159 0.0172,-0.02884 -0.14341,-0.172243 z m -25.00445,-1.545696 -0.0288,-0.02302 -0.1606,0.166687 -0.19527,-0.114829 -0.023,0.02858 0.0976,0.201083 -0.16087,0.155311 0.0172,0.0344 0.21828,-0.0344 0.0976,0.206904 h 0.0344 l 0.0344,-0.224102 0.22966,-0.02302 0.006,-0.0344 -0.21246,-0.109273 z m -0.63156,-1.63777 -0.0288,-0.02302 -0.18362,0.143669 -0.17225,-0.137584 -0.0344,0.02275 0.0746,0.212725 -0.17806,0.132028 0.0114,0.04022 0.2241,-0.0058 0.0688,0.218546 h 0.0344 l 0.0632,-0.212725 0.22966,0.0058 0.0114,-0.04022 -0.19499,-0.132291 z m -0.35031,-1.332971 -0.17806,-0.155311 0.10318,-0.21246 -0.0286,-0.02884 -0.19526,0.12065 -0.15479,-0.160866 -0.0344,0.02302 0.0458,0.218282 -0.19526,0.109273 0.006,0.04022 0.22384,0.02302 0.0402,0.224102 0.0402,0.0056 0.086,-0.206639 0.2241,0.0344 z m -0.49371,-1.764242 0.21801,0.06324 0.023,-0.0344 -0.15504,-0.178329 0.12647,-0.195263 -0.023,-0.02884 -0.21246,0.09208 -0.13229,-0.178064 -0.04,0.0172 0.023,0.224102 -0.2069,0.08599 v 0.0344 l 0.21828,0.05186 0.0114,0.229923 0.0344,0.01138 z m -0.20109,-1.620573 0.0402,0.01746 0.13229,-0.178329 0.2122,0.09207 0.023,-0.02884 -0.13229,-0.201083 0.15531,-0.178065 -0.023,-0.0344 -0.21828,0.06879 -0.11483,-0.195249 -0.0344,0.01138 -0.0114,0.22992 -0.21828,0.05159 v 0.04022 l 0.20664,0.08043 z m 0.17807,-1.792816 0.0344,0.0172 0.15505,-0.160866 0.20108,0.12065 0.0228,-0.02858 -0.10319,-0.212725 0.17198,-0.160867 -0.0169,-0.0344 -0.22411,0.04022 -0.086,-0.206904 -0.0402,0.0058 -0.0402,0.224102 -0.21828,0.02858 -0.006,0.04022 0.195,0.103452 z m 0.4019,-1.758421 0.0286,0.02302 0.17224,-0.137847 0.18388,0.137847 0.0286,-0.02302 -0.0746,-0.224102 0.18944,-0.137584 -0.0114,-0.03466 -0.22966,0.01138 -0.0574,-0.218281 -0.0402,0.0058 -0.0688,0.21246 h -0.2241 l -0.0114,0.04022 0.18362,0.12647 z m 0.61436,-1.700742 0.0286,0.02857 0.18944,-0.114829 0.16087,0.160867 0.0344,-0.0172 -0.0516,-0.235479 0.20664,-0.109273 -0.006,-0.04022 -0.22966,-0.01746 -0.0344,-0.218282 -0.0344,-0.0056 -0.0918,0.20664 -0.22384,-0.02302 -0.0175,0.0291 0.16668,0.154781 -0.0979,0.201084 z"
       class="bb-seal-prim"
       id="path213" />
    <path
       inkscape:connector-curvature="0"
       style="fill:currentColor;stroke-width:0.26458332"
       d="m 56.38543,50.296912 0.006,-0.02302 0.81545,-0.827352 0.11483,0.275696 0.41328,-0.907786 -0.92446,0.459581 0.30428,0.08625 -0.63157,0.643466 0.21247,-0.643466 -0.17198,0.114829 0.5797,-0.729721 0.14367,0.258498 0.32702,-0.936625 -0.87841,0.551656 0.31009,0.05741 -0.80963,1.011502 -0.36168,0.235479 0.15504,0.02884 -0.31591,0.39079 0.0863,-0.413808 1.31498,-1.988079 0.16642,0.2413 0.23548,-0.954088 -0.81544,0.620713 0.31009,0.03439 -0.55113,0.827617 0.13203,-0.799042 -0.0632,0.05768 0.11483,-0.821796 -0.88424,0.844814 h 0.0116 l -0.74083,0.850371 0.33866,-0.0344 -0.35586,0.850371 -0.0458,-0.741098 -0.51118,0.7239 -0.0688,-0.367771 -0.48233,0.913607 0.29845,-0.103188 -0.36169,1.856052 c -0.45931,-0.287337 -0.8038,0.557213 -0.80962,0.557213 -0.40746,0 -0.72919,-0.189442 -0.91864,-0.269875 -0.0114,-0.235479 -0.1262,-0.327554 -0.20108,-0.373592 0,0 0.0519,-0.103452 0.0519,-0.109273 -0.10901,-0.321733 -0.62018,-0.470958 -0.62018,-0.494242 0,-0.132291 -0.23548,-0.183885 -0.43048,-0.287337 -0.10901,-0.05741 -0.24686,-0.149225 -0.35031,-0.21246 0.0344,-0.09207 0.0632,-0.178065 0.0918,-0.264584 0.2757,0.293159 0.28708,-0.155046 0.29872,-0.143404 0.35004,0.356129 0.32729,-0.344752 0.33866,-0.339196 0.63738,0.494242 0.4191,-0.178064 0.43075,-0.166687 0.48233,0.333375 0.32146,-0.344752 0.33866,-0.338667 0.57415,0.338667 0.32729,-0.362215 0.33867,-0.356394 0.6604,0.419365 0.37306,-0.316177 0.37306,-0.316177 0.60325,0.407988 0.2585,-0.442383 0.2585,-0.442383 0.72919,0.310356 0.33311,-0.350573 0.33311,-0.350573 0.61436,0.09207 0.13229,-0.413808 0.16087,-0.413808 0.90699,-0.02302 0.19499,-0.540015 0.22965,-0.545836 0.95885,-0.264319 0.13759,-0.528637 0.14923,-0.534458 1.09088,-0.310356 -0.0172,-0.500063 0.0172,-0.517261 1.14247,-0.557212 0.0688,-0.60325 0.0746,-0.614627 1.07368,-0.856191 0.34449,-0.781579 0.34449,-0.781579 0.79825,-0.701145 0.11483,-0.655108 0.12065,-0.66675 0.91863,-0.861747 0.21828,-0.775493 0.21828,-0.775493 1.39515,-1.212586 1.13665,-1.718204 1.13665,-1.718204 -0.31009,0.09181 -0.80963,0.396345 -2.10714,1.154906 -2.57228,1.528498 -2.73871,2.39051 -2.48603,2.890572 0.15505,0.321734 0.33285,0.654844 0.33285,0.660665 -0.086,0.356394 0.16669,0.672306 0.16669,0.672306 -0.35031,0.333375 -0.41355,0.701146 -0.42493,0.701146 a 1.7250833,1.7250833 0 0 0 -0.55112,0.0979 c -0.0804,-0.391054 -0.17225,-0.655373 -0.21828,-0.683948 l -0.0516,-0.0344 -0.0519,0.02858 c -0.12039,0.06879 -0.23548,0.126471 -0.34449,0.172244 -0.063,-0.183621 -0.16642,-0.384969 -0.26988,-0.551392 l 0.0116,0.01138 a 0.174625,0.174625 0 0 1 -0.0288,-0.04022 0.99959583,0.99959583 0 0 1 -0.063,-0.103452 c -0.4022,-0.718329 -0.1953,-1.953668 -0.6316,-2.183591 l 0.1606,-0.02302 c -0.3503,-0.235479 -0.70617,-0.384969 -0.97022,-0.448204 -1.00489,-0.224102 -1.04511,0.235479 -1.04511,0.235479 -0.0172,0.02302 -1.03346,-0.07461 -0.45931,0.97102 0,0 0.023,-0.281251 0.28707,-0.378883 0.19526,0.06879 0.55695,0.246857 0.65458,0.637646 0.0632,0.27596 -0.22384,0.568854 -0.55113,0.833437 -0.40217,0.310092 -0.49371,0.407723 -0.48233,0.425186 -0.16669,0.195262 -0.28708,0.425185 -0.37307,0.609071 A 2.6212271,2.6212271 0 0 1 45.9186,46.9412 l -0.0516,-0.0291 -0.0516,0.03466 c -0.046,0.02884 -0.13784,0.293159 -0.21828,0.683948 a 1.6951854,1.6951854 0 0 0 -0.55113,-0.0979 c -0.006,0 -0.0632,-0.36195 -0.4191,-0.701145 -0.006,0 0.10901,-0.419365 0.0172,-0.781315 0,-0.01138 1.89469,-0.87921 -2.00951,-3.442229 -1.25757,-0.821531 -1.79732,-1.062831 -2.09577,-1.154906 0,0 -0.25268,0.505883 1.13109,1.718204 -0.0114,0 -0.67733,-0.07461 0.22966,0.775758 0.006,0.0172 -0.68897,-0.02858 0.11483,0.66675 0,0 -0.72919,-0.07488 0.34449,0.781315 0.0114,0.01164 -1.0623,0.05741 0.0746,0.614891 0.0344,0.0172 -1.0795,0.206905 0.0116,0.517261 0.0172,0.0056 -0.80406,0.269875 0.16061,0.534458 0.023,0.0056 -0.68898,0.528638 0.22383,0.545836 0.023,0 -0.44767,0.505618 0.16669,0.413808 0,0 -0.39634,0.660664 0.32729,0.350308 0,0 -0.34449,0.844815 0.25241,0.442648 0,0 -0.27543,0.735542 0.36777,0.315913 0.0228,-0.0058 -0.2241,0.695325 0.35587,0.356393 0.0172,-0.0058 -0.14923,0.672042 0.32147,0.338932 0.0172,-0.01138 -0.20109,0.660929 0.43656,0.166687 0.0169,-0.0058 -0.0175,0.695325 0.34422,0.338931 0.0116,-0.01138 0.023,0.431271 0.2929,0.14949 0.046,0.137848 0.0918,0.281517 0.15504,0.419365 -0.0516,0.03439 -0.11483,0.06906 -0.17224,0.103452 -0.19526,0.109273 -0.42492,0.166687 -0.42492,0.298979 0,0.02302 -0.51091,0.160866 -0.62574,0.4826 0,0.0058 0.063,0.109273 0.063,0.109273 -0.0746,0.05159 -0.18362,0.132291 -0.20638,0.333375 -0.19552,0.08599 -0.49397,0.258498 -0.89005,0.258498 -0.006,0 -0.35613,-0.913607 -0.86704,-0.132292 -0.0516,-0.04022 -0.0979,-0.08043 -0.14923,-0.12065 0.13203,-0.0058 0.23548,-0.109008 0.23548,-0.2413 a 0.24870833,0.24870833 0 0 0 -0.11509,-0.206904 c 0.14949,-0.160867 0.40772,-0.333375 0.8038,-0.442384 0.56859,-0.160866 0.40772,-0.574675 0.78661,-0.867833 0,0 -0.55695,-0.183885 -1.08506,0.281781 0,0 0.11483,-0.350573 0.0574,-0.597958 -0.0516,-0.189442 0.0632,-0.367771 0.13229,-0.390525 0,0 -0.76968,-0.155046 -1.04511,1.580356 a 0.22965833,0.22965833 0 0 0 -0.1897,0.229659 c 0,0.09208 0.0577,0.172508 0.13784,0.212725 -0.006,0.05741 -0.0114,0.12065 -0.0172,0.178064 0,0.02302 -0.39026,-0.183885 -0.32729,-0.60325 0.023,0.0056 0.046,0.01138 0.0688,0.01138 a 0.23045208,0.23045208 0 0 0 0.22992,-0.229926 0.23733125,0.23733125 0 0 0 -0.10927,-0.195262 c 0.006,-0.01138 0.0175,-0.02302 0.023,-0.0344 0.023,-0.0344 0.22383,-0.448204 0.17224,-0.988483 -0.023,-0.2413 -0.13203,-0.344752 -0.0286,-0.660929 0,0 -0.48234,0.592137 -0.57997,0.79322 a 1.7266708,1.7266708 0 0 0 -0.19526,0.672042 c -0.0114,0 -0.023,-0.0056 -0.0344,-0.0056 a 0.24553333,0.24553333 0 0 0 -0.12621,0.0344 c -0.006,-0.05742 -0.006,-0.12065 -0.006,-0.189442 a 0.2301875,0.2301875 0 0 0 0.15505,-0.212681 0.22489583,0.22489583 0 0 0 -0.14923,-0.212725 c 0.14341,-0.132292 0.33867,-0.407988 0.32147,-0.988219 0,-0.04604 0.0114,-0.580496 0.12065,-0.741362 0,0 -0.69479,0.224102 -0.74665,0.890852 a 0.28839583,0.28839583 0 0 0 -0.0688,-0.01164 0.19129375,0.19129375 0 0 0 -0.12621,0.333375 c -0.0116,0.01138 -0.0863,0.06879 -0.0863,0.149225 0,0 -0.25268,-0.264319 0.20664,-0.902229 0.0172,-0.02858 0.29289,-0.350308 0.18388,-1.091671 -0.0172,-0.06879 -0.10319,-0.338931 0.0516,-0.580231 0,0 -0.42493,0.09181 -0.51674,0.568854 0,0 -0.0632,-0.27596 -0.19526,-0.442648 -0.023,-0.02858 -0.10901,-0.149225 -0.0976,-0.367771 0,0 -0.43048,0.293159 -0.31565,1.264179 0,0 -0.28151,-0.21246 -0.43656,-0.287072 -0.1434,-0.06906 -0.20637,-0.09207 -0.30427,-0.275961 0,0 -0.1778,1.160727 0.81545,1.649148 0.0402,0.05742 0.10318,0.09208 0.1778,0.09208 h 0.0344 c 0.0233,0.0056 0.0519,0.0172 0.0749,0.02302 0.023,0.0056 0,0.126206 0.0746,0.2413 0,0 -0.18388,-0.206904 -0.64294,-0.247121 -0.0863,-0.0172 -0.25267,-0.06323 -0.44238,-0.304535 0,0 -0.21802,0.534458 0.36195,0.838729 0,0 -0.37306,0.0979 -0.63765,-0.103188 0,0 0.12092,0.953823 1.42426,0.879211 -0.006,0.02302 -0.0116,0.04604 -0.0116,0.07461 0,0.126471 0.10319,0.224102 0.22411,0.224102 0.10901,0 0.20108,-0.08043 0.22383,-0.183885 0.0804,0.06324 0.13759,0.155046 0.13203,0.293158 0,0.0056 -0.36168,-0.15531 -0.86122,-0.109273 -0.0402,0.01138 -0.74639,0.0344 -0.84984,-0.143669 0,0 -0.0114,0.425186 0.41354,0.528638 0,0 -0.17806,0.183885 -0.54557,0.183885 0,0 0.38471,0.574675 1.64201,0.178065 l 0.023,-0.01138 a 0.2301875,0.2301875 0 0 0 0.16086,0.06879 0.22516042,0.22516042 0 0 0 0.22384,-0.20664 c 0.17807,-0.0172 0.38471,0.0344 0.55139,0.298979 0,0 -0.0288,0.0053 -0.0688,0.01138 a 0.22172083,0.22172083 0 0 0 -0.18971,-0.103456 0.2301875,0.2301875 0 0 0 -0.22965,0.201083 c -0.023,-0.0058 -0.0402,-0.01164 -0.0632,-0.01164 a 0.22516042,0.22516042 0 0 0 -0.20108,0.120913 c -0.195,0.08599 -0.38444,0.201084 -0.50509,0.350309 -0.0688,0.08625 -0.10901,0.287337 -0.57415,0.500062 0,0 0.45932,0.224102 1.05648,0.02302 0,0 -0.39608,0.459581 -0.14922,1.235604 0,0 0.17198,-0.310621 0.5453,-0.505883 0.0979,-0.05741 0.33867,-0.304536 0.44212,-0.810154 0.0344,0.05159 0.0918,0.109008 0.16669,0.172243 0.0286,0.0344 -0.32729,0.523082 0.36169,0.568855 0.0574,0.0058 0.26405,0.39661 0.47625,0.172508 0,0.0058 0.006,0.01138 0.006,0.01138 0,0 0.40772,-0.08625 0.59716,-0.333375 0.28707,0.391054 0.50535,0.850635 0.47096,1.275821 -0.0344,0.269875 -0.0632,0.545835 0.1778,0.580496 0.13229,0.01138 0.49953,-0.833438 -0.55668,-2.103438 a 0.492125,0.492125 0 0 0 -0.0288,-0.171983 c -0.0286,-0.07488 0.74083,-0.3048 1.13691,-0.408252 -0.0402,0.04604 -0.0746,0.0979 -0.0746,0.132292 0,0.01138 0.21802,0.06324 0.29845,0.06324 0,0 -0.0286,0.04022 -0.0286,0.08599 0,0 0.37888,0.07488 0.86122,-0.143669 0.0918,-0.04022 0.25241,-0.07461 0.3847,-0.235479 0.0688,-0.07461 0.44768,-0.247121 0.59135,-0.264584 0.0114,0 0.0228,0 0.0344,-0.0053 0.0114,0.01138 0.0286,0.02275 0.0402,0.03439 0.0286,0.149225 0.0688,0.35613 0.12065,0.379148 0.0114,0.0058 -0.023,0.132292 0.0114,0.269875 -0.37889,0.310357 -1.22291,1.097757 -1.29196,1.988344 0,0.04022 0.21828,-0.02302 0.35031,-0.09181 0.006,-0.01164 -0.10901,0.287337 -0.0402,0.643466 0,0.02302 0.21828,-0.04022 0.33866,-0.149225 0.0175,-0.01746 -0.0458,0.379148 0.10928,0.677863 0.0114,0.01746 0.26405,-0.09181 0.35004,-0.183886 0.0175,-0.02302 0.0175,0.488421 0.27569,0.729986 0.023,0.02302 0.2585,-0.126471 0.44212,-0.402167 0.006,-0.01746 0.14923,0.402167 0.51091,0.643467 0.0288,0.02302 0.39053,-0.2413 0.61437,-0.718344 0,-0.02302 0.26432,0.321733 0.49397,0.384969 0.0114,0.01138 0.16061,-0.109273 0.25268,-0.580496 0.0114,-0.02858 0.15478,0.132292 0.34449,0.14949 0.0228,0 0.14922,-0.2413 0.1606,-0.63209 0,-0.02302 0.19526,0.109273 0.40746,0.08043 0.0233,0 0.0577,-0.396345 -0.0169,-0.706702 0,-0.0344 0.14922,0.103188 0.31565,0.06324 0.0288,0 -0.006,-1.103313 -1.35494,-2.051579 0.006,-0.04022 0.0114,-0.06324 0.0172,-0.06879 0.046,-0.01746 0.0746,-0.252942 0.0976,-0.431271 0.0574,-0.05159 0.11483,-0.103187 0.16669,-0.155046 0.0458,0.04022 0.10319,0.06906 0.1606,0.07488 0.14923,0.0056 0.47096,0.178065 0.53393,0.264319 0.13759,0.155046 0.32147,0.206904 0.40746,0.247121 0.49398,0.21246 0.8845,0.132292 0.8845,0.12065 0,-0.04604 -0.0344,-0.08043 -0.0344,-0.08043 0.086,0 0.30427,-0.0635 0.30427,-0.06879 0,-0.01746 -0.0116,-0.03466 -0.0288,-0.0635 0.40217,0.103452 1.14274,0.327554 1.12528,0.402167 -0.0458,0.132291 -0.0344,0.241564 0.006,0.333375 l -0.0976,0.09789 -0.35005,-0.0058 -1.26894,1.189302 0.32147,0.0058 h 0.0114 l -0.12621,0.160867 0.21829,0.05186 -0.0344,0.06323 0.11456,0.07461 -0.063,0.212461 0.40746,-0.0172 0.0863,0.0344 0.0804,0.235743 0.29263,-0.06323 -0.0458,0.103452 0.14922,0.05186 0.0516,-0.109273 0.0863,0.149489 0.26988,-0.126471 0.0918,0.07461 0.12065,-0.04022 0.20637,0.132292 0.28152,-1.517121 -0.19526,-0.252942 0.0175,-0.08599 a 0.05715,0.05715 0 0 0 0.0227,0.0056 c 0,0 0,-0.0056 0.006,-0.0172 0.20108,0.235479 0.41328,-0.166687 0.47651,-0.172244 0.68316,-0.04022 0.32729,-0.534458 0.36169,-0.568854 0.39052,-0.321998 0.20108,-0.500062 0.0688,-0.574675 l 2.21641,-1.695185 0.0746,0.281516 0.51673,-0.856191 -0.97022,0.356129 0.29845,0.132292 -0.99325,0.75856 0.33867,-0.75274 -0.13759,0.06879 0.53975,-0.551656 z m -0.13784,-2.2352 0.0574,0.06879 -0.16669,0.14949 z m -0.48234,0.97102 0.21802,-0.436562 h 0.11483 l -0.30427,0.540014 0.0172,-0.143668 z m 0.0114,-1.040077 0.2929,-0.0058 -0.31592,0.626534 z m -0.023,1.448065 0.44794,-0.792956 0.13758,0.172243 -0.61991,0.925248 0.0344,-0.30427 z m -14.75581,0.867833 c 0,0 -0.14367,-0.448204 -0.0863,-0.620712 0.006,-0.0058 0.006,-0.0172 0.006,-0.02302 a 0.15875,0.15875 0 0 0 0.0746,0.0172 c 0.0344,0 0.0632,-0.01138 0.0921,-0.02302 0.0172,0.189706 0.0344,0.454025 -0.0863,0.649288 z m 0.13229,0.218282 c 0.0286,0.02857 0.0688,0.05159 0.10874,0.06324 -0.006,0.09763 0,0.21246 0.023,0.275696 0,-0.0058 -0.13203,-0.149225 -0.13203,-0.338931 z m 0.34422,0.660664 h 0.0172 c 0.023,0 0.046,-0.0056 0.0688,-0.01138 0.023,0.109273 0.0577,0.206904 0.0863,0.293158 0.006,0.0056 -0.086,-0.09207 -0.17198,-0.281781 z m 4.44421,-3.987535 c 1.17131,0.632089 1.99231,-0.04022 2.23361,-0.281517 a 1.8306521,1.8306521 0 0 0 0.57415,0.396346 c 0.36168,0.160866 0.94165,0.270139 1.66502,-0.12065 0.0632,0.206904 0.21828,0.769937 0.24686,1.494102 h -4.97232 a 6.2838542,6.2838542 0 0 1 0.25241,-1.488281 z m 2.23361,5.763418 C 46.98668,52.40617 46.22283,51.544157 45.87834,50.400628 45.7233,49.895009 45.67197,49.400768 45.66588,48.946743 h 4.97814 a 5.1249792,5.1249792 0 0 1 -0.20664,1.448064 c -0.35031,1.14353 -1.11972,2.005542 -2.28521,2.568575 z m 7.97481,-2.987939 0.023,0.0058 -0.32729,0.379148 z m -0.49372,0.534458 0.0286,0.02858 -0.0516,0.05768 z m -0.12647,-1.637771 0.0804,0.08043 -0.25267,0.505618 -0.12621,0.126471 z m -0.10318,1.672167 0.11483,0.160867 -1.15994,1.350433 z m -0.84985,1.011237 0.59717,-1.080293 0.14922,0.01164 -0.74639,1.068917 z m 0.74639,-1.350168 0.16087,-0.293159 0.086,0.09208 z m -0.20108,-0.367771 0.19526,-0.0058 -0.82682,1.505479 0.63183,-1.499658 z m -0.4535,-0.143669 -0.13758,0.413544 -0.0691,-0.373327 z m -0.68897,2.039938 0.32729,-1.643592 0.18362,0.126471 -0.51065,1.517121 z m 0.0976,0.114829 0.71173,-2.11455 0.13229,0.109008 z m 0.11483,0.614891 1.01071,-1.183745 0.18362,0.05741 -1.18851,1.126331 z m 0.20108,0.02884 c -0.0116,-0.0058 -0.023,-0.0058 -0.0344,-0.01164 l 1.13083,-1.068916 0.0688,0.195527 z m 1.09644,-1.459706 -0.12621,0.06879 0.90726,-1.05701 0.0746,0.126206 z"
       class="bb-seal-prim anim-2"
       id="path215" />
    <path
       inkscape:connector-curvature="0"
       style="fill:currentColor;stroke-width:0.26458332"
       d="m 48.1516,36.114981 c -3.58828,0 -6.96436,1.396206 -9.50198,3.942027 -2.53788,2.54 -3.93885,5.918729 -3.93885,9.510183 0,3.591189 1.39515,6.969918 3.93859,9.509918 2.5437,2.54 5.91396,3.942028 9.50251,3.942028 3.58854,0 6.96462,-1.396471 9.50224,-3.942292 2.53789,-2.539736 3.93885,-5.918729 3.93885,-9.509919 0,-3.591454 -1.39514,-6.970448 -3.93885,-9.510183 -2.53762,-2.54 -5.9137,-3.942292 -9.50224,-3.942292 z m 9.37631,22.841478 c -2.50349,2.505605 -5.83936,3.890434 -9.38186,3.890434 -3.54278,0 -6.87256,-1.379009 -9.38187,-3.890169 -2.50322,-2.505604 -3.88672,-5.844117 -3.88672,-9.389533 0,-3.545417 1.37768,-6.878373 3.88672,-9.389533 2.50349,-2.505605 5.83936,-3.890434 9.38213,-3.890434 3.54224,0 6.87255,1.379273 9.3816,3.890434 2.50322,2.505604 3.88699,5.843851 3.88699,9.389533 0,3.545416 -1.37795,6.878373 -3.88699,9.389533 z"
       class="bb-seal-prim"
       id="path217" />
    <path
       inkscape:connector-curvature="0"
       style="fill:currentColor;stroke-width:0.26458332"
       d="m 48.1516,35.816266 c -3.66871,0 -7.11941,1.430602 -9.71444,4.028017 -2.59556,2.597414 -4.02537,6.051285 -4.02537,9.722908 0,3.671887 1.42981,7.125229 4.02511,9.722908 2.59503,2.59715 6.04572,4.028017 9.7147,4.028017 3.66871,0 7.11941,-1.430867 9.71471,-4.028017 2.5953,-2.597415 4.02484,-6.051021 4.02484,-9.722908 0,-3.671888 -1.42954,-7.125494 -4.02484,-9.722908 -2.59477,-2.597415 -6.04547,-4.028017 -9.71444,-4.028017 z m 9.5885,23.352918 c -2.56064,2.563019 -5.97112,3.976688 -9.59379,3.976688 -3.6232,0 -7.02786,-1.413669 -9.59432,-3.976688 -2.5609,-2.562754 -3.97351,-5.976143 -3.97351,-9.601993 0,-3.62585 1.41234,-7.033683 3.97324,-9.602258 2.56091,-2.56249 5.97139,-3.976423 9.59433,-3.976423 3.62293,0 7.02786,1.413668 9.59432,3.976687 2.56063,2.562754 3.97298,5.976144 3.97298,9.601729 0,3.626115 -1.40653,7.033683 -3.97298,9.602258 z m -16.78252,-22.008306 0.22384,0.0172 0.0344,0.229923 h 0.0402 l 0.0979,-0.212725 0.22939,0.0344 0.0175,-0.0344 -0.17251,-0.155046 0.10346,-0.195527 -0.0286,-0.02858 -0.19526,0.11483 -0.16669,-0.155046 -0.0286,0.0172 0.0402,0.224102 -0.20108,0.103187 z"
       class="bb-seal-prim"
       id="path219" />
    <path
       inkscape:connector-curvature="0"
       style="fill:currentColor;stroke-width:0.26458332"
       d="m 42.57101,36.356281 0.21828,0.04604 0.006,0.229922 0.0344,0.0056 L 42.95616,36.43676 43.18,36.5 l 0.023,-0.02884 -0.15505,-0.172246 0.12621,-0.183885 -0.0227,-0.02884 -0.20691,0.08625 -0.1434,-0.172244 -0.0344,0.01138 0.0114,0.224103 -0.20664,0.08043 z m 1.8833,-0.298715 0.0344,0.0172 0.14923,-0.189706 0.21828,0.09207 0.023,-0.02884 -0.13229,-0.189706 0.14949,-0.166688 -0.023,-0.02858 -0.21828,0.05742 -0.11483,-0.189706 -0.0402,0.01164 -0.0114,0.224102 -0.21828,0.05159 -0.006,0.04022 0.21246,0.07488 z m 1.71662,-0.356394 0.0344,0.0172 0.16669,-0.166687 0.20637,0.120914 0.0291,-0.02302 -0.10345,-0.206904 0.16669,-0.149489 -0.0175,-0.0344 -0.22384,0.0344 -0.0979,-0.201084 h -0.0344 l -0.04,0.224102 -0.2241,0.02302 -0.0114,0.04022 0.20108,0.0979 z m 1.75128,-0.137848 0.0286,0.02302 0.1897,-0.143669 0.18945,0.143669 0.0286,-0.02302 -0.0746,-0.212725 0.18362,-0.126206 -0.0172,-0.0344 h -0.22385 l -0.0688,-0.212725 h -0.0344 l -0.0691,0.212461 h -0.22966 l -0.0116,0.0344 0.18389,0.126471 z m 1.75101,0.08625 0.0288,0.02302 0.20108,-0.115094 0.17198,0.160867 0.0344,-0.0172 -0.0516,-0.224102 0.20109,-0.0979 -0.0116,-0.03995 -0.22384,-0.02302 -0.0402,-0.218281 -0.0402,-0.0058 -0.0918,0.201084 -0.22383,-0.02857 -0.0172,0.03439 0.16668,0.143669 z m 1.72826,0.298715 0.023,0.02884 0.21828,-0.09207 0.14922,0.183885 0.0344,-0.01138 -0.0172,-0.229923 0.20664,-0.07461 -0.006,-0.0344 -0.21828,-0.05186 -0.0114,-0.224103 -0.0402,-0.01164 -0.11483,0.189706 -0.21828,-0.05742 -0.023,0.02884 0.14949,0.166688 z m 1.69968,0.545835 0.22966,-0.06323 0.12039,0.201084 0.0402,-0.0056 0.006,-0.229923 0.21828,-0.04604 v -0.04022 l -0.21246,-0.08043 0.0114,-0.224102 -0.0344,-0.01138 -0.13759,0.172244 -0.21272,-0.08599 -0.023,0.02857 0.12647,0.183885 -0.15505,0.172508 z m 1.59623,0.724165 0.23548,-0.0344 0.0974,0.21246 h 0.0402 l 0.0344,-0.229922 0.21828,-0.0172 0.006,-0.04022 -0.20108,-0.103188 0.046,-0.224367 -0.0344,-0.0172 -0.16087,0.155046 -0.19526,-0.109008 -0.0344,0.02302 0.10319,0.201083 -0.17198,0.14949 0.0169,0.0344 z m 1.49278,0.913606 h 0.23548 l 0.0743,0.224102 h 0.0344 l 0.0635,-0.218281 0.22384,0.0056 0.0114,-0.04022 -0.18944,-0.126206 0.0746,-0.212725 -0.0344,-0.02302 -0.17807,0.132292 -0.18362,-0.132292 -0.0288,0.0172 0.0746,0.212725 -0.18944,0.126471 z m 1.36631,1.097492 0.23548,0.02884 0.0402,0.229923 0.0402,0.0056 0.0918,-0.212461 0.21828,0.04022 0.0172,-0.04022 -0.17224,-0.149489 0.0976,-0.201083 -0.0288,-0.02884 -0.19526,0.109272 -0.16061,-0.155045 -0.0344,0.0172 0.0516,0.218281 -0.20664,0.103452 z m 1.2229,1.264179 0.22993,0.05186 0.006,0.235479 0.0402,0.01164 0.11483,-0.195527 0.21246,0.0635 0.023,-0.03466 -0.14923,-0.172508 0.12039,-0.189442 -0.0227,-0.02884 -0.20691,0.08043 -0.1434,-0.172508 -0.0344,0.01164 0.023,0.224102 -0.21828,0.07461 0.006,0.04022 z m 0.64876,17.928696 -0.21219,0.06323 -0.11483,-0.201083 -0.0402,0.01138 -0.006,0.235479 -0.22966,0.05768 -0.006,0.04022 0.21828,0.07461 -0.023,0.224102 0.0344,0.01164 0.14367,-0.178329 0.20664,0.0807 0.023,-0.0291 -0.12065,-0.189442 0.14367,-0.166687 -0.0172,-0.0344 z m -1.19406,1.338791 -0.21828,0.04022 -0.0918,-0.21246 -0.0402,0.0058 -0.0402,0.23548 -0.23548,0.02302 -0.006,0.04022 0.20664,0.103188 -0.0516,0.218545 0.0344,0.0172 0.16086,-0.160866 0.20109,0.109273 0.0228,-0.02884 -0.0976,-0.201083 0.16669,-0.14949 z m -1.35493,1.184011 -0.2241,0.0056 -0.063,-0.218281 h -0.0402 l -0.0688,0.229923 -0.23548,-0.0058 -0.0116,0.0344 0.18944,0.132291 -0.0746,0.206905 0.0344,0.02302 0.17806,-0.138112 0.18389,0.132291 0.0286,-0.02302 -0.0688,-0.212725 0.18362,-0.132292 -0.0114,-0.0344 z m -1.49305,0.999596 -0.22383,-0.0172 -0.0344,-0.224102 -0.0402,-0.0056 -0.0976,0.218282 -0.22966,-0.0344 -0.0172,0.0344 0.17224,0.149489 -0.10319,0.201084 0.0286,0.02302 0.19527,-0.115093 0.16668,0.15531 0.0344,-0.01746 -0.046,-0.218281 0.20109,-0.109273 z m -1.6076,0.810418 -0.21802,-0.04604 -0.006,-0.229923 -0.0402,-0.0056 -0.12065,0.201083 -0.22966,-0.05741 -0.0172,0.02858 0.14922,0.172509 -0.1262,0.183885 0.0288,0.02858 0.20637,-0.08625 0.14367,0.172508 0.0344,-0.0172 -0.0169,-0.224102 0.2122,-0.08043 z m -1.88304,0.304536 -0.0344,-0.01164 -0.14949,0.183886 -0.21802,-0.09181 -0.023,0.02884 0.13203,0.189441 -0.14923,0.166688 0.023,0.0344 0.21802,-0.06324 0.12065,0.189707 0.0344,-0.0058 0.0114,-0.224102 0.21828,-0.05741 0.006,-0.04022 -0.21246,-0.06879 z m -1.71689,0.36195 -0.0344,-0.0172 -0.16668,0.166687 -0.20638,-0.115093 -0.0291,0.02302 0.10927,0.206905 -0.17197,0.143668 0.0228,0.0344 0.22383,-0.02858 0.0918,0.201083 0.0402,-0.0058 0.0402,-0.218282 0.22411,-0.02884 0.006,-0.0344 -0.195,-0.103452 z m -1.74545,0.143669 -0.0344,-0.0172 -0.18944,0.143668 -0.18944,-0.143668 -0.0288,0.02302 0.0804,0.212461 -0.18362,0.126471 0.0114,0.03439 0.22383,-0.0056 0.0688,0.218281 h 0.0405 l 0.0688,-0.218281 0.22384,0.0056 0.0116,-0.04022 -0.18389,-0.12065 z m -1.75683,-0.07461 -0.0288,-0.02302 -0.20109,0.114829 -0.17198,-0.160866 -0.0344,0.0172 0.0516,0.224102 -0.19526,0.0979 0.006,0.04022 0.22384,0.02275 0.046,0.218546 0.0344,0.0056 0.0918,-0.201084 0.22383,0.02884 0.023,-0.0344 -0.17197,-0.143669 z m -1.72826,-0.293158 -0.023,-0.02858 -0.21828,0.09181 -0.14923,-0.183885 -0.0344,0.01138 0.023,0.229923 -0.21246,0.07488 0.006,0.04022 0.21802,0.05159 0.0172,0.224102 0.0344,0.0058 0.12065,-0.189706 0.21828,0.05741 0.0172,-0.02858 -0.14923,-0.166687 z m -1.69942,-0.540015 -0.22966,0.06297 -0.12647,-0.201083 -0.0344,0.0058 -0.006,0.229923 -0.21801,0.05159 v 0.04022 l 0.21246,0.07488 -0.0175,0.224102 0.0402,0.0172 0.13785,-0.178065 0.21246,0.08599 0.023,-0.02858 -0.12621,-0.183886 0.14923,-0.172508 z m -1.60205,-0.718344 -0.23548,0.0344 -0.0974,-0.212725 h -0.0402 l -0.0288,0.229923 -0.22384,0.0172 -0.006,0.04022 0.20109,0.103452 -0.0402,0.224102 0.0286,0.01746 0.16668,-0.15531 0.195,0.109273 0.0288,-0.02302 -0.10319,-0.201083 0.17198,-0.14949 z m -1.4986,-0.90805 -0.23548,0.0058 -0.0688,-0.229923 h -0.0402 l -0.063,0.224102 -0.22411,-0.01138 -0.006,0.04022 0.18363,0.126471 -0.0688,0.21246 0.0286,0.02302 0.18388,-0.132292 0.1778,0.132292 0.0344,-0.0172 -0.0802,-0.212725 0.18944,-0.126471 z m -1.37213,-1.09167 -0.23548,-0.02884 -0.0402,-0.229923 -0.0344,-0.0056 -0.0918,0.21246 -0.21828,-0.0344 -0.0172,0.0344 0.16669,0.14949 -0.0921,0.206904 0.0288,0.02302 0.19526,-0.109273 0.1606,0.155046 0.0344,-0.0172 -0.0516,-0.218282 0.20664,-0.103452 z M 37.55848,58.68076 37.323,58.62917 l -0.0114,-0.235479 -0.0344,-0.01164 -0.11483,0.195263 -0.21246,-0.05741 -0.023,0.02884 0.14922,0.172243 -0.12038,0.189707 0.023,0.02884 0.21246,-0.08043 0.13758,0.172244 0.0402,-0.01138 -0.023,-0.224102 0.21246,-0.07488 z m -1.26286,-1.718205 -0.0347,-0.01138 -0.13758,0.178065 -0.20691,-0.08599 -0.023,0.02858 0.12647,0.189707 -0.14367,0.172243 0.023,0.0344 0.21246,-0.05715 0.12065,0.189442 0.0399,-0.0056 0.006,-0.224102 0.22384,-0.05186 v -0.0344 l -0.22384,-0.08625 0.0172,-0.235479 z m -0.49397,-14.750785 0.023,0.02884 0.20664,-0.09208 0.13759,0.183885 0.0347,-0.0172 -0.0172,-0.235479 0.21828,-0.08043 v -0.04022 l -0.2241,-0.04604 -0.0114,-0.224102 -0.0344,-0.01164 -0.12065,0.195527 -0.21246,-0.05186 -0.023,0.02884 0.14367,0.172244 z m 1.03372,-1.459706 0.2122,-0.06297 0.12065,0.195263 0.0344,-0.0056 0.0114,-0.241565 0.22966,-0.05159 v -0.04021 l -0.21246,-0.07461 0.0175,-0.224367 -0.0344,-0.01138 -0.14367,0.178065 -0.20664,-0.08043 -0.023,0.02884 0.12065,0.189707 -0.14367,0.172243 0.0172,0.02884 z m 1.19407,-1.344348 0.21801,-0.04022 0.0921,0.212461 0.0344,-0.0058 0.0402,-0.235479 0.23548,-0.02302 0.006,-0.04022 -0.20108,-0.103188 0.046,-0.212989 -0.0344,-0.0172 -0.16087,0.15531 -0.195,-0.109273 -0.0288,0.02884 0.0976,0.201083 -0.16668,0.155046 0.0175,0.0344 z m 1.34911,-1.183746 0.2241,-0.01164 0.063,0.218281 h 0.0344 l 0.0691,-0.224102 h 0.23548 l 0.0172,-0.0344 -0.19526,-0.126471 0.0746,-0.21246 -0.0286,-0.02302 -0.18388,0.137848 -0.1778,-0.132292 -0.0288,0.02302 0.0688,0.212725 -0.18362,0.132292 z m 8.37141,20.387998 h -0.71225 l -0.44212,0.810154 v 0.281517 h 0.78078 v 0.27596 h 0.37306 v -0.27596 h 0.21829 l 0.0175,-0.315913 h -0.22966 l -0.006,-0.775758 z m -0.3675,0.781579 H 47.0094 l 0.25241,-0.465667 h 0.12065 z m 1.69386,-0.310356 c -0.13785,0 -0.2757,0.02858 -0.3847,0.103187 0.023,-0.21246 0.17198,-0.292893 0.3847,-0.292893 0.15478,0 0.25241,0.03439 0.4019,0.0979 V 58.65801 a 1.1223625,1.1223625 0 0 0 -0.43074,-0.0807 c -0.4535,0 -0.73501,0.27596 -0.73501,0.753004 0,0.465402 0.25268,0.689504 0.64902,0.689504 0.34449,0 0.60854,-0.189706 0.60854,-0.505619 0.006,-0.293158 -0.20664,-0.42545 -0.49371,-0.431271 z m -0.10345,0.620448 c -0.14341,0 -0.26406,-0.06324 -0.28125,-0.258498 0.0976,-0.05742 0.18944,-0.08625 0.28125,-0.08625 0.12065,0 0.22966,0.0344 0.22966,0.15531 0,0.126206 -0.0976,0.189442 -0.22966,0.189442 z"
       class="bb-seal-prim"
       id="path221" />
  </g>
  <g
     id="g340"
     inkscape:groupmode="layer"
     inkscape:label="B.Cu-disabled" />
  <g
     id="g342"
     inkscape:groupmode="layer"
     inkscape:label="B.Adhes-disabled" />
  <g
     id="g344"
     inkscape:groupmode="layer"
     inkscape:label="F.Adhes-disabled" />
  <g
     id="g346"
     inkscape:groupmode="layer"
     inkscape:label="B.Paste-disabled" />
  <g
     id="g348"
     inkscape:groupmode="layer"
     inkscape:label="F.Paste-disabled" />
  <g
     id="g350"
     inkscape:groupmode="layer"
     inkscape:label="B.SilkS-disabled" />
  <g
     id="g352"
     inkscape:groupmode="layer"
     inkscape:label="F.SilkS-disabled" />
  <g
     id="g354"
     inkscape:groupmode="layer"
     inkscape:label="B.Mask-disabled" />
  <g
     id="g356"
     inkscape:groupmode="layer"
     inkscape:label="F.Mask-disabled" />
  <g
     id="g358"
     inkscape:groupmode="layer"
     inkscape:label="Dwgs.User-disabled" />
  <g
     id="g360"
     inkscape:groupmode="layer"
     inkscape:label="Cmts.User-disabled" />
  <g
     id="g362"
     inkscape:groupmode="layer"
     inkscape:label="Eco1.User-disabled" />
  <g
     id="g364"
     inkscape:groupmode="layer"
     inkscape:label="Eco2.User-disabled" />
  <g
     id="g366"
     inkscape:groupmode="layer"
     inkscape:label="Edge.Cuts" />
  <g
     id="g368"
     inkscape:groupmode="layer"
     inkscape:label="Margin-disabled" />
  <g
     id="g370"
     inkscape:groupmode="layer"
     inkscape:label="B.CrtYd-disabled" />
  <g
     id="g372"
     inkscape:groupmode="layer"
     inkscape:label="F.CrtYd-disabled" />
  <g
     id="g374"
     inkscape:groupmode="layer"
     inkscape:label="B.Fab-disabled" />
  <g
     id="g376"
     inkscape:groupmode="layer"
     inkscape:label="F.Fab-disabled" />
  <g
     id="g378"
     inkscape:groupmode="layer"
     inkscape:label="Drill" />
</svg>
