<?xml version="1.0" encoding="UTF-8" standalone="no"?>
<!-- Created with Inkscape (http://www.inkscape.org/) -->

<svg
   xmlns:dc="http://purl.org/dc/elements/1.1/"
   xmlns:cc="http://creativecommons.org/ns#"
   xmlns:rdf="http://www.w3.org/1999/02/22-rdf-syntax-ns#"
   xmlns:svg="http://www.w3.org/2000/svg"
   xmlns="http://www.w3.org/2000/svg"
   xmlns:sodipodi="http://sodipodi.sourceforge.net/DTD/sodipodi-0.dtd"
   xmlns:inkscape="http://www.inkscape.org/namespaces/inkscape"
   width="100.0mm"
   height="100.0mm"
   viewBox="0 0 100.0 100.0"
   version="1.1"
   id="svg4943"
   sodipodi:docname="pumpkin-outline-v2.svg"
   inkscape:version="0.92.5 (2060ec1f9f, 2020-04-08)">
  <defs
     id="defs4937" />
  <sodipodi:namedview
     id="base"
     pagecolor="#ffffff"
     bordercolor="#666666"
     borderopacity="1.0"
     inkscape:pageopacity="0.0"
     inkscape:pageshadow="2"
     inkscape:zoom="1.28"
     inkscape:cx="12.910224"
     inkscape:cy="55.758983"
     inkscape:document-units="mm"
     inkscape:current-layer="g4982"
     showgrid="true"
     inkscape:window-width="1920"
     inkscape:window-height="1016"
     inkscape:window-x="0"
     inkscape:window-y="27"
     inkscape:window-maximized="1"
     borderlayer="true">
    <inkscape:grid
       spacingx="2.54"
       spacingy="2.54"
       empspacing="1"
       type="xygrid"
       units="mm"
       id="grid4946" />
  </sodipodi:namedview>
  <metadata
     id="metadata4940">
    <rdf:RDF>
      <cc:Work
         rdf:about="">
        <dc:format>image/svg+xml</dc:format>
        <dc:type
           rdf:resource="http://purl.org/dc/dcmitype/StillImage" />
      </cc:Work>
    </rdf:RDF>
  </metadata>
  <g
     id="g4952"
     sodipodi:insensitive="true"
     inkscape:groupmode="layer"
     inkscape:label="[fixed] BG"
     style="display:none">
    <rect
       id="rect4950"
       style="fill:#ffffff;fill-opacity:1;stroke:none"
       height="100"
       width="100"
       y="0"
       x="0" />
  </g>
  <g
     id="g4954"
     inkscape:groupmode="layer"
     inkscape:label="F.Cu"
     style="display:none" />
  <g
     id="g4956"
     inkscape:groupmode="layer"
     inkscape:label="B.Cu-disabled"
     style="display:none" />
  <g
     id="g4958"
     inkscape:groupmode="layer"
     inkscape:label="B.Adhes-disabled"
     style="display:none" />
  <g
     id="g4960"
     inkscape:groupmode="layer"
     inkscape:label="F.Adhes-disabled"
     style="display:none" />
  <g
     id="g4962"
     inkscape:groupmode="layer"
     inkscape:label="B.Paste-disabled"
     style="display:none" />
  <g
     id="g4964"
     inkscape:groupmode="layer"
     inkscape:label="F.Paste-disabled"
     style="display:none" />
  <g
     id="g4966"
     inkscape:groupmode="layer"
     inkscape:label="B.SilkS-disabled"
     style="display:none" />
  <g
     id="g4968"
     inkscape:groupmode="layer"
     inkscape:label="F.SilkS-disabled"
     style="display:none" />
  <g
     id="g4970"
     inkscape:groupmode="layer"
     inkscape:label="B.Mask-disabled"
     style="display:none" />
  <g
     id="g4972"
     inkscape:groupmode="layer"
     inkscape:label="F.Mask-disabled"
     style="display:none" />
  <g
     id="g4974"
     inkscape:groupmode="layer"
     inkscape:label="Dwgs.User-disabled"
     style="display:none" />
  <g
     id="g4976"
     inkscape:groupmode="layer"
     inkscape:label="Cmts.User-disabled"
     style="display:none" />
  <g
     id="g4978"
     inkscape:groupmode="layer"
     inkscape:label="Eco1.User-disabled"
     style="display:none" />
  <g
     id="g4980"
     inkscape:groupmode="layer"
     inkscape:label="Eco2.User-disabled"
     style="display:none" />
  <g
     id="g4982"
     inkscape:groupmode="layer"
     inkscape:label="Edge.Cuts"
     style="display:inline">
    <g
       id="g5149" />
    <path
       transform="scale(0.26458333)"
       style="display:inline;fill:#784421;stroke-width:0.67347646"
       d="m -114.24609,81.974609 -0.78537,0.495863 -0.76387,0.513774 -0.74273,0.531395 -0.72193,0.548723 -0.70149,0.56576 -0.68139,0.582505 -0.66165,0.598959 -0.64225,0.615122 -0.62321,0.630992 -0.60451,0.646571 -0.58616,0.661858 -0.56817,0.676855 -0.55052,0.691559 -0.53323,0.705971 -0.51628,0.720093 -0.49969,0.733923 -0.48344,0.747461 -0.46754,0.760707 -0.452,0.773662 -0.4368,0.786326 -0.42195,0.798698 -0.40746,0.810778 -0.39332,0.822567 -0.37952,0.834064 -0.36607,0.845269 -0.35297,0.856184 -0.34023,0.866802 -0.32783,0.87714 -0.61988,1.7841 -0.57448,1.82193 -0.53191,1.85741 -0.49211,1.89058 -0.45513,1.92141 -0.42094,1.9499 -0.38956,1.97606 -0.36096,1.99989 -0.33518,2.02139 -0.31218,2.04056 -0.292,2.05738 -0.27461,2.07189 -0.50825,4.17794 -0.47228,4.20795 -0.45872,4.2193 -2.32596,-0.68139 -2.31108,-0.64512 -2.29617,-0.60913 -2.28119,-0.57342 -2.26618,-0.53799 -2.25114,-0.50285 -2.23603,-0.46798 -2.2209,-0.4334 -2.20571,-0.39911 -2.19049,-0.36509 -2.17521,-0.33136 -2.1599,-0.2979 -2.14455,-0.26474 -2.12915,-0.23185 -2.1137,-0.19925 -2.09821,-0.16693 -2.08269,-0.13488 -2.06711,-0.10313 -2.05149,-0.0717 -2.03583,-0.0405 -2.02013,-0.01 -2.00438,0.0211 -1.98859,0.0514 -1.97276,0.0815 -1.95688,0.11127 -1.94095,0.14076 -1.92499,0.16998 -1.90899,0.19892 -1.89293,0.22757 -1.87684,0.25594 -1.8607,0.28403 -1.84451,0.31183 -1.8283,0.33935 -1.81202,0.3666 -1.79571,0.39355 -1.77936,0.42023 -1.76296,0.44662 -1.74651,0.47273 -1.73003,0.49857 -1.7135,0.52411 -1.69693,0.54937 -1.68031,0.57436 -1.66365,0.59905 -1.64695,0.62348 -1.63021,0.64761 -1.61341,0.67146 -1.59658,0.69503 -1.57971,0.71832 -1.56278,0.74133 -1.54582,0.76405 -1.52882,0.7865 -1.51176,0.80865 -1.49468,0.83053 -1.47753,0.85212 -1.46035,0.87344 -1.44314,0.89446 -1.42586,0.91522 -1.40855,0.93568 -1.3912,0.95586 -1.3738,0.97577 -1.35636,0.99538 -1.33888,1.01472 -1.32135,1.03377 -1.30378,1.05255 -1.28616,1.07103 -1.2685,1.08924 -1.25081,1.10717 -1.23306,1.12481 -1.21527,1.14217 -1.19744,1.15925 -1.17956,1.17604 -1.16165,1.19256 -1.14368,1.20878 -1.12568,1.22474 -1.10763,1.24041 -1.08954,1.25578 -1.0714,1.27089 -1.05323,1.28571 -1.035,1.30025 -1.01673,1.3145 -0.99843,1.32848 -0.98007,1.34216 -0.96168,1.35557 -0.94324,1.3687 -0.92476,1.38155 -0.90623,1.3941 -0.88766,1.40639 -0.86904,1.41838 -0.85039,1.43009 -0.83169,1.44153 -0.81295,1.45268 -0.79416,1.46354 -0.77533,1.47413 -0.75646,1.48443 -0.73754,1.49446 -0.71858,1.50419 -0.69957,1.51365 -0.68053,1.52282 -0.66144,1.53171 -0.6423,1.54033 -0.62312,1.54865 -0.60391,1.55669 -0.58464,1.56446 -0.56533,1.57194 -0.54598,1.57913 -0.52659,1.58605 -0.50715,1.59269 -0.48767,1.59903 -0.46814,1.6051 -0.44857,1.61089 -0.42897,1.6164 -0.4093,1.62161 -0.38961,1.62656 -0.36987,1.63121 -0.35008,1.63559 -0.33025,1.63968 -0.31039,1.64349 -0.29046,1.64702 -0.27051,1.65026 -0.2505,1.65323 -0.23046,1.65591 -0.21037,1.65831 -0.19023,1.66042 -0.17006,1.66226 -0.14984,1.66381 -0.12958,1.66508 -0.10927,1.66607 -0.0889,1.66677 -0.0685,1.6672 -0.0481,1.66733 -0.0276,1.6672 -0.007,1.66677 0.0135,1.66606 0.0341,1.66507 0.0548,1.66381 0.0754,1.66225 0.0962,1.66042 0.11696,1.65829 0.13779,1.6559 0.15867,1.65322 0.17957,1.65025 0.20054,1.647 0.22153,1.64348 0.24258,1.63966 0.26367,1.63557 0.2848,1.63119 0.30597,1.62654 0.32719,1.62159 0.34846,1.61637 0.36975,1.61087 0.39111,1.60507 0.4125,1.59901 0.43393,1.59266 0.45541,1.58602 0.47694,1.5791 0.4985,1.57191 0.52011,1.56442 0.54176,1.55667 0.56345,1.54861 0.5852,1.54029 0.60698,1.53167 0.6288,1.52279 0.65067,1.5136 0.67259,1.50415 0.69454,1.49442 0.71654,1.48439 0.73859,1.47408 0.76067,1.4635 0.7828,1.45263 0.80497,1.44148 0.8272,1.43004 0.84945,1.41833 0.87175,1.40633 0.8941,1.39405 0.9165,1.38149 0.93892,1.36864 0.9614,1.35552 0.98393,1.34211 1.00649,1.32841 1.02909,1.31444 1.05175,1.30019 1.07444,1.28564 1.09717,1.27083 1.11996,1.25572 1.14279,1.24034 1.16565,1.22467 1.18856,1.20872 1.21152,1.19248 1.23452,1.17597 1.25755,1.15918 1.28065,1.14209 1.30377,1.12474 1.32694,1.10709 1.35016,1.08916 1.37342,1.07096 1.39672,1.05246 1.42006,1.03369 1.44345,1.01464 1.46689,0.9953 1.49036,0.97568 1.51388,0.95577 1.53745,0.9356 1.56105,0.91512 1.58469,0.89438 1.6084,0.87334 1.63212,0.85203 1.65591,0.83044 1.67973,0.80856 1.7036,0.78639 1.72751,0.76396 1.75146,0.74123 1.77546,0.71822 1.7995,0.69493 1.82358,0.67136 1.84771,0.64751 1.87188,0.62337 1.89609,0.59895 1.92035,0.57425 1.94465,0.54926 1.969,0.524 1.99338,0.49845 2.01781,0.47263 2.04229,0.4465 2.06681,0.42012 2.09136,0.39344 2.11597,0.36647 2.14062,0.33924 2.16532,0.31171 2.19004,0.28391 2.21483,0.25581 2.23964,0.22745 2.26451,0.19879 2.28942,0.16986 2.31438,0.14064 2.33936,0.11114 2.36441,0.0814 2.38949,0.0513 2.41461,0.0209 2.43978,-0.01 2.465,-0.0406 2.49025,-0.0718 2.51555,-0.10327 2.54089,-0.13502 2.56628,-0.16707 2.59171,-0.19938 2.61718,-0.232 2.6427,-0.26488 2.66826,-0.29805 2.69386,-0.3315 2.71951,-0.36524 2.7452,-0.39925 2.77093,-0.43355 2.79671,-0.46814 2.82253,-0.50299 2.84839,-0.53815 2.8743,-0.57357 2.5377,0.74227 2.51911,0.70657 2.50051,0.67117 2.4819,0.63601 2.46328,0.60113 2.44465,0.56653 2.42602,0.53219 2.40737,0.49812 2.38873,0.46432 2.37005,0.43079 2.351393,0.39754 2.332709,0.36454 2.314021,0.33183 2.295324,0.29937 2.276619,0.2672 2.257905,0.23529 2.239182,0.20364 2.220451,0.17228 2.20171,0.14118 2.182962,0.11034 2.164203,0.0798 2.145437,0.0495 2.126663,0.0195 2.107878,-0.0103 2.089086,-0.0398 2.070284,-0.069 2.051475,-0.0979 2.032656,-0.12658 2.013828,-0.15498 1.994993,-0.18311 1.976147,-0.21098 1.957294,-0.23857 1.938432,-0.26589 1.919561,-0.29294 1.900681,-0.31972 1.881793,-0.34624 1.862896,-0.37248 1.84399,-0.39845 1.825075,-0.42416 1.806152,-0.44959 1.78722,-0.47475 1.768279,-0.49965 1.74933,-0.52427 1.730372,-0.54862 1.711405,-0.57271 1.69243,-0.59652 1.673445,-0.62007 1.654452,-0.64334 1.635451,-0.66634 1.61644,-0.68908 1.597421,-0.71155 1.578393,-0.73374 1.559357,-0.75566 1.540312,-0.77732 1.521257,-0.7987 1.502195,-0.81983 1.483123,-0.84066 1.4640436,-0.86124 1.4449545,-0.88155 1.4258569,-0.90159 1.4067507,-0.92135 1.3876356,-0.94085 1.368512,-0.96007 1.34937965,-0.97903 1.33023849,-0.99772 1.31108866,-1.01613 1.2919301,-1.03429 1.2727629,-1.05216 1.2535868,-1.06976 1.2344022,-1.08711 1.2152088,-1.10417 1.1960067,-1.12097 1.1767954,-1.1375 1.157577,-1.15376 1.138348,-1.16974 1.119111,-1.18547 1.099865,-1.20091 1.080611,-1.21609 1.061348,-1.231 1.042076,-1.24564 1.022795,-1.26001 1.003507,-1.27411 0.984208,-1.28793 0.964901,-1.3015 0.945587,-1.31479 0.926262,-1.32781 0.906929,-1.34055 0.887587,-1.35304 0.868238,-1.36525 0.848878,-1.37719 0.829511,-1.38886 0.810134,-1.40026 0.790749,-1.41139 0.771355,-1.42226 0.751953,-1.43284 0.732542,-1.44317 0.713121,-1.45322 0.693693,-1.46299 0.674256,-1.47252 0.654809,-1.48175 0.635354,-1.49073 0.615891,-1.49942 0.596419,-1.50787 0.576937,-1.51602 0.557448,-1.52392 0.53795,-1.53153 0.518442,-1.5389 0.498927,-1.54597 0.479402,-1.55279 0.459869,-1.55934 0.440327,-1.5656 0.420776,-1.57161 0.401216,-1.57735 0.381649,-1.58281 0.362072,-1.588 0.342486,-1.59293 0.322892,-1.59758 0.303289,-1.60197 0.283677,-1.60608 0.264056,-1.60993 0.244428,-1.6135 0.22479,-1.61681 0.205143,-1.61984 0.185488,-1.62261 0.165824,-1.62511 0.146151,-1.62733 0.12647,-1.62928 0.10678,-1.63098 0.08708,-1.63239 0.06737,-1.63353 0.04766,-1.63442 0.02793,-1.63502 0.0082,-1.63535 -0.01154,-1.63543 -0.0313,-1.63522 -0.05105,-1.63475 -0.07082,-1.634 -0.0906,-1.633 -0.110386,-1.63171 -0.130182,-1.63016 -0.149985,-1.62834 -0.169797,-1.62624 -0.189618,-1.62389 -0.209447,-1.62125 -0.229286,-1.61836 -0.249133,-1.61518 -0.268988,-1.61174 -0.288853,-1.60803 -0.308726,-1.60405 -0.328608,-1.5998 -0.348499,-1.59527 -0.368397,-1.59049 -0.388306,-1.58543 -0.408222,-1.5801 -0.428148,-1.5745 -0.448082,-1.56863 -0.468025,-1.56249 -0.487976,-1.55608 -0.507937,-1.5494 -0.527906,-1.54245 -0.547883,-1.53523 -0.56787,-1.52775 -0.587865,-1.51999 -0.607868,-1.51195 -0.627882,-1.50366 -0.647902,-1.4951 -0.667933,-1.48625 -0.687971,-1.47714 -0.708019,-1.46777 -0.728075,-1.45812 -0.74814,-1.44821 -0.768213,-1.43801 -0.788295,-1.42756 -0.808387,-1.41684 -0.828486,-1.40583 -0.848595,-1.39457 -0.868712,-1.38303 -0.888838,-1.37123 -0.908972,-1.35915 -0.929115,-1.3468 -0.949268,-1.33419 -0.969428,-1.3213 -0.989598,-1.30815 -1.009776,-1.29472 -1.029962,-1.28103 -1.050159,-1.26706 -1.070362,-1.25282 -1.090576,-1.23833 -1.110797,-1.22354 -1.131028,-1.2085 -1.151267,-1.19319 -1.171514,-1.17761 -1.1917715,-1.16174 -1.2120366,-1.14563 -1.2323105,-1.12923 -1.2525933,-1.11257 -1.2728847,-1.09563 -1.2931848,-1.07844 -1.3134937,-1.06095 -1.33381126,-1.04322 -1.35413756,-1.0252 -1.37447258,-1.00692 -1.3948162,-0.98837 -1.4151688,-0.96954 -1.4355298,-0.95045 -1.4558997,-0.93109 -1.4762783,-0.91146 -1.4966657,-0.89156 -1.517061,-0.87138 -1.537467,-0.85094 -1.557879,-0.83023 -1.578302,-0.80925 -1.598733,-0.788 -1.619172,-0.76648 -1.639621,-0.74469 -1.660078,-0.72262 -1.680543,-0.7003 -1.701018,-0.6777 -1.721501,-0.65482 -1.741992,-0.63169 -1.762494,-0.60827 -1.783002,-0.5846 -1.803521,-0.56064 -1.824047,-0.53643 -1.844583,-0.51194 -1.865127,-0.48718 -1.88568,-0.46214 -1.906241,-0.43685 -1.926812,-0.41129 -1.947391,-0.38544 -1.967978,-0.35933 -1.988575,-0.33296 -2.00918,-0.30631 -2.029794,-0.27939 -2.050417,-0.2522 -2.071047,-0.22474 -2.091688,-0.19702 -2.112337,-0.16902 -2.132994,-0.14075 -2.15366,-0.11222 -2.174335,-0.0834 -2.195018,-0.0543 -2.215711,-0.025 -2.236412,0.005 -2.257121,0.0345 -2.27784,0.0647 -2.298568,0.0951 -2.319303,0.12579 -2.340047,0.15676 -2.360801,0.188 -2.381563,0.21951 -2.402334,0.25127 -2.423113,0.28333 -2.4439,0.31564 -2.4647,0.34822 -2.4855,0.38108 -0.33789,-2.28342 -0.27634,-2.20646 -0.21484,-2.13193 -0.15337,-2.05987 -0.0919,-1.99025 -0.0229,-0.96979 -0.008,-0.9533 0.008,-0.93712 0.0231,-0.92125 0.0384,-0.90569 0.0537,-0.89043 0.0691,-0.87547 0.0844,-0.86083 0.0997,-0.8465 0.115,-0.83245 0.1303,-0.81874 0.14561,-0.80531 0.1609,-0.7922 0.17619,-0.77939 0.19147,-0.76689 0.20676,-0.7547 0.22203,-0.74281 0.23731,-0.73123 0.25258,-0.71995 0.26784,-0.70899 0.28309,-0.69832 0.29836,-0.68797 0.3136,-0.67793 0.32885,-0.66817 0.34408,-0.65875 0.35933,-0.64961 0.37456,-0.64079 0.38978,-0.63228 0.40501,-0.62406 0.42022,-0.61617 0.43544,-0.60856 0.45065,-0.60128 0.46585,-0.59429 0.48105,-0.58761 0.49625,-0.58124 0.51144,-0.57518 1.068435,-1.13339 1.129145,-1.112808 1.18982,-1.09468 1.250457,-1.079002 1.31106,-1.065778 1.371625,-1.055004 1.432154,-1.046682 1.492648,-1.040813 1.553105,-1.037395 -26.939449,-8.978516 -0.002,-0.0078"
       id="path4677"
       inkscape:connector-curvature="0" />
  </g>
  <g
     id="g4984"
     inkscape:groupmode="layer"
     inkscape:label="Margin-disabled"
     style="display:none" />
  <g
     id="g4986"
     inkscape:groupmode="layer"
     inkscape:label="B.CrtYd-disabled"
     style="display:none" />
  <g
     id="g4988"
     inkscape:groupmode="layer"
     inkscape:label="F.CrtYd-disabled"
     style="display:none" />
  <g
     id="g4990"
     inkscape:groupmode="layer"
     inkscape:label="B.Fab-disabled"
     style="display:none" />
  <g
     id="g4992"
     inkscape:groupmode="layer"
     inkscape:label="F.Fab-disabled"
     style="display:none" />
  <g
     id="g4994"
     inkscape:groupmode="layer"
     inkscape:label="Drill"
     style="display:none" />
</svg>
