<?xml version="1.0" encoding="UTF-8" standalone="no"?>
<!-- Created with Inkscape (http://www.inkscape.org/) -->

<svg
   xmlns:dc="http://purl.org/dc/elements/1.1/"
   xmlns:cc="http://creativecommons.org/ns#"
   xmlns:rdf="http://www.w3.org/1999/02/22-rdf-syntax-ns#"
   xmlns:svg="http://www.w3.org/2000/svg"
   xmlns="http://www.w3.org/2000/svg"
   xmlns:sodipodi="http://sodipodi.sourceforge.net/DTD/sodipodi-0.dtd"
   xmlns:inkscape="http://www.inkscape.org/namespaces/inkscape"
   width="100.0mm"
   height="100.0mm"
   viewBox="0 0 100.0 100.0"
   version="1.1"
   id="svg4943"
   sodipodi:docname="pumpkin.svg"
   inkscape:version="0.92.5 (2060ec1f9f, 2020-04-08)">
  <defs
     id="defs4937" />
  <sodipodi:namedview
     id="base"
     pagecolor="#ffffff"
     bordercolor="#666666"
     borderopacity="1.0"
     inkscape:pageopacity="0.0"
     inkscape:pageshadow="2"
     inkscape:zoom="1.8101934"
     inkscape:cx="83.924149"
     inkscape:cy="161.62469"
     inkscape:document-units="mm"
     inkscape:current-layer="g5149"
     showgrid="true"
     inkscape:window-width="1920"
     inkscape:window-height="1016"
     inkscape:window-x="0"
     inkscape:window-y="27"
     inkscape:window-maximized="1"
     borderlayer="true">
    <inkscape:grid
       spacingx="2.54"
       spacingy="2.54"
       empspacing="1"
       type="xygrid"
       units="mm"
       id="grid4946" />
  </sodipodi:namedview>
  <metadata
     id="metadata4940">
    <rdf:RDF>
      <cc:Work
         rdf:about="">
        <dc:format>image/svg+xml</dc:format>
        <dc:type
           rdf:resource="http://purl.org/dc/dcmitype/StillImage" />
      </cc:Work>
    </rdf:RDF>
  </metadata>
  <g
     id="g4952"
     sodipodi:insensitive="true"
     inkscape:groupmode="layer"
     inkscape:label="[fixed] BG"
     style="display:none">
    <rect
       id="rect4950"
       style="fill:#ffffff;fill-opacity:1;stroke:none"
       height="100"
       width="100"
       y="0"
       x="0" />
  </g>
  <g
     id="g4954"
     inkscape:groupmode="layer"
     inkscape:label="F.Cu"
     style="display:none" />
  <g
     id="g4956"
     inkscape:groupmode="layer"
     inkscape:label="B.Cu-disabled"
     style="display:none" />
  <g
     id="g4958"
     inkscape:groupmode="layer"
     inkscape:label="B.Adhes-disabled"
     style="display:none" />
  <g
     id="g4960"
     inkscape:groupmode="layer"
     inkscape:label="F.Adhes-disabled"
     style="display:none" />
  <g
     id="g4962"
     inkscape:groupmode="layer"
     inkscape:label="B.Paste-disabled"
     style="display:none" />
  <g
     id="g4964"
     inkscape:groupmode="layer"
     inkscape:label="F.Paste-disabled"
     style="display:none" />
  <g
     id="g4966"
     inkscape:groupmode="layer"
     inkscape:label="B.SilkS-disabled"
     style="display:none" />
  <g
     id="g4968"
     inkscape:groupmode="layer"
     inkscape:label="F.SilkS-disabled"
     style="display:none" />
  <g
     id="g4970"
     inkscape:groupmode="layer"
     inkscape:label="B.Mask-disabled"
     style="display:none" />
  <g
     id="g4972"
     inkscape:groupmode="layer"
     inkscape:label="F.Mask-disabled"
     style="display:none" />
  <g
     id="g4974"
     inkscape:groupmode="layer"
     inkscape:label="Dwgs.User-disabled"
     style="display:none" />
  <g
     id="g4976"
     inkscape:groupmode="layer"
     inkscape:label="Cmts.User-disabled"
     style="display:none" />
  <g
     id="g4978"
     inkscape:groupmode="layer"
     inkscape:label="Eco1.User-disabled"
     style="display:none" />
  <g
     id="g4980"
     inkscape:groupmode="layer"
     inkscape:label="Eco2.User-disabled"
     style="display:none" />
  <g
     id="g4982"
     inkscape:groupmode="layer"
     inkscape:label="Edge.Cuts"
     style="display:inline">
    <g
       id="g5149">
      <g
         id="g5754"
         transform="translate(0.101907,-0.08755024)">
        <path
           style="fill:#000000;fill-opacity:1;stroke-width:0.17514972"
           d="m 53.852133,6.7738902 -0.402883,0.2625652 -0.380878,0.2809037 -0.359603,0.2986349 -0.339056,0.3157591 -0.319238,0.3322758 -0.300147,0.3481855 -0.281787,0.3634878 -0.264154,0.3781829 -0.24725,0.3922708 -0.231075,0.4057511 -0.215628,0.418625 -0.200911,0.430891 -0.186921,0.44255 -0.17366,0.453602 -0.310453,0.93793 -0.266153,0.974849 -0.227684,1.006912 -0.195042,1.034116 -0.16823,1.056463 -0.147247,1.073951 -0.132093,1.086581 -0.24204,2.191624 -1.205996,-0.345063 -1.190472,-0.30762 -1.174858,-0.270764 -1.159153,-0.234495 -1.143358,-0.198814 -1.127473,-0.16372 -1.111497,-0.129214 -1.095431,-0.09529 -1.079274,-0.06196 -1.063028,-0.02922 -1.046691,0.0029 -1.030263,0.03451 -1.013746,0.06549 -0.997137,0.09589 -0.980439,0.125694 -0.963651,0.154914 -0.946771,0.183548 -0.929802,0.211593 -0.912742,0.239051 -0.895593,0.265923 -0.878352,0.292206 -0.861021,0.317903 -0.8436,0.343011 -0.826089,0.367534 -0.808487,0.391467 -0.790795,0.414815 -0.773012,0.437574 -0.75514,0.459746 -0.737177,0.481331 -0.719124,0.502329 -0.70098,0.522739 -0.682745,0.542562 -0.664422,0.561797 -0.646006,0.580446 -0.627502,0.598506 -0.608906,0.61598 -0.590221,0.632866 -0.571444,0.649165 -0.552578,0.664876 -0.533622,0.68 -0.514574,0.694537 -0.495437,0.708487 -0.47621,0.721848 -0.456891,0.734624 -0.437483,0.74681 -0.417984,0.758411 -0.3983953,0.769423 -0.3787158,0.779849 -0.3589461,0.789687 -0.3390861,0.798937 -0.3191357,0.807601 -0.299095,0.815676 -0.278964,0.823165 -0.2587426,0.830067 -0.2384309,0.83638 -0.2180289,0.842107 -0.1975366,0.847246 -0.1769538,0.851798 -0.1562808,0.855762 -0.1355174,0.85914 -0.1146638,0.86193 -0.09372,0.864132 -0.072685,0.865747 -0.051561,0.866775 -0.030346,0.867215 -0.00904,0.867069 0.012355,0.866334 0.033842,0.865012 0.055418,0.863104 0.077085,0.860608 0.098841,0.857523 0.1206889,0.853853 0.1426266,0.849595 0.1646546,0.844749 0.1867729,0.839316 0.2089817,0.833295 0.2312806,0.826688 0.25367,0.819493 0.2761498,0.81171 0.2987197,0.80334 0.3213801,0.794384 0.3441307,0.784839 0.3669718,0.774707 0.3899032,0.763989 0.4129252,0.752681 0.436037,0.740788 0.459239,0.728307 0.482532,0.715238 0.505915,0.701582 0.529388,0.68734 0.552952,0.672508 0.576606,0.657091 0.60035,0.641085 0.624185,0.624493 0.64811,0.607313 0.672125,0.589546 0.696231,0.571191 0.720427,0.552249 0.744714,0.53272 0.76909,0.512603 0.793557,0.491899 0.818114,0.470608 0.842762,0.448729 0.8675,0.426263 0.892329,0.403209 0.917247,0.379569 0.942256,0.355341 0.967356,0.330525 0.992545,0.305123 1.017825,0.279132 1.043196,0.252555 1.068656,0.225391 1.094207,0.197638 1.119848,0.169298 1.145581,0.140372 1.171402,0.110857 1.197314,0.08076 1.223318,0.05007 1.24941,0.01879 1.275593,-0.01307 1.301868,-0.04552 1.328231,-0.07856 1.354685,-0.112187 1.381231,-0.146401 1.407865,-0.181201 1.434591,-0.216588 1.461406,-0.252564 1.488312,-0.289126 1.315118,0.376799 1.295768,0.339955 1.276399,0.303672 1.257014,0.267951 1.237608,0.23279 1.218187,0.198192 1.198745,0.164154 1.179287,0.130679 1.15981,0.09776 1.140314,0.06541 1.120802,0.03362 1.10127,0.0024 1.08172,-0.02828 1.062153,-0.05839 1.042567,-0.08793 1.022964,-0.116915 1.003341,-0.145337 0.983701,-0.173199 0.964043,-0.200499 0.944366,-0.227237 0.924672,-0.253414 0.90496,-0.27903 0.885228,-0.304084 0.86548,-0.328576 0.845712,-0.352507 0.825927,-0.375878 0.806124,-0.398685 0.786303,-0.420932 0.766463,-0.442618 0.746605,-0.463742 0.72673,-0.484304 0.706835,-0.504305 0.686924,-0.523745 0.666993,-0.542623 0.647045,-0.56094 0.627078,-0.578695 0.607094,-0.595889 0.587091,-0.612521 0.56707,-0.628592 0.547031,-0.644102 0.526974,-0.65905 0.506899,-0.673436 0.486805,-0.687262 0.466694,-0.700525 0.446564,-0.713228 0.426416,-0.725368 0.406251,-0.736948 0.386066,-0.747965 0.365864,-0.758423 0.345644,-0.768317 0.325405,-0.777651 0.305149,-0.786423 0.284875,-0.794634 0.264581,-0.802283 0.24427,-0.809371 0.223942,-0.815897 0.203594,-0.821862 0.183229,-0.827266 0.162845,-0.832108 0.142444,-0.836388 0.122024,-0.840108 0.101586,-0.843265 0.08113,-0.845862 0.06066,-0.847896 0.04016,-0.84937 0.01965,-0.850282 -8.75e-4,-0.850632 -0.02142,-0.850422 -0.04199,-0.849649 -0.06257,-0.848315 -0.08317,-0.84642 -0.10379,-0.843963 -0.124427,-0.840945 -0.145082,-0.837365 -0.165756,-0.833224 -0.186448,-0.828522 -0.207157,-0.823258 -0.227886,-0.817432 -0.248631,-0.811046 -0.269396,-0.804097 -0.290178,-0.796588 -0.310979,-0.788516 -0.331797,-0.779884 -0.352634,-0.77069 -0.373488,-0.760934 -0.394362,-0.750618 -0.415253,-0.739739 -0.436162,-0.728299 -0.457089,-0.716298 -0.478035,-0.703735 -0.498999,-0.690611 -0.51998,-0.676925 -0.540981,-0.662679 -0.561998,-0.647869 -0.583034,-0.6325 -0.604089,-0.616569 -0.625161,-0.600075 -0.646252,-0.583022 -0.66736,-0.565405 -0.688488,-0.547229 -0.709632,-0.52849 -0.730795,-0.50919 -0.751976,-0.489328 -0.773176,-0.468905 -0.794393,-0.447921 -0.815629,-0.426375 -0.836883,-0.404268 -0.858154,-0.381599 -0.879444,-0.358369 -0.900753,-0.334578 -0.922078,-0.310224 -0.943424,-0.28531 -0.964785,-0.259834 -0.986166,-0.233796 -1.007565,-0.207198 -1.028982,-0.180037 -1.050417,-0.152316 -1.07187,-0.124032 -1.093341,-0.09519 -1.114831,-0.06578 -1.136338,-0.03581 -1.157864,-0.0053 -1.179408,0.0258 -1.200969,0.05746 -1.22255,0.08967 -1.244148,0.122445 -1.265764,0.155781 -1.287399,0.189679 -0.159719,-1.167635 -0.09573,-1.090117 -0.02389,-0.517584 -0.0079,-0.500117 0.008,-0.483287 0.02398,-0.467097 0.03992,-0.451543 0.05585,-0.436626 0.07177,-0.422348 0.08769,-0.408707 0.103587,-0.395704 0.119479,-0.383338 0.135362,-0.37161 0.151235,-0.36052 0.167099,-0.350066 0.182952,-0.340252 0.198798,-0.331074 0.214632,-0.322534 0.230457,-0.314631 0.246273,-0.307367 0.26208,-0.30074 0.277876,-0.29475 0.603105,-0.574082 0.666178,-0.557776 0.729175,-0.54657 0.792094,-0.5404652 -7.00599,-2.3354406 -3.43e-4,-0.00171"
           id="path4677-6"
           inkscape:connector-curvature="0" />
      </g>
      <path
         inkscape:connector-curvature="0"
         id="path4677"
         sodipodi:nodetypes="ccccc"
         style="fill:#784421;stroke-width:0.17819065"
         d="m -30.227536,21.689111 c -5.584496,3.414314 -5.073802,11.907948 -6.236674,19.007598 l 9.503443,1.48491 c -3.054188,-10.734203 -1.728449,-14.455531 3.861392,-18.114855 l -7.127627,-2.375824 z" />
      <g
         transform="matrix(0.17819067,0,0,0.17819067,-101.20623,13.076619)"
         id="g5281">
        <path
           inkscape:connector-curvature="0"
           id="path5279"
           sodipodi:nodetypes="cccc"
           style="fill:#a05a2c"
           d="m 400.5,55.5 c -20.442,-0.68026 -34.517,73.254 -30,91.5 l 37,3 c -4.6318,-58.973 -37.772,-25.071 -7,-94.5 z" />
      </g>
      <path
         inkscape:connector-curvature="0"
         id="path4675"
         sodipodi:nodetypes="ccc"
         style="fill:#ff6600;stroke-width:0.17819065"
         d="M -32.882576,37.433504 C 28.25108,22.853404 25.81165,114.74687 -33.22114,97.12739 -99.643494,110.73224 -88.205434,17.185696 -32.882576,37.433504 Z" />
      <path
         inkscape:connector-curvature="0"
         id="path5189"
         sodipodi:nodetypes="ccc"
         style="fill:#d45500;stroke-width:0.17819065"
         d="M -56.353853,38.907142 C -74.055314,48.50449 -77.27522,77.112995 -65.59482,90.300894 -82.710034,78.652569 -79.625554,42.980579 -56.353853,38.907142 Z" />
      <path
         inkscape:connector-curvature="0"
         id="path5189-0"
         sodipodi:nodetypes="ccc"
         style="fill:#d45500;stroke-width:0.17819065"
         d="M -44.149574,38.465229 C -66.949069,56.590785 -59.801843,78.148284 -53.828891,95.13165 -67.843586,80.008606 -76.010065,52.011282 -44.149574,38.465229 Z" />
      <path
         inkscape:connector-curvature="0"
         id="path5189-0-4"
         sodipodi:nodetypes="ccc"
         style="fill:#d45500;stroke-width:0.17819065"
         d="M -30.505514,38.645197 C -12.137619,57.830986 -8.144369,80.625145 -19.088303,95.6092 -1.715422,90.745302 -2.829648,56.72086 -30.505514,38.645197 Z" />
      <path
         inkscape:connector-curvature="0"
         id="path5189-0-4-3"
         sodipodi:nodetypes="ccc"
         style="fill:#d45500;stroke-width:0.17819065"
         d="M -17.882486,37.75425 C 7.044607,56.877673 4.129405,79.399193 -6.106759,93.82729 10.943597,79.39224 16.6571,55.421849 -17.882486,37.75425 Z" />
      <path
         inkscape:connector-curvature="0"
         id="path5189-2"
         sodipodi:nodetypes="ccc"
         style="fill:#d45500;stroke-width:0.17819065"
         d="M -38.1,41.580001 C -42.437161,62.462162 -42.093253,81.863563 -40.509138,95.34903 -46.04374,81.920593 -48.600776,68.818228 -38.1,41.580001 Z" />
    </g>
  </g>
  <g
     id="g4984"
     inkscape:groupmode="layer"
     inkscape:label="Margin-disabled"
     style="display:none" />
  <g
     id="g4986"
     inkscape:groupmode="layer"
     inkscape:label="B.CrtYd-disabled"
     style="display:none" />
  <g
     id="g4988"
     inkscape:groupmode="layer"
     inkscape:label="F.CrtYd-disabled"
     style="display:none" />
  <g
     id="g4990"
     inkscape:groupmode="layer"
     inkscape:label="B.Fab-disabled"
     style="display:none" />
  <g
     id="g4992"
     inkscape:groupmode="layer"
     inkscape:label="F.Fab-disabled"
     style="display:none" />
  <g
     id="g4994"
     inkscape:groupmode="layer"
     inkscape:label="Drill"
     style="display:none" />
</svg>
