<?xml version="1.0" encoding="UTF-8" standalone="no"?>
<!-- Created with Inkscape (http://www.inkscape.org/) -->

<svg
   xmlns:dc="http://purl.org/dc/elements/1.1/"
   xmlns:cc="http://creativecommons.org/ns#"
   xmlns:rdf="http://www.w3.org/1999/02/22-rdf-syntax-ns#"
   xmlns:svg="http://www.w3.org/2000/svg"
   xmlns="http://www.w3.org/2000/svg"
   xmlns:sodipodi="http://sodipodi.sourceforge.net/DTD/sodipodi-0.dtd"
   xmlns:inkscape="http://www.inkscape.org/namespaces/inkscape"
   width="100.0mm"
   height="100.0mm"
   viewBox="0 0 100.0 100.0"
   version="1.1"
   id="svg4943"
   sodipodi:docname="pumpkin-outline.svg"
   inkscape:version="0.92.5 (2060ec1f9f, 2020-04-08)">
  <defs
     id="defs4937" />
  <sodipodi:namedview
     id="base"
     pagecolor="#ffffff"
     bordercolor="#666666"
     borderopacity="1.0"
     inkscape:pageopacity="0.0"
     inkscape:pageshadow="2"
     inkscape:zoom="1.8101934"
     inkscape:cx="159.23575"
     inkscape:cy="161.83291"
     inkscape:document-units="mm"
     inkscape:current-layer="g4982"
     showgrid="true"
     inkscape:window-width="1920"
     inkscape:window-height="1016"
     inkscape:window-x="0"
     inkscape:window-y="27"
     inkscape:window-maximized="1"
     borderlayer="true">
    <inkscape:grid
       id="grid4946"
       units="mm"
       type="xygrid"
       empspacing="1"
       spacingy="2.54"
       spacingx="2.54" />
  </sodipodi:namedview>
  <metadata
     id="metadata4940">
    <rdf:RDF>
      <cc:Work
         rdf:about="">
        <dc:format>image/svg+xml</dc:format>
        <dc:type
           rdf:resource="http://purl.org/dc/dcmitype/StillImage" />
        <dc:title />
      </cc:Work>
    </rdf:RDF>
  </metadata>
  <g
     id="g4952"
     sodipodi:insensitive="true"
     inkscape:groupmode="layer"
     inkscape:label="[fixed] BG"
     style="display:none">
    <rect
       id="rect4950"
       style="fill:#ffffff;fill-opacity:1;stroke:none"
       height="100"
       width="100"
       y="0"
       x="0" />
  </g>
  <g
     id="g4954"
     inkscape:groupmode="layer"
     inkscape:label="F.Cu"
     style="display:inline" />
  <g
     id="g4956"
     inkscape:groupmode="layer"
     inkscape:label="B.Cu-disabled"
     style="display:none" />
  <g
     id="g4958"
     inkscape:groupmode="layer"
     inkscape:label="B.Adhes-disabled"
     style="display:none" />
  <g
     id="g4960"
     inkscape:groupmode="layer"
     inkscape:label="F.Adhes-disabled"
     style="display:none" />
  <g
     id="g4962"
     inkscape:groupmode="layer"
     inkscape:label="B.Paste-disabled"
     style="display:none" />
  <g
     id="g4964"
     inkscape:groupmode="layer"
     inkscape:label="F.Paste-disabled"
     style="display:none" />
  <g
     id="g4966"
     inkscape:groupmode="layer"
     inkscape:label="B.SilkS-disabled"
     style="display:none" />
  <g
     id="g4968"
     inkscape:groupmode="layer"
     inkscape:label="F.SilkS-disabled"
     style="display:none" />
  <g
     id="g4970"
     inkscape:groupmode="layer"
     inkscape:label="B.Mask-disabled"
     style="display:none" />
  <g
     id="g4972"
     inkscape:groupmode="layer"
     inkscape:label="F.Mask-disabled"
     style="display:none" />
  <g
     id="g4974"
     inkscape:groupmode="layer"
     inkscape:label="Dwgs.User-disabled"
     style="display:none" />
  <g
     id="g4976"
     inkscape:groupmode="layer"
     inkscape:label="Cmts.User-disabled"
     style="display:none" />
  <g
     id="g4978"
     inkscape:groupmode="layer"
     inkscape:label="Eco1.User-disabled"
     style="display:none" />
  <g
     id="g4980"
     inkscape:groupmode="layer"
     inkscape:label="Eco2.User-disabled"
     style="display:none" />
  <g
     id="g4982"
     inkscape:groupmode="layer"
     inkscape:label="Edge.Cuts"
     style="display:inline">
    <path
       transform="scale(0.26458333)"
       inkscape:connector-curvature="0"
       id="path4677"
       d="m 197.82812,25.089844 -0.80345,0.50728 -0.78147,0.525603 -0.75983,0.543626 -0.73856,0.561353 -0.71765,0.57878 -0.69709,0.595909 -0.67689,0.61274 -0.65704,0.629273 -0.63757,0.645508 -0.61844,0.661444 -0.59967,0.677083 -0.58126,0.692422 -0.56321,0.707464 -0.54552,0.722208 -0.52818,0.736654 -0.51121,0.7508 -0.49458,0.764649 -0.47833,0.7782 -0.46242,0.791453 -0.44687,0.804406 -0.43169,0.817063 -0.41686,0.829421 -0.40239,0.84148 -0.38827,0.853241 -0.37452,0.864705 -0.36112,0.87587 -0.34808,0.886736 -0.33539,0.897305 -0.63419,1.825123 -0.58775,1.863818 -0.54419,1.900127 -0.50348,1.934052 -0.46564,1.96559 -0.43067,1.994742 -0.39856,2.021509 -0.36931,2.04589 -0.34292,2.067885 -0.31941,2.087495 -0.29874,2.104718 -0.28096,2.119556 -0.51999,4.274084 -0.48319,4.304807 -0.46929,4.316443 -2.37943,-0.69704 -2.36421,-0.659933 -2.34895,-0.623115 -2.33363,-0.586584 -2.31828,-0.550344 -2.30289,-0.514391 -2.28743,-0.478727 -2.27195,-0.443353 -2.25642,-0.408267 -2.24084,-0.373469 -2.22522,-0.338961 -2.20956,-0.304742 -2.19384,-0.27081 -2.17809,-0.237169 -2.16229,-0.203815 -2.14645,-0.170751 -2.13056,-0.137974 -2.11463,-0.105488 -2.09865,-0.07329 -2.08264,-0.04138 -2.06656,-0.0098 -2.05046,0.02157 -2.0343,0.05262 -2.01811,0.08337 -2.00186,0.113835 -1.98557,0.144012 -1.96924,0.1739 -1.95287,0.203499 -1.93644,0.232809 -1.91998,0.261831 -1.90347,0.290564 -1.88692,0.319008 -1.87032,0.347163 -1.85368,0.37503 -1.83699,0.402607 -1.82025,0.429896 -1.803485,0.456897 -1.786661,0.483608 -1.769797,0.51003 -1.752888,0.536165 -1.735934,0.562009 -1.718936,0.587566 -1.701894,0.612833 -1.684807,0.637812 -1.667675,0.662502 -1.6505,0.686903 -1.63328,0.711015 -1.616016,0.734839 -1.598707,0.758374 -1.581353,0.781619 -1.563956,0.804577 -1.546514,0.827246 -1.529027,0.849625 -1.511496,0.871716 -1.493921,0.893519 -1.476301,0.915031 -1.458637,0.936257 -1.440929,0.957192 -1.423175,0.977839 -1.405378,0.998197 -1.387536,1.018267 -1.36965,1.038047 -1.351719,1.05754 -1.333744,1.076735 -1.315724,1.09566 -1.297661,1.11428 -1.279552,1.13262 -1.2614,1.15067 -1.243202,1.16843 -1.224961,1.18589 -1.206675,1.20308 -1.188345,1.21997 -1.169969,1.23658 -1.151551,1.25289 -1.133087,1.26892 -1.114578,1.28465 -1.096027,1.30011 -1.077429,1.31526 -1.058788,1.33014 -1.040103,1.34472 -1.021372,1.35901 -1.002597,1.37302 -0.983779,1.38673 -0.964916,1.40016 -0.946007,1.4133 -0.927056,1.42615 -0.908058,1.43871 -0.889018,1.45099 -0.869932,1.46296 -0.850803,1.47467 -0.831628,1.48606 -0.812409,1.49719 -0.793147,1.50801 -0.773838,1.51856 -0.754487,1.5288 -0.735091,1.53877 -0.71565,1.54844 -0.696164,1.55783 -0.676635,1.56692 -0.657061,1.57572 -0.637443,1.58425 -0.61778,1.59248 -0.598072,1.60041 -0.578321,1.60807 -0.558525,1.61543 -0.538684,1.62251 -0.518799,1.62929 -0.49887,1.63579 -0.478897,1.642 -0.458878,1.64791 -0.438815,1.65355 -0.418709,1.65889 -0.398557,1.66394 -0.378361,1.6687 -0.358122,1.67318 -0.337836,1.67737 -0.317507,1.68127 -0.297134,1.68487 -0.276717,1.6882 -0.256253,1.69122 -0.235747,1.69397 -0.215196,1.69642 -0.194601,1.69859 -0.17396,1.70046 -0.153276,1.70206 -0.132548,1.70335 -0.111774,1.70436 -0.09096,1.70508 -0.0701,1.70551 -0.04919,1.70566 -0.028237,1.70551 -0.00724,1.70508 0.013798,1.70436 0.034882,1.70334 0.05601,1.70205 0.07718,1.70045 0.0984,1.69858 0.119662,1.69641 0.140969,1.69396 0.162319,1.69121 0.183714,1.68818 0.205154,1.68486 0.226638,1.68124 0.248165,1.67735 0.269739,1.67316 0.291355,1.66869 0.313017,1.66391 0.334723,1.65887 0.356474,1.65352 0.378267,1.64788 0.400108,1.64197 0.42199,1.63576 0.443919,1.62926 0.465891,1.62247 0.487908,1.6154 0.509969,1.60803 0.532075,1.60038 0.554225,1.59244 0.576419,1.5842 0.598658,1.57569 0.620941,1.56688 0.64327,1.55778 0.665641,1.54839 0.688058,1.53872 0.710518,1.52876 0.733025,1.5185 0.755574,1.50797 0.778168,1.49713 0.800806,1.48601 0.82349,1.47461 0.846217,1.46291 0.868989,1.45093 0.891806,1.43865 0.914666,1.42609 0.937571,1.41324 0.960521,1.40009 0.983514,1.38667 1.006553,1.37295 1.029636,1.35895 1.052763,1.34465 1.075934,1.33006 1.099151,1.31519 1.122411,1.30003 1.145715,1.28458 1.169065,1.26884 1.192459,1.25282 1.215897,1.23649 1.239379,1.2199 1.262906,1.20299 1.286477,1.18582 1.310093,1.16834 1.333754,1.15058 1.357458,1.13253 1.381206,1.11419 1.405001,1.09557 1.428838,1.07665 1.45272,1.05745 1.476647,1.03795 1.500618,1.01817 1.524633,0.9981 1.548694,0.97774 1.572797,0.95709 1.596947,0.93616 1.621139,0.91493 1.645377,0.89341 1.669659,0.87161 1.693985,0.84952 1.718356,0.82714 1.742772,0.80446 1.76723,0.78151 1.791735,0.75826 1.816284,0.73473 1.840876,0.7109 1.865513,0.68679 1.890196,0.66238 1.914921,0.63769 1.939692,0.61271 1.964506,0.58745 1.989367,0.56188 2.014269,0.53604 2.039218,0.50991 2.064215,0.48348 2.08925,0.45677 2.11433,0.42976 2.13945,0.40248 2.16463,0.37489 2.18984,0.34703 2.2151,0.31887 2.2404,0.29043 2.26575,0.26169 2.29114,0.23267 2.31658,0.20336 2.34206,0.17375 2.36759,0.14387 2.39315,0.11369 2.41877,0.0832 2.44443,0.0525 2.47013,0.0214 2.49588,-0.01 2.52168,-0.0415 2.5475,-0.0734 2.57339,-0.10564 2.59932,-0.13813 2.62528,-0.17091 2.6513,-0.20397 2.67736,-0.23733 2.70346,-0.27098 2.72961,-0.3049 2.7558,-0.33913 2.78203,-0.37364 2.80832,-0.40843 2.83464,-0.44352 2.86101,-0.4789 2.88742,-0.51456 2.91388,-0.55052 2.94039,-0.58676 2.59605,0.75933 2.57704,0.72283 2.558,0.68659 2.53897,0.65064 2.51992,0.61496 2.50086,0.57955 2.4818,0.54443 2.46273,0.50957 2.44365,0.475 2.42455,0.4407 2.40546,0.40668 2.38634,0.37292 2.36723,0.33946 2.3481,0.30626 2.32897,0.27334 2.30982,0.2407 2.29067,0.20833 2.2715,0.17624 2.25234,0.14442 2.23315,0.11288 2.21397,0.0816 2.19476,0.0506 2.17556,0.0199 2.15635,-0.0105 2.13712,-0.0407 2.11789,-0.0705 2.09864,-0.10016 2.07939,-0.12949 2.06013,-0.15855 2.04087,-0.18732 2.02158,-0.21583 2.0023,-0.24405 1.983,-0.27201 1.9637,-0.29968 1.94438,-0.32707 1.92506,-0.3542 1.90573,-0.38105 1.88638,-0.40761 1.86704,-0.43391 1.84768,-0.45993 1.82831,-0.48566 1.80894,-0.51114 1.78955,-0.53632 1.77016,-0.56124 1.75075,-0.58588 1.73134,-0.61024 1.71192,-0.63432 1.6925,-0.65813 1.67305,-0.68167 1.6536,-0.70492 1.63415,-0.72791 1.61469,-0.75061 1.5952,-0.77304 1.57573,-0.7952 1.55623,-0.81707 1.53674,-0.83867 1.51722,-0.85999 1.4977,-0.88105 1.47818,-0.90182 1.45864,-0.92231 1.43909,-0.94254 1.41954,-0.96248 1.39998,-0.98215 1.3804,-1.00155 1.36082,-1.02065 1.34123,-1.0395 1.32164,-1.05807 1.30202,-1.07635 1.28241,-1.09437 1.26278,-1.1121 1.24315,-1.12956 1.2235,-1.14675 1.20385,-1.16365 1.18419,-1.18029 1.16452,-1.19664 1.14484,-1.21272 1.12515,-1.22853 1.10545,-1.24405 1.08575,-1.25931 1.06603,-1.27428 1.04631,-1.28898 1.02658,-1.30341 1.00683,-1.31755 0.98709,-1.33142 0.96732,-1.34502 0.94756,-1.35834 0.92778,-1.37139 0.90799,-1.38415 0.8882,-1.39664 0.86839,-1.40885 0.84858,-1.4208 0.82876,-1.43246 0.80892,-1.44384 0.78909,-1.45496 0.76924,-1.46579 0.74938,-1.47635 0.72951,-1.48664 0.70964,-1.49664 0.68976,-1.50637 0.66986,-1.51582 0.64996,-1.52501 0.63004,-1.5339 0.61013,-1.54253 0.5902,-1.55089 0.57026,-1.55896 0.55032,-1.56675 0.53036,-1.57428 0.51039,-1.58152 0.49042,-1.5885 0.47044,-1.59519 0.45044,-1.6016 0.43045,-1.60775 0.41044,-1.61362 0.39042,-1.6192 0.37039,-1.62452 0.35036,-1.62955 0.33031,-1.63432 0.31026,-1.63881 0.29019,-1.64301 0.27012,-1.64694 0.25005,-1.65061 0.22995,-1.65398 0.20986,-1.65709 0.18974,-1.65992 0.16964,-1.66248 0.1495,-1.66475 0.12938,-1.66675 0.10923,-1.66847 0.0891,-1.66993 0.0689,-1.6711 0.0488,-1.67199 0.0286,-1.67262 0.008,-1.67296 -0.0118,-1.67303 -0.032,-1.67282 -0.0522,-1.67234 -0.0725,-1.67158 -0.0927,-1.67054 -0.11293,-1.66923 -0.13318,-1.66765 -0.15344,-1.66578 -0.17371,-1.66364 -0.19398,-1.66122 -0.21427,-1.65854 -0.23456,-1.65556 -0.25487,-1.65232 -0.27517,-1.6488 -0.2955,-1.64501 -0.31583,-1.64093 -0.33617,-1.63659 -0.35652,-1.63196 -0.37687,-1.62706 -0.39724,-1.62188 -0.41761,-1.61643 -0.438,-1.61071 -0.45839,-1.6047 -0.47879,-1.59841 -0.4992,-1.59187 -0.51962,-1.58502 -0.54005,-1.57792 -0.56049,-1.57054 -0.58093,-1.56287 -0.60139,-1.55494 -0.62185,-1.54672 -0.64232,-1.53824 -0.6628,-1.52947 -0.6833,-1.52043 -0.70379,-1.51111 -0.72431,-1.50152 -0.74482,-1.49165 -0.76534,-1.4815 -0.78589,-1.47109 -0.80642,-1.46038 -0.82698,-1.44941 -0.84754,-1.43816 -0.86811,-1.42664 -0.88869,-1.41483 -0.90928,-1.40276 -0.92988,-1.3904 -0.95048,-1.37778 -0.9711,-1.36486 -0.99173,-1.35169 -1.01235,-1.33822 -1.033,-1.3245 -1.05365,-1.31048 -1.07431,-1.2962 -1.09498,-1.28163 -1.11565,-1.2668 -1.13634,-1.25168 -1.15704,-1.23629 -1.17774,-1.22062 -1.19846,-1.20468 -1.21918,-1.18847 -1.23991,-1.17197 -1.26065,-1.15519 -1.2814,-1.13815 -1.30215,-1.12083 -1.32292,-1.10323 -1.3437,-1.08536 -1.36449,-1.0672 -1.38528,-1.04878 -1.40608,-1.03007 -1.42689,-1.01109 -1.44771,-0.99184 -1.46854,-0.972305 -1.48938,-0.9525 -1.51023,-0.932416 -1.53108,-0.912057 -1.55194,-0.891422 -1.57283,-0.870509 -1.5937,-0.849323 -1.6146,-0.827858 -1.63549,-0.806119 -1.65641,-0.784103 -1.67732,-0.761811 -1.69825,-0.739243 -1.71919,-0.716399 -1.74013,-0.693279 -1.76109,-0.669883 -1.78205,-0.646211 -1.80302,-0.622263 -1.824,-0.598038 -1.845,-0.573538 -1.86599,-0.548762 -1.887,-0.523709 -1.90801,-0.498381 -1.92904,-0.472776 -1.95008,-0.446896 -1.97111,-0.420738 -1.99218,-0.394307 -2.01323,-0.367597 -2.0343,-0.340613 -2.05538,-0.313351 -2.07647,-0.285815 -2.09756,-0.258002 -2.11867,-0.229913 -2.13978,-0.201547 -2.16091,-0.172907 -2.18204,-0.143989 -2.20318,-0.114796 -2.22434,-0.08533 -2.24549,-0.05558 -2.26666,-0.02556 -2.28783,0.0047 -2.30902,0.03531 -2.33022,0.06616 -2.35142,0.09729 -2.37263,0.128688 -2.39386,0.160366 -2.41508,0.192321 -2.43633,0.22455 -2.45757,0.257055 -2.47883,0.289838 -2.50009,0.322896 -2.52138,0.356231 -2.54265,0.38984 -0.34565,-2.335913 -0.28269,-2.257174 -0.21977,-2.180945 -0.15689,-2.107223 -0.094,-2.03601 -0.0235,-0.992083 -0.008,-0.97522 0.008,-0.958671 0.0236,-0.942435 0.0393,-0.926512 0.055,-0.910903 0.0707,-0.895608 0.0863,-0.880626 0.10199,-0.865957 0.11764,-0.851602 0.13331,-0.837561 0.14895,-0.823832 0.1646,-0.810419 0.18025,-0.797317 0.19588,-0.784529 0.21151,-0.772056 0.22714,-0.759895 0.24277,-0.748048 0.25838,-0.736514 0.274,-0.725294 0.28961,-0.714388 0.30522,-0.703794 0.32081,-0.693515 0.33641,-0.683549 0.352,-0.673897 0.36759,-0.664557 0.38317,-0.655532 0.39875,-0.646819 0.41432,-0.638421 0.42989,-0.630336 0.44545,-0.622564 0.46101,-0.615106 0.47656,-0.607961 0.49212,-0.601131 0.50766,-0.594612 0.5232,-0.588409 0.53873,-0.582518 0.55427,-0.57694 1.15511,-1.138404 1.21717,-1.119857 1.27921,-1.103819 1.3412,-1.090288 1.40316,-1.079265 1.46508,-1.07075 1.52697,-1.064743 1.58881,-1.061244 -27.55859,-9.185547 -0.002,-0.0059"
       style="display:inline;fill:#000000;stroke-width:0.68896234" />
  </g>
  <g
     id="g4984"
     inkscape:groupmode="layer"
     inkscape:label="Margin-disabled"
     style="display:none" />
  <g
     id="g4986"
     inkscape:groupmode="layer"
     inkscape:label="B.CrtYd-disabled"
     style="display:none" />
  <g
     id="g4988"
     inkscape:groupmode="layer"
     inkscape:label="F.CrtYd-disabled"
     style="display:none" />
  <g
     id="g4990"
     inkscape:groupmode="layer"
     inkscape:label="B.Fab-disabled"
     style="display:none" />
  <g
     id="g4992"
     inkscape:groupmode="layer"
     inkscape:label="F.Fab-disabled"
     style="display:none" />
  <g
     id="g4994"
     inkscape:groupmode="layer"
     inkscape:label="Drill"
     style="display:none" />
</svg>
