<?xml version="1.0" encoding="UTF-8" standalone="no"?>
<!-- Created with Inkscape (http://www.inkscape.org/) -->

<svg
   xmlns:dc="http://purl.org/dc/elements/1.1/"
   xmlns:cc="http://creativecommons.org/ns#"
   xmlns:rdf="http://www.w3.org/1999/02/22-rdf-syntax-ns#"
   xmlns:svg="http://www.w3.org/2000/svg"
   xmlns="http://www.w3.org/2000/svg"
   xmlns:sodipodi="http://sodipodi.sourceforge.net/DTD/sodipodi-0.dtd"
   xmlns:inkscape="http://www.inkscape.org/namespaces/inkscape"
   inkscape:version="0.92.5 (2060ec1f9f, 2020-04-08)"
   sodipodi:docname="pumpkin25_.svg"
   id="svg4943"
   version="1.1"
   viewBox="0 0 100.0 100.0"
   height="100.0mm"
   width="100.0mm">
  <defs
     id="defs4937" />
  <sodipodi:namedview
     id="base"
     pagecolor="#ffffff"
     bordercolor="#666666"
     borderopacity="1.0"
     inkscape:pageopacity="0.0"
     inkscape:pageshadow="2"
     inkscape:zoom="10.108553"
     inkscape:cx="170.74087"
     inkscape:cy="202.26568"
     inkscape:document-units="mm"
     inkscape:current-layer="g4982"
     showgrid="true"
     inkscape:window-width="1920"
     inkscape:window-height="1016"
     inkscape:window-x="0"
     inkscape:window-y="27"
     inkscape:window-maximized="1"
     borderlayer="true">
    <inkscape:grid
       id="grid4946"
       units="mm"
       type="xygrid"
       empspacing="1"
       spacingy="2.54"
       spacingx="2.54" />
  </sodipodi:namedview>
  <metadata
     id="metadata4940">
    <rdf:RDF>
      <cc:Work
         rdf:about="">
        <dc:format>image/svg+xml</dc:format>
        <dc:type
           rdf:resource="http://purl.org/dc/dcmitype/StillImage" />
        <dc:title />
      </cc:Work>
    </rdf:RDF>
  </metadata>
  <g
     id="g4952"
     sodipodi:insensitive="true"
     inkscape:groupmode="layer"
     inkscape:label="[fixed] BG"
     style="display:inline">
    <rect
       id="rect4950"
       style="fill:#ffffff;fill-opacity:1;stroke:none"
       height="100"
       width="100"
       y="0"
       x="0" />
  </g>
  <g
     id="g4954"
     inkscape:groupmode="layer"
     inkscape:label="F.Cu"
     style="display:inline">
    <g
       style="display:inline"
       id="g5149"
       transform="matrix(0.25,0,0,0.25,54.836053,31.405824)" />
  </g>
  <g
     id="g4956"
     inkscape:groupmode="layer"
     inkscape:label="B.Cu-disabled"
     style="display:inline" />
  <g
     id="g4958"
     inkscape:groupmode="layer"
     inkscape:label="B.Adhes-disabled"
     style="display:inline" />
  <g
     id="g4960"
     inkscape:groupmode="layer"
     inkscape:label="F.Adhes-disabled"
     style="display:inline" />
  <g
     id="g4962"
     inkscape:groupmode="layer"
     inkscape:label="B.Paste-disabled"
     style="display:inline" />
  <g
     id="g4964"
     inkscape:groupmode="layer"
     inkscape:label="F.Paste-disabled"
     style="display:inline" />
  <g
     id="g4966"
     inkscape:groupmode="layer"
     inkscape:label="B.SilkS-disabled"
     style="display:inline" />
  <g
     id="g4968"
     inkscape:groupmode="layer"
     inkscape:label="F.SilkS-disabled"
     style="display:inline" />
  <g
     id="g4970"
     inkscape:groupmode="layer"
     inkscape:label="B.Mask-disabled"
     style="display:inline" />
  <g
     id="g4972"
     inkscape:groupmode="layer"
     inkscape:label="F.Mask-disabled"
     style="display:inline" />
  <g
     id="g4974"
     inkscape:groupmode="layer"
     inkscape:label="Dwgs.User-disabled"
     style="display:inline" />
  <g
     id="g4976"
     inkscape:groupmode="layer"
     inkscape:label="Cmts.User-disabled"
     style="display:inline" />
  <g
     id="g4978"
     inkscape:groupmode="layer"
     inkscape:label="Eco1.User-disabled"
     style="display:inline" />
  <g
     id="g4980"
     inkscape:groupmode="layer"
     inkscape:label="Eco2.User-disabled"
     style="display:inline" />
  <g
     id="g4982"
     inkscape:groupmode="layer"
     inkscape:label="Edge.Cuts"
     style="display:inline">
    <g
       id="g4665">
      <path
         id="path4677"
         transform="scale(0.26458333)"
         style="display:inline;fill:#784421;stroke-width:0.16836911"
         d="m 178.69336,139.19336 -0.38743,0.25249 -0.36628,0.27013 -0.34583,0.28717 -0.32607,0.30363 -0.30702,0.31951 -0.28867,0.33482 -0.27101,0.34952 -0.25406,0.36365 -0.23781,0.3772 -0.22226,0.39016 -0.20741,0.40254 -0.19326,0.41433 -0.1798,0.42554 -0.16706,0.43617 -0.29866,0.90188 -0.25606,0.93739 -0.21906,0.96822 -0.18767,0.99439 -0.16188,1.01588 -0.14168,1.0327 -0.1271,1.04486 -0.23283,2.10751 -1.1592,-0.33153 -1.14427,-0.29554 -1.12927,-0.26012 -1.11417,-0.22526 -1.09899,-0.19097 -1.08372,-0.15724 -1.06837,-0.12408 -1.05292,-0.0915 -1.03739,-0.0594 -1.02177,-0.028 -1.00608,0.003 -0.99028,0.0333 -0.9744,0.063 -0.95844,0.0923 -0.94239,0.12091 -0.92626,0.14899 -0.91002,0.17651 -0.89372,0.20346 -0.87732,0.22985 -0.86083,0.25568 -0.84427,0.28094 -0.8276,0.30563 -0.81086,0.32976 -0.79403,0.35333 -0.7771,0.37634 -0.7601,0.39877 -0.74301,0.42064 -0.72583,0.44196 -0.70857,0.46269 -0.69121,0.48288 -0.67376,0.50249 -0.65625,0.52155 -0.63863,0.54002 -0.62092,0.55796 -0.60315,0.5753 -0.58526,0.59211 -0.56731,0.60832 -0.54926,0.624 -0.53112,0.63909 -0.5129,0.65363 -0.49459,0.66759 -0.4762,0.68101 -0.45772,0.69384 -0.43914,0.70612 -0.4205,0.71784 -0.40174,0.72898 -0.38292,0.73956 -0.36401,0.74958 -0.345,0.75904 -0.32591,0.76793 -0.30673,0.77625 -0.28747,0.78401 -0.26812,0.79121 -0.24868,0.79784 -0.22916,0.80391 -0.20954,0.80941 -0.18985,0.81434 -0.17007,0.81872 -0.15019,0.82253 -0.13024,0.82578 -0.11019,0.82846 -0.09,0.83057 -0.0698,0.83212 -0.0495,0.83311 -0.0291,0.83353 -0.009,0.83338 0.0119,0.83269 0.0326,0.83141 0.0533,0.82957 0.0741,0.82717 0.095,0.82421 0.11604,0.82068 0.13713,0.81658 0.15829,0.81193 0.17956,0.8067 0.20091,0.80092 0.22234,0.79456 0.24387,0.78765 0.26547,0.78017 0.28716,0.77212 0.30895,0.76351 0.33082,0.75433 0.35277,0.7446 0.37481,0.73429 0.39695,0.72343 0.41916,0.71199 0.44146,0.7 0.46385,0.68743 0.48633,0.67431 0.50889,0.66062 0.53154,0.64636 0.55428,0.63154 0.57711,0.61616 0.60001,0.60021 0.62301,0.5837 0.64609,0.56662 0.66927,0.54897 0.69253,0.53077 0.71587,0.512 0.7393,0.49267 0.76282,0.47276 0.78642,0.4523 0.81012,0.43127 0.83389,0.40967 0.85777,0.38752 0.88171,0.3648 0.90576,0.3415 0.92988,0.31766 0.95409,0.29324 0.97839,0.26826 1.00278,0.24271 1.02726,0.21661 1.05181,0.18993 1.07647,0.16269 1.10119,0.13489 1.12602,0.10652 1.15093,0.0776 1.17592,0.0481 1.201,0.018 1.22617,-0.0126 1.25142,-0.0438 1.27677,-0.0755 1.3022,-0.10786 1.32771,-0.14074 1.35331,-0.1742 1.37901,-0.2082 1.40478,-0.24279 1.43064,-0.27792 1.26411,0.36219 1.24551,0.32678 1.22689,0.29191 1.20826,0.25758 1.1896,0.2238 1.17093,0.19054 1.15224,0.15783 1.13354,0.12566 1.11481,0.094 1.09608,0.0629 1.07732,0.0324 1.05854,0.002 1.03975,-0.0271 1.02094,-0.056 1.00211,-0.0844 0.98327,-0.11229 0.9644,-0.1396 0.94553,-0.16637 0.92663,-0.19262 0.90772,-0.2183 0.88878,-0.24347 0.86984,-0.26808 0.85087,-0.29217 0.83188,-0.3157 0.81289,-0.3387 0.79387,-0.36116 0.77483,-0.38308 0.75578,-0.40446 0.73671,-0.4253 0.71762,-0.44561 0.69851,-0.46536 0.67939,-0.48459 0.66026,-0.50328 0.64109,-0.52141 0.62192,-0.53902 0.60273,-0.55609 0.58352,-0.57261 0.5643,-0.58859 0.54505,-0.60404 0.52578,-0.61895 0.50651,-0.63332 0.48721,-0.64714 0.4679,-0.66043 0.44857,-0.67318 0.42922,-0.68539 0.40985,-0.69705 0.39047,-0.70819 0.37107,-0.71878 0.35165,-0.72883 0.33222,-0.73834 0.31276,-0.74731 0.2933,-0.75575 0.2738,-0.76363 0.2543,-0.771 0.23478,-0.7778 0.21524,-0.78408 0.19569,-0.78981 0.1761,-0.79501 0.15652,-0.79967 0.13691,-0.80378 0.11728,-0.80736 0.0976,-0.81039 0.078,-0.8129 0.0583,-0.81485 0.0386,-0.81627 0.0189,-0.81715 -8.4e-4,-0.81749 -0.0206,-0.81728 -0.0404,-0.81655 -0.0601,-0.81528 -0.0799,-0.81345 -0.0998,-0.81109 -0.11959,-0.8082 -0.13944,-0.80476 -0.15932,-0.80078 -0.1792,-0.79627 -0.1991,-0.79121 -0.21903,-0.78562 -0.23896,-0.77948 -0.25893,-0.77281 -0.27889,-0.7656 -0.29889,-0.75784 -0.3189,-0.74955 -0.33892,-0.74072 -0.35896,-0.73134 -0.37903,-0.72144 -0.3991,-0.71098 -0.4192,-0.7 -0.43932,-0.68846 -0.45944,-0.6764 -0.47959,-0.66379 -0.49976,-0.65063 -0.51994,-0.63695 -0.54014,-0.62273 -0.56035,-0.60796 -0.58059,-0.59265 -0.60085,-0.5768 -0.62111,-0.56042 -0.6414,-0.5435 -0.6617,-0.52603 -0.68202,-0.50802 -0.70237,-0.48949 -0.72271,-0.4704 -0.7431,-0.45077 -0.76348,-0.43062 -0.78389,-0.40992 -0.80432,-0.38867 -0.82476,-0.36689 -0.84522,-0.34458 -0.8657,-0.32171 -0.8862,-0.29832 -0.9067,-0.27437 -0.92724,-0.2499 -0.94778,-0.22488 -0.96835,-0.19933 -0.98894,-0.17322 -1.00953,-0.14659 -1.03014,-0.11942 -1.05079,-0.0917 -1.07143,-0.0634 -1.0921,-0.0346 -1.11279,-0.005 -1.13349,0.0246 -1.15422,0.055 -1.17495,0.0859 -1.19571,0.11741 -1.21648,0.14945 -1.23727,0.18201 -0.15386,-1.12308 -0.0924,-1.04862 -0.031,-0.97907 0.007,-0.46498 0.0228,-0.44942 0.0381,-0.43447 0.0535,-0.42014 0.0688,-0.40642 0.0841,-0.3933 0.0993,-0.38081 0.11463,-0.36892 0.1299,-0.35763 0.14516,-0.34698 0.16042,-0.33691 0.17568,-0.32747 0.19091,-0.31864 0.20614,-0.31042 0.22138,-0.3028 0.23659,-0.29581 0.2518,-0.28942 0.26701,-0.28364 0.57958,-0.55239 0.64031,-0.53662 0.70097,-0.52574 0.76157,-0.51974 -6.73437,-2.24414 v -0.002"
         inkscape:connector-curvature="0" />
    </g>
  </g>
  <g
     id="g4984"
     inkscape:groupmode="layer"
     inkscape:label="Margin-disabled"
     style="display:inline" />
  <g
     id="g4986"
     inkscape:groupmode="layer"
     inkscape:label="B.CrtYd-disabled"
     style="display:inline" />
  <g
     id="g4988"
     inkscape:groupmode="layer"
     inkscape:label="F.CrtYd-disabled"
     style="display:inline" />
  <g
     id="g4990"
     inkscape:groupmode="layer"
     inkscape:label="B.Fab-disabled"
     style="display:inline" />
  <g
     id="g4992"
     inkscape:groupmode="layer"
     inkscape:label="F.Fab-disabled"
     style="display:inline" />
  <g
     id="g4994"
     inkscape:groupmode="layer"
     inkscape:label="Drill"
     style="display:inline" />
</svg>
