<?xml version="1.0" encoding="UTF-8" standalone="no"?>
<!-- Created with Inkscape (http://www.inkscape.org/) -->

<svg
   xmlns:dc="http://purl.org/dc/elements/1.1/"
   xmlns:cc="http://creativecommons.org/ns#"
   xmlns:rdf="http://www.w3.org/1999/02/22-rdf-syntax-ns#"
   xmlns:svg="http://www.w3.org/2000/svg"
   xmlns="http://www.w3.org/2000/svg"
   xmlns:sodipodi="http://sodipodi.sourceforge.net/DTD/sodipodi-0.dtd"
   xmlns:inkscape="http://www.inkscape.org/namespaces/inkscape"
   inkscape:version="0.92.5 (2060ec1f9f, 2020-04-08)"
   sodipodi:docname="pumpkin25_.svg"
   id="svg4943"
   version="1.1"
   viewBox="0 0 100.0 100.0"
   height="100.0mm"
   width="100.0mm">
  <defs
     id="defs4937" />
  <sodipodi:namedview
     id="base"
     pagecolor="#ffffff"
     bordercolor="#666666"
     borderopacity="1.0"
     inkscape:pageopacity="0.0"
     inkscape:pageshadow="2"
     inkscape:zoom="8.1144828"
     inkscape:cx="179.83429"
     inkscape:cy="174.16936"
     inkscape:document-units="mm"
     inkscape:current-layer="g4982"
     showgrid="true"
     inkscape:window-width="1920"
     inkscape:window-height="1016"
     inkscape:window-x="0"
     inkscape:window-y="27"
     inkscape:window-maximized="1"
     borderlayer="true">
    <inkscape:grid
       spacingx="2.54"
       spacingy="2.54"
       empspacing="1"
       type="xygrid"
       units="mm"
       id="grid4946" />
  </sodipodi:namedview>
  <metadata
     id="metadata4940">
    <rdf:RDF>
      <cc:Work
         rdf:about="">
        <dc:format>image/svg+xml</dc:format>
        <dc:type
           rdf:resource="http://purl.org/dc/dcmitype/StillImage" />
        <dc:title />
      </cc:Work>
    </rdf:RDF>
  </metadata>
  <g
     id="g4952"
     sodipodi:insensitive="true"
     inkscape:groupmode="layer"
     inkscape:label="[fixed] BG"
     style="display:inline">
    <rect
       id="rect4950"
       style="fill:#ffffff;fill-opacity:1;stroke:none"
       height="100"
       width="100"
       y="0"
       x="0" />
  </g>
  <g
     id="g4954"
     inkscape:groupmode="layer"
     inkscape:label="F.Cu"
     style="display:inline">
    <g
       style="display:inline"
       id="g5149"
       transform="matrix(0.25,0,0,0.25,54.836053,31.405824)" />
  </g>
  <g
     id="g4956"
     inkscape:groupmode="layer"
     inkscape:label="B.Cu-disabled"
     style="display:inline" />
  <g
     id="g4958"
     inkscape:groupmode="layer"
     inkscape:label="B.Adhes-disabled"
     style="display:inline" />
  <g
     id="g4960"
     inkscape:groupmode="layer"
     inkscape:label="F.Adhes-disabled"
     style="display:inline" />
  <g
     id="g4962"
     inkscape:groupmode="layer"
     inkscape:label="B.Paste-disabled"
     style="display:inline" />
  <g
     id="g4964"
     inkscape:groupmode="layer"
     inkscape:label="F.Paste-disabled"
     style="display:inline" />
  <g
     id="g4966"
     inkscape:groupmode="layer"
     inkscape:label="B.SilkS-disabled"
     style="display:inline" />
  <g
     id="g4968"
     inkscape:groupmode="layer"
     inkscape:label="F.SilkS-disabled"
     style="display:inline" />
  <g
     id="g4970"
     inkscape:groupmode="layer"
     inkscape:label="B.Mask-disabled"
     style="display:inline" />
  <g
     id="g4972"
     inkscape:groupmode="layer"
     inkscape:label="F.Mask-disabled"
     style="display:inline" />
  <g
     id="g4974"
     inkscape:groupmode="layer"
     inkscape:label="Dwgs.User-disabled"
     style="display:inline" />
  <g
     id="g4976"
     inkscape:groupmode="layer"
     inkscape:label="Cmts.User-disabled"
     style="display:inline" />
  <g
     id="g4978"
     inkscape:groupmode="layer"
     inkscape:label="Eco1.User-disabled"
     style="display:inline" />
  <g
     id="g4980"
     inkscape:groupmode="layer"
     inkscape:label="Eco2.User-disabled"
     style="display:inline" />
  <g
     id="g4982"
     inkscape:groupmode="layer"
     inkscape:label="Edge.Cuts"
     style="display:inline">
    <g
       id="g4665"
       transform="matrix(1.1455665,0,0,1.1455665,-1.2462716,-2.0520874)">
      <path
         id="path4677"
         style="display:inline;fill:#784421;stroke-width:0.03341075"
         d="m 47.080946,39.256027 -0.07688,0.0501 -0.07268,0.0536 -0.06863,0.05698 -0.0647,0.06025 -0.06092,0.0634 -0.05728,0.06644 -0.05378,0.06936 -0.05042,0.07216 -0.04719,0.07485 -0.0441,0.07742 -0.04116,0.07988 -0.03835,0.08222 -0.03568,0.08444 -0.03315,0.08655 -0.05927,0.178967 -0.05081,0.186013 -0.04347,0.192132 -0.03724,0.197324 -0.03212,0.201589 -0.02811,0.204926 -0.02522,0.207339 -0.0462,0.418209 -0.230029,-0.06579 -0.227066,-0.05865 -0.22409,-0.05162 -0.221093,-0.0447 -0.218081,-0.0379 -0.21505,-0.0312 -0.212005,-0.02462 -0.208939,-0.01816 -0.205857,-0.01179 -0.202757,-0.0056 -0.199644,5.95e-4 -0.196509,0.0066 -0.193358,0.0125 -0.19019,0.01832 -0.187006,0.02399 -0.183804,0.02956 -0.180582,0.03503 -0.177348,0.04037 -0.174093,0.04561 -0.170821,0.05074 -0.167535,0.05575 -0.164227,0.06065 -0.160905,0.06544 -0.157565,0.07011 -0.154206,0.07468 -0.150832,0.07913 -0.147441,0.08347 -0.144032,0.0877 -0.140607,0.09181 -0.137162,0.09582 -0.133699,0.09971 -0.130225,0.103495 -0.126728,0.107161 -0.123214,0.11072 -0.119687,0.114161 -0.116138,0.117497 -0.112576,0.120713 -0.108993,0.123825 -0.105394,0.12682 -0.101779,0.129704 -0.09815,0.132475 -0.0945,0.135138 -0.09083,0.137684 -0.08714,0.140121 -0.08344,0.142446 -0.07972,0.144657 -0.07599,0.146756 -0.07223,0.148745 -0.06846,0.150622 -0.06467,0.152386 -0.06087,0.154037 -0.05705,0.155577 -0.0532,0.157006 -0.04935,0.158321 -0.04547,0.159526 -0.04158,0.160618 -0.03767,0.161595 -0.03375,0.162465 -0.0298,0.163221 -0.02584,0.163865 -0.02187,0.164398 -0.01786,0.164816 -0.01385,0.165124 -0.0098,0.16532 -0.0058,0.165404 -0.0018,0.165374 0.0024,0.165237 0.0065,0.164983 0.01058,0.164617 0.0147,0.164142 0.01885,0.163554 0.02303,0.162854 0.02721,0.16204 0.03141,0.161117 0.03563,0.16008 0.03987,0.158932 0.04412,0.157671 0.04839,0.156299 0.05268,0.154815 0.05698,0.153218 0.06131,0.151509 0.06565,0.149687 0.07,0.147757 0.07438,0.14571 0.07877,0.143556 0.08318,0.141285 0.0876,0.138907 0.09204,0.136412 0.09651,0.133808 0.100982,0.131092 0.105478,0.128262 0.10999,0.125321 0.11452,0.122269 0.119065,0.119104 0.123628,0.115828 0.128209,0.112439 0.132808,0.108936 0.137424,0.105325 0.142055,0.1016 0.146705,0.09776 0.151372,0.09381 0.156055,0.08975 0.160759,0.08558 0.165475,0.08129 0.170213,0.0769 0.174965,0.07239 0.179736,0.06777 0.184523,0.06303 0.189328,0.05819 0.194149,0.05323 0.198989,0.04816 0.203847,0.04298 0.208719,0.03769 0.213612,0.03228 0.218517,0.02677 0.223445,0.02114 0.228387,0.0154 0.233347,0.0095 0.238323,0.0036 0.243318,-0.0025 0.248329,-0.0087 0.253359,-0.01498 0.258405,-0.0214 0.263468,-0.02793 0.268547,-0.03457 0.273648,-0.04131 0.278761,-0.04818 0.283892,-0.05515 0.250847,0.07187 0.247156,0.06485 0.243461,0.05793 0.239764,0.05111 0.236061,0.04441 0.232357,0.03781 0.228647,0.03132 0.224937,0.02494 0.22122,0.01865 0.217504,0.01248 0.21378,0.0064 0.210054,3.97e-4 0.206326,-0.0054 0.202592,-0.01111 0.198857,-0.01675 0.195117,-0.02228 0.191373,-0.0277 0.187629,-0.03301 0.183878,-0.03822 0.180126,-0.04332 0.176367,-0.04831 0.172609,-0.0532 0.168845,-0.05798 0.165076,-0.06265 0.161308,-0.06721 0.157533,-0.07167 0.153755,-0.07602 0.149976,-0.08026 0.14619,-0.0844 0.142403,-0.08843 0.138611,-0.09235 0.134816,-0.09616 0.131021,-0.09987 0.127216,-0.103467 0.123412,-0.106962 0.119604,-0.110349 0.115793,-0.113628 0.111978,-0.116798 0.108158,-0.119864 0.104335,-0.122823 0.10051,-0.125674 0.09668,-0.128417 0.09285,-0.131054 0.08901,-0.133585 0.08517,-0.136007 0.08133,-0.13832 0.07748,-0.140532 0.07363,-0.142633 0.06978,-0.144627 0.06593,-0.146514 0.06206,-0.148295 0.0582,-0.149969 0.05433,-0.151533 0.05046,-0.152995 0.04659,-0.154345 0.04271,-0.155591 0.03883,-0.156727 0.03495,-0.15776 0.03106,-0.158685 0.02717,-0.1595 0.02327,-0.16021 0.01937,-0.160812 0.01548,-0.16131 0.01157,-0.161697 0.0077,-0.161978 0.0038,-0.162154 -1.66e-4,-0.16222 -0.0041,-0.162179 -0.008,-0.162034 -0.01193,-0.161782 -0.01586,-0.161419 -0.0198,-0.160951 -0.02373,-0.160377 -0.02767,-0.159695 -0.03161,-0.158905 -0.03556,-0.158009 -0.03951,-0.157006 -0.04346,-0.155897 -0.04742,-0.154678 -0.05138,-0.153354 -0.05534,-0.151924 -0.05931,-0.150384 -0.06328,-0.148739 -0.06725,-0.146986 -0.07123,-0.145126 -0.07521,-0.14316 -0.0792,-0.141085 -0.08319,-0.138907 -0.08718,-0.136616 -0.09117,-0.134223 -0.09517,-0.131721 -0.09917,-0.129109 -0.103175,-0.126395 -0.107184,-0.123573 -0.111195,-0.120642 -0.11521,-0.117604 -0.119232,-0.114459 -0.123251,-0.111208 -0.127278,-0.107851 -0.131306,-0.104384 -0.135338,-0.10081 -0.139377,-0.09713 -0.143413,-0.09334 -0.147459,-0.08945 -0.151503,-0.08545 -0.155553,-0.08134 -0.159607,-0.07713 -0.163663,-0.0728 -0.167724,-0.06838 -0.171787,-0.06384 -0.175855,-0.0592 -0.179924,-0.05444 -0.183999,-0.04959 -0.188075,-0.04462 -0.192157,-0.03956 -0.196243,-0.03437 -0.200328,-0.02909 -0.204419,-0.0237 -0.208516,-0.0182 -0.212612,-0.01258 -0.216713,-0.0069 -0.22082,-9.92e-4 -0.224927,0.0049 -0.22904,0.01091 -0.233154,0.01705 -0.237274,0.0233 -0.241395,0.02966 -0.245521,0.03612 -0.03053,-0.222862 -0.01834,-0.208085 -0.0062,-0.194284 0.0014,-0.09227 0.0045,-0.08918 0.0076,-0.08622 0.01062,-0.08337 0.01365,-0.08065 0.01669,-0.07805 0.01971,-0.07557 0.02275,-0.07321 0.02578,-0.07097 0.0288,-0.06885 0.03183,-0.06686 0.03486,-0.06498 0.03788,-0.06323 0.04091,-0.0616 0.04393,-0.06009 0.04695,-0.0587 0.04997,-0.05743 0.05299,-0.05628 0.11501,-0.109615 0.127062,-0.106486 0.139099,-0.104326 0.151124,-0.103136 -1.336352,-0.445322 v -3.97e-4"
         inkscape:connector-curvature="0" />
    </g>
  </g>
  <g
     id="g4984"
     inkscape:groupmode="layer"
     inkscape:label="Margin-disabled"
     style="display:inline" />
  <g
     id="g4986"
     inkscape:groupmode="layer"
     inkscape:label="B.CrtYd-disabled"
     style="display:inline" />
  <g
     id="g4988"
     inkscape:groupmode="layer"
     inkscape:label="F.CrtYd-disabled"
     style="display:inline" />
  <g
     id="g4990"
     inkscape:groupmode="layer"
     inkscape:label="B.Fab-disabled"
     style="display:inline" />
  <g
     id="g4992"
     inkscape:groupmode="layer"
     inkscape:label="F.Fab-disabled"
     style="display:inline" />
  <g
     id="g4994"
     inkscape:groupmode="layer"
     inkscape:label="Drill"
     style="display:inline" />
</svg>
