<?xml version="1.0" encoding="UTF-8" standalone="no"?>
<!-- Created with Inkscape (http://www.inkscape.org/) -->

<svg
   xmlns:dc="http://purl.org/dc/elements/1.1/"
   xmlns:cc="http://creativecommons.org/ns#"
   xmlns:rdf="http://www.w3.org/1999/02/22-rdf-syntax-ns#"
   xmlns:svg="http://www.w3.org/2000/svg"
   xmlns="http://www.w3.org/2000/svg"
   xmlns:sodipodi="http://sodipodi.sourceforge.net/DTD/sodipodi-0.dtd"
   xmlns:inkscape="http://www.inkscape.org/namespaces/inkscape"
   width="100.0mm"
   height="100.0mm"
   viewBox="0 0 100.0 100.0"
   version="1.1"
   id="svg4943"
   sodipodi:docname="pumpkin-outline-v3.svg"
   inkscape:version="0.92.5 (2060ec1f9f, 2020-04-08)">
  <defs
     id="defs4937" />
  <sodipodi:namedview
     id="base"
     pagecolor="#ffffff"
     bordercolor="#666666"
     borderopacity="1.0"
     inkscape:pageopacity="0.0"
     inkscape:pageshadow="2"
     inkscape:zoom="1.28"
     inkscape:cx="-35.9179"
     inkscape:cy="118.25898"
     inkscape:document-units="mm"
     inkscape:current-layer="g4982"
     showgrid="true"
     inkscape:window-width="1920"
     inkscape:window-height="1016"
     inkscape:window-x="0"
     inkscape:window-y="27"
     inkscape:window-maximized="1"
     borderlayer="true">
    <inkscape:grid
       spacingx="2.54"
       spacingy="2.54"
       empspacing="1"
       type="xygrid"
       units="mm"
       id="grid4946" />
  </sodipodi:namedview>
  <metadata
     id="metadata4940">
    <rdf:RDF>
      <cc:Work
         rdf:about="">
        <dc:format>image/svg+xml</dc:format>
        <dc:type
           rdf:resource="http://purl.org/dc/dcmitype/StillImage" />
        <dc:title />
      </cc:Work>
    </rdf:RDF>
  </metadata>
  <g
     id="g4952"
     sodipodi:insensitive="true"
     inkscape:groupmode="layer"
     inkscape:label="[fixed] BG"
     style="display:none">
    <rect
       id="rect4950"
       style="fill:#ffffff;fill-opacity:1;stroke:none"
       height="100"
       width="100"
       y="0"
       x="0" />
  </g>
  <g
     id="g4954"
     inkscape:groupmode="layer"
     inkscape:label="F.Cu"
     style="display:none" />
  <g
     id="g4956"
     inkscape:groupmode="layer"
     inkscape:label="B.Cu-disabled"
     style="display:none" />
  <g
     id="g4958"
     inkscape:groupmode="layer"
     inkscape:label="B.Adhes-disabled"
     style="display:none" />
  <g
     id="g4960"
     inkscape:groupmode="layer"
     inkscape:label="F.Adhes-disabled"
     style="display:none" />
  <g
     id="g4962"
     inkscape:groupmode="layer"
     inkscape:label="B.Paste-disabled"
     style="display:none" />
  <g
     id="g4964"
     inkscape:groupmode="layer"
     inkscape:label="F.Paste-disabled"
     style="display:none" />
  <g
     id="g4966"
     inkscape:groupmode="layer"
     inkscape:label="B.SilkS-disabled"
     style="display:none" />
  <g
     id="g4968"
     inkscape:groupmode="layer"
     inkscape:label="F.SilkS-disabled"
     style="display:none" />
  <g
     id="g4970"
     inkscape:groupmode="layer"
     inkscape:label="B.Mask-disabled"
     style="display:none" />
  <g
     id="g4972"
     inkscape:groupmode="layer"
     inkscape:label="F.Mask-disabled"
     style="display:none" />
  <g
     id="g4974"
     inkscape:groupmode="layer"
     inkscape:label="Dwgs.User-disabled"
     style="display:none" />
  <g
     id="g4976"
     inkscape:groupmode="layer"
     inkscape:label="Cmts.User-disabled"
     style="display:none" />
  <g
     id="g4978"
     inkscape:groupmode="layer"
     inkscape:label="Eco1.User-disabled"
     style="display:none" />
  <g
     id="g4980"
     inkscape:groupmode="layer"
     inkscape:label="Eco2.User-disabled"
     style="display:none" />
  <g
     id="g4982"
     inkscape:groupmode="layer"
     inkscape:label="Edge.Cuts"
     style="display:inline">
    <g
       id="g5149" />
    <path
       style="display:inline;fill:#784421;stroke-width:0.04454766"
       d="m 51.573273,35.658135 -0.05195,0.0328 -0.05053,0.03398 -0.04913,0.03515 -0.04775,0.0363 -0.0464,0.03742 -0.04507,0.03853 -0.04377,0.03962 -0.04248,0.04069 -0.04122,0.04174 -0.03999,0.04277 -0.03877,0.04378 -0.03758,0.04477 -0.03642,0.04574 -0.03527,0.0467 -0.03415,0.04763 -0.03305,0.04855 -0.03198,0.04944 -0.03092,0.05032 -0.0299,0.05118 -0.02889,0.05201 -0.02791,0.05283 -0.02695,0.05363 -0.02602,0.05441 -0.0251,0.05517 -0.02421,0.05591 -0.02335,0.05663 -0.02251,0.05733 -0.02168,0.05802 -0.041,0.11801 -0.038,0.120513 -0.03518,0.12286 -0.03255,0.125054 -0.0301,0.127094 -0.02784,0.128977 -0.02577,0.130709 -0.02388,0.132284 -0.02217,0.133706 -0.02065,0.134975 -0.01931,0.136087 -0.01816,0.137047 -0.03362,0.276353 -0.03124,0.278339 -0.03034,0.279089 -0.153853,-0.04507 -0.152868,-0.04267 -0.151882,-0.04029 -0.150891,-0.03793 -0.149899,-0.03559 -0.148903,-0.03326 -0.147904,-0.03095 -0.146904,-0.02867 -0.145898,-0.0264 -0.144892,-0.02415 -0.143881,-0.02192 -0.142868,-0.01971 -0.141853,-0.01751 -0.140835,-0.01534 -0.139812,-0.01318 -0.138788,-0.01104 -0.137761,-0.0089 -0.136731,-0.0068 -0.135698,-0.0047 -0.134661,-0.0027 -0.133623,-6.5e-4 -0.132582,0.0014 -0.131537,0.0034 -0.13049,0.0054 -0.129439,0.0074 -0.128386,0.0093 -0.12733,0.01124 -0.126272,0.01316 -0.125209,0.01505 -0.124145,0.01693 -0.123078,0.01879 -0.122006,0.02063 -0.120935,0.02245 -0.119857,0.02425 -0.118779,0.02603 -0.117697,0.0278 -0.116613,0.02954 -0.115524,0.03127 -0.114434,0.03298 -0.113341,0.03467 -0.112245,0.03634 -0.111146,0.03799 -0.110043,0.03963 -0.108939,0.04124 -0.107832,0.04284 -0.10672,0.04441 -0.105607,0.04597 -0.104491,0.04751 -0.103372,0.04903 -0.102249,0.05054 -0.101125,0.05202 -0.1,0.05349 -0.09887,0.05494 -0.09773,0.05636 -0.0966,0.05777 -0.09546,0.05917 -0.09432,0.06054 -0.09317,0.06189 -0.09202,0.06323 -0.09087,0.06454 -0.08972,0.06584 -0.08856,0.06712 -0.0874,0.06838 -0.08624,0.06962 -0.08507,0.07084 -0.08391,0.07205 -0.08274,0.07323 -0.08156,0.0744 -0.08038,0.07555 -0.07921,0.07668 -0.07802,0.07779 -0.07684,0.07888 -0.07565,0.07996 -0.07446,0.08101 -0.07327,0.08205 -0.07207,0.08306 -0.07087,0.08406 -0.06967,0.08505 -0.06846,0.08601 -0.06725,0.08695 -0.06604,0.08787 -0.06483,0.08878 -0.06361,0.08967 -0.06239,0.09053 -0.06117,0.09138 -0.05994,0.09221 -0.05871,0.09303 -0.05748,0.09382 -0.05625,0.09459 -0.05501,0.09535 -0.05377,0.09609 -0.05253,0.09681 -0.05129,0.09751 -0.05004,0.09819 -0.04879,0.09885 -0.04753,0.0995 -0.04627,0.100121 -0.04501,0.100729 -0.04375,0.101316 -0.04248,0.101886 -0.04122,0.102437 -0.03995,0.102968 -0.03867,0.103483 -0.03739,0.103977 -0.03611,0.104453 -0.03483,0.104911 -0.03355,0.10535 -0.03226,0.105769 -0.03097,0.10617 -0.02967,0.106554 -0.02837,0.106918 -0.02707,0.107263 -0.02577,0.10759 -0.02446,0.107898 -0.02316,0.108187 -0.02184,0.108458 -0.02053,0.10871 -0.01921,0.108944 -0.01789,0.109158 -0.01657,0.109354 -0.01524,0.109531 -0.01391,0.109691 -0.01258,0.10983 -0.01125,0.109951 -0.0099,0.110054 -0.0086,0.110138 -0.0072,0.110204 -0.0059,0.11025 -0.0045,0.110278 -0.0032,0.110287 -0.0018,0.110278 -4.62e-4,0.11025 8.92e-4,0.110203 0.0023,0.110138 0.0036,0.110054 0.005,0.109951 0.0064,0.10983 0.0077,0.109689 0.0091,0.10953 0.01049,0.109354 0.01188,0.109157 0.01326,0.108942 0.01465,0.10871 0.01605,0.108456 0.01744,0.108187 0.01884,0.107896 0.02024,0.107589 0.02164,0.107261 0.02305,0.106916 0.02446,0.106553 0.02587,0.106168 0.02728,0.105768 0.0287,0.105348 0.03012,0.104909 0.03155,0.104451 0.03297,0.103975 0.0344,0.10348 0.03583,0.102967 0.03727,0.102434 0.03871,0.101884 0.04015,0.101313 0.04159,0.100727 0.04304,0.100118 0.04449,0.09949 0.04594,0.09885 0.0474,0.09819 0.04885,0.0975 0.05032,0.0968 0.05178,0.09609 0.05324,0.09535 0.05472,0.09459 0.05619,0.09382 0.05766,0.09302 0.05914,0.09221 0.06062,0.09138 0.0621,0.09053 0.06359,0.08966 0.06508,0.08877 0.06658,0.08787 0.06807,0.08694 0.06957,0.086 0.07107,0.08504 0.07257,0.08406 0.07408,0.08306 0.07559,0.08204 0.0771,0.08101 0.07862,0.07995 0.08014,0.07888 0.08166,0.07778 0.08318,0.07668 0.08471,0.07554 0.08624,0.0744 0.08777,0.07323 0.08931,0.07204 0.09085,0.07084 0.09239,0.06962 0.09393,0.06837 0.09548,0.06711 0.09703,0.06583 0.09858,0.06454 0.100137,0.06322 0.101696,0.06189 0.103257,0.06053 0.104821,0.05916 0.106388,0.05777 0.107958,0.05636 0.109532,0.05493 0.111107,0.05348 0.112686,0.05202 0.114268,0.05053 0.115852,0.04903 0.117439,0.04751 0.119029,0.04597 0.120622,0.04441 0.122219,0.04283 0.123817,0.04123 0.125418,0.03962 0.127023,0.03798 0.128631,0.03633 0.130241,0.03466 0.131854,0.03297 0.13347,0.03126 0.135089,0.02953 0.13671,0.02779 0.138335,0.02602 0.139963,0.02424 0.141593,0.02244 0.143227,0.02062 0.144862,0.01878 0.146502,0.01692 0.148142,0.01505 0.149788,0.01315 0.151436,0.01123 0.153086,0.0093 0.154739,0.0074 0.156396,0.0054 0.158055,0.0034 0.159716,0.0014 0.161382,-6.5e-4 0.163049,-0.0027 0.16472,-0.0048 0.166393,-0.0068 0.168069,-0.0089 0.169749,-0.01105 0.171431,-0.01319 0.173115,-0.01534 0.174804,-0.01752 0.176494,-0.01971 0.178188,-0.02193 0.179884,-0.02416 0.181584,-0.02641 0.183285,-0.02868 0.184991,-0.03097 0.186698,-0.03327 0.18841,-0.0356 0.190123,-0.03794 0.167858,0.0491 0.166628,0.04674 0.165399,0.0444 0.164167,0.04207 0.162936,0.03976 0.161703,0.03747 0.160471,0.0352 0.159238,0.03295 0.158004,0.03071 0.156769,0.02849 0.155535,0.0263 0.154299,0.02411 0.153063,0.02195 0.151826,0.0198 0.150589,0.01768 0.149351,0.01556 0.148112,0.01347 0.146874,0.0114 0.145634,0.0093 0.144394,0.0073 0.143153,0.0053 0.141912,0.0033 0.140669,0.0013 0.139428,-6.75e-4 0.138184,-0.0026 0.136941,-0.0046 0.135696,-0.0065 0.134452,-0.0084 0.133206,-0.01025 0.131961,-0.01211 0.130714,-0.01396 0.129467,-0.01578 0.128219,-0.01759 0.126971,-0.01938 0.125722,-0.02115 0.124473,-0.0229 0.123222,-0.02464 0.121973,-0.02635 0.120721,-0.02806 0.119469,-0.02974 0.118217,-0.0314 0.116965,-0.03305 0.115711,-0.03468 0.114456,-0.03629 0.113203,-0.03788 0.111947,-0.03946 0.110691,-0.04102 0.109435,-0.04255 0.108179,-0.04408 0.106921,-0.04558 0.105662,-0.04707 0.104404,-0.04853 0.103145,-0.04998 0.101886,-0.05142 0.100624,-0.05283 0.09936,-0.05423 0.0981,-0.05561 0.09684,-0.05697 0.09558,-0.05831 0.09431,-0.05964 0.09305,-0.06094 0.09179,-0.06223 0.09052,-0.0635 0.08926,-0.06476 0.08799,-0.06599 0.08672,-0.06721 0.08546,-0.06841 0.08419,-0.0696 0.08292,-0.07076 0.08165,-0.07191 0.08038,-0.07304 0.07911,-0.07415 0.07784,-0.07524 0.07657,-0.07632 0.0753,-0.07737 0.07402,-0.07841 0.07275,-0.07944 0.07148,-0.08044 0.0702,-0.08143 0.06893,-0.08239 0.06765,-0.08334 0.06638,-0.08428 0.0651,-0.08519 0.06383,-0.08609 0.06255,-0.08697 0.06127,-0.08783 0.05999,-0.08867 0.05871,-0.0895 0.05743,-0.09031 0.05615,-0.0911 0.05487,-0.09187 0.05359,-0.09262 0.0523,-0.09336 0.05102,-0.09408 0.04974,-0.09478 0.04846,-0.09546 0.04717,-0.09612 0.04589,-0.09677 0.0446,-0.0974 0.04331,-0.09801 0.04203,-0.09861 0.04074,-0.09918 0.03945,-0.09974 0.03816,-0.100278 0.03687,-0.100801 0.03558,-0.101304 0.03429,-0.101792 0.033,-0.10226 0.03171,-0.10271 0.03042,-0.103144 0.02913,-0.103558 0.02783,-0.103956 0.02654,-0.104335 0.02524,-0.104696 0.02395,-0.10504 0.02266,-0.105365 0.02136,-0.105673 0.02006,-0.105964 0.01876,-0.106236 0.01747,-0.10649 0.01617,-0.106726 0.01487,-0.106945 0.01357,-0.107146 0.01227,-0.107329 0.01097,-0.107494 0.0097,-0.107641 0.0084,-0.10777 0.0071,-0.107883 0.0058,-0.107976 0.0045,-0.108051 0.0032,-0.10811 0.0018,-0.10815 5.5e-4,-0.108171 -7.75e-4,-0.108177 -0.0021,-0.108163 -0.0034,-0.108132 -0.0047,-0.108082 -0.006,-0.108016 -0.0073,-0.107931 -0.0086,-0.107829 -0.0099,-0.107707 -0.01123,-0.107569 -0.01254,-0.107414 -0.01385,-0.107239 -0.01517,-0.107048 -0.01648,-0.106837 -0.01779,-0.10661 -0.01911,-0.106365 -0.02042,-0.106101 -0.02174,-0.10582 -0.02305,-0.10552 -0.02437,-0.105205 -0.02569,-0.104869 -0.027,-0.104517 -0.02832,-0.104147 -0.02964,-0.103758 -0.03096,-0.103352 -0.03228,-0.102929 -0.0336,-0.102486 -0.03492,-0.102027 -0.03624,-0.101549 -0.03756,-0.101054 -0.03889,-0.100541 -0.04021,-0.100009 -0.04153,-0.09946 -0.04286,-0.09889 -0.04418,-0.09831 -0.04551,-0.09771 -0.04683,-0.09709 -0.04816,-0.09645 -0.04949,-0.09579 -0.05081,-0.09512 -0.05214,-0.09443 -0.05347,-0.09372 -0.0548,-0.09299 -0.05613,-0.09225 -0.05746,-0.09148 -0.05879,-0.0907 -0.06012,-0.0899 -0.06146,-0.08908 -0.06279,-0.08825 -0.06412,-0.0874 -0.06546,-0.08653 -0.06679,-0.08564 -0.06813,-0.08474 -0.06946,-0.08381 -0.0708,-0.08287 -0.07214,-0.08191 -0.07348,-0.08093 -0.07481,-0.07994 -0.07615,-0.07892 -0.07749,-0.07789 -0.07883,-0.07684 -0.08017,-0.07578 -0.08151,-0.07469 -0.08285,-0.07359 -0.0842,-0.07247 -0.08554,-0.07133 -0.08688,-0.07018 -0.08823,-0.069 -0.08957,-0.06781 -0.09091,-0.06664 -0.09226,-0.06538 -0.09361,-0.06413 -0.09495,-0.06287 -0.0963,-0.06159 -0.09765,-0.06029 -0.099,-0.05897 -0.100347,-0.05764 -0.101697,-0.05629 -0.103048,-0.05492 -0.104398,-0.05353 -0.105749,-0.05212 -0.107102,-0.0507 -0.108454,-0.04926 -0.109807,-0.0478 -0.111161,-0.04632 -0.112515,-0.04483 -0.11387,-0.04331 -0.115226,-0.04178 -0.116582,-0.04023 -0.117938,-0.03867 -0.119295,-0.03708 -0.120653,-0.03548 -0.122012,-0.03386 -0.12337,-0.03222 -0.12473,-0.03057 -0.12609,-0.0289 -0.12745,-0.02721 -0.128812,-0.02549 -0.130174,-0.02377 -0.131536,-0.02202 -0.132899,-0.02026 -0.134262,-0.01848 -0.135627,-0.01668 -0.136991,-0.01487 -0.138356,-0.01303 -0.139722,-0.01118 -0.141089,-0.0093 -0.142456,-0.0074 -0.143823,-0.0055 -0.145191,-0.0036 -0.14656,-0.0016 -0.14793,3.25e-4 -0.149299,0.0023 -0.150669,0.0043 -0.152041,0.0063 -0.153412,0.0083 -0.154785,0.01037 -0.156157,0.01244 -0.15753,0.01452 -0.158905,0.01662 -0.160278,0.01874 -0.161654,0.02088 -0.16303,0.02303 -0.164405,0.02521 -0.02235,-0.151039 -0.01828,-0.145948 -0.01421,-0.141018 -0.01015,-0.136252 -0.0061,-0.131647 -0.0015,-0.06415 -5.25e-4,-0.06306 5.25e-4,-0.06199 0.0015,-0.06094 0.0025,-0.05991 0.0036,-0.0589 0.0046,-0.05791 0.0056,-0.05694 0.0066,-0.05599 0.0076,-0.05506 0.0086,-0.05416 0.0096,-0.05327 0.01064,-0.0524 0.01165,-0.05155 0.01267,-0.05073 0.01367,-0.04992 0.01469,-0.04913 0.0157,-0.04837 0.01671,-0.04762 0.01772,-0.0469 0.01873,-0.04619 0.01973,-0.04551 0.02074,-0.04484 0.02175,-0.0442 0.02276,-0.04357 0.02377,-0.04297 0.02477,-0.04239 0.02578,-0.04182 0.02679,-0.04128 0.0278,-0.04076 0.0288,-0.04025 0.02981,-0.03977 0.03081,-0.03931 0.03182,-0.03887 0.03283,-0.03845 0.03383,-0.03804 0.07067,-0.07497 0.07469,-0.07361 0.0787,-0.07241 0.08271,-0.07137 0.08672,-0.0705 0.09073,-0.06978 0.09473,-0.06923 0.09873,-0.06885 0.102731,-0.06862 -1.781932,-0.593892 -1.33e-4,-5.15e-4"
       id="path4677"
       inkscape:connector-curvature="0" />
  </g>
  <g
     id="g4984"
     inkscape:groupmode="layer"
     inkscape:label="Margin-disabled"
     style="display:none" />
  <g
     id="g4986"
     inkscape:groupmode="layer"
     inkscape:label="B.CrtYd-disabled"
     style="display:none" />
  <g
     id="g4988"
     inkscape:groupmode="layer"
     inkscape:label="F.CrtYd-disabled"
     style="display:none" />
  <g
     id="g4990"
     inkscape:groupmode="layer"
     inkscape:label="B.Fab-disabled"
     style="display:none" />
  <g
     id="g4992"
     inkscape:groupmode="layer"
     inkscape:label="F.Fab-disabled"
     style="display:none" />
  <g
     id="g4994"
     inkscape:groupmode="layer"
     inkscape:label="Drill"
     style="display:none" />
</svg>
