<?xml version="1.0" encoding="UTF-8" standalone="no"?>
<!-- Created with Inkscape (http://www.inkscape.org/) -->

<svg
   xmlns:dc="http://purl.org/dc/elements/1.1/"
   xmlns:cc="http://creativecommons.org/ns#"
   xmlns:rdf="http://www.w3.org/1999/02/22-rdf-syntax-ns#"
   xmlns:svg="http://www.w3.org/2000/svg"
   xmlns="http://www.w3.org/2000/svg"
   xmlns:sodipodi="http://sodipodi.sourceforge.net/DTD/sodipodi-0.dtd"
   xmlns:inkscape="http://www.inkscape.org/namespaces/inkscape"
   width="100.0mm"
   height="100.0mm"
   viewBox="0 0 100.0 100.0"
   version="1.1"
   id="svg4943"
   sodipodi:docname="pumpkin-2-inch-outline.svg"
   inkscape:version="0.92.5 (2060ec1f9f, 2020-04-08)">
  <defs
     id="defs4937" />
  <sodipodi:namedview
     id="base"
     pagecolor="#ffffff"
     bordercolor="#666666"
     borderopacity="1.0"
     inkscape:pageopacity="0.0"
     inkscape:pageshadow="2"
     inkscape:zoom="2.055"
     inkscape:cx="55.174719"
     inkscape:cy="223.48504"
     inkscape:document-units="mm"
     inkscape:current-layer="g4982"
     showgrid="true"
     inkscape:window-width="1920"
     inkscape:window-height="1016"
     inkscape:window-x="0"
     inkscape:window-y="27"
     inkscape:window-maximized="1"
     borderlayer="true">
    <inkscape:grid
       id="grid4946"
       units="mm"
       type="xygrid"
       empspacing="1"
       spacingy="2.54"
       spacingx="2.54" />
  </sodipodi:namedview>
  <metadata
     id="metadata4940">
    <rdf:RDF>
      <cc:Work
         rdf:about="">
        <dc:format>image/svg+xml</dc:format>
        <dc:type
           rdf:resource="http://purl.org/dc/dcmitype/StillImage" />
        <dc:title />
      </cc:Work>
    </rdf:RDF>
  </metadata>
  <g
     id="g4952"
     sodipodi:insensitive="true"
     inkscape:groupmode="layer"
     inkscape:label="[fixed] BG"
     style="display:none">
    <rect
       id="rect4950"
       style="fill:#ffffff;fill-opacity:1;stroke:none"
       height="100"
       width="100"
       y="0"
       x="0" />
  </g>
  <g
     id="g4954"
     inkscape:groupmode="layer"
     inkscape:label="F.Cu"
     style="display:inline" />
  <g
     id="g4956"
     inkscape:groupmode="layer"
     inkscape:label="B.Cu-disabled"
     style="display:none" />
  <g
     id="g4958"
     inkscape:groupmode="layer"
     inkscape:label="B.Adhes-disabled"
     style="display:none" />
  <g
     id="g4960"
     inkscape:groupmode="layer"
     inkscape:label="F.Adhes-disabled"
     style="display:none" />
  <g
     id="g4962"
     inkscape:groupmode="layer"
     inkscape:label="B.Paste-disabled"
     style="display:none" />
  <g
     id="g4964"
     inkscape:groupmode="layer"
     inkscape:label="F.Paste-disabled"
     style="display:none" />
  <g
     id="g4966"
     inkscape:groupmode="layer"
     inkscape:label="B.SilkS-disabled"
     style="display:none" />
  <g
     id="g4968"
     inkscape:groupmode="layer"
     inkscape:label="F.SilkS-disabled"
     style="display:none" />
  <g
     id="g4970"
     inkscape:groupmode="layer"
     inkscape:label="B.Mask-disabled"
     style="display:none" />
  <g
     id="g4972"
     inkscape:groupmode="layer"
     inkscape:label="F.Mask-disabled"
     style="display:none" />
  <g
     id="g4974"
     inkscape:groupmode="layer"
     inkscape:label="Dwgs.User-disabled"
     style="display:none" />
  <g
     id="g4976"
     inkscape:groupmode="layer"
     inkscape:label="Cmts.User-disabled"
     style="display:none" />
  <g
     id="g4978"
     inkscape:groupmode="layer"
     inkscape:label="Eco1.User-disabled"
     style="display:none" />
  <g
     id="g4980"
     inkscape:groupmode="layer"
     inkscape:label="Eco2.User-disabled"
     style="display:none" />
  <g
     id="g4982"
     inkscape:groupmode="layer"
     inkscape:label="Edge.Cuts"
     style="display:inline">
    <path
       transform="scale(0.26458333)"
       inkscape:connector-curvature="0"
       id="path4677"
       d="m 167.125,73.423828 -0.46243,0.291966 -0.44977,0.302512 -0.43732,0.312887 -0.42508,0.323091 -0.41305,0.333122 -0.40121,0.342983 -0.76776,0.714857 -0.7229,0.752238 -0.6797,0.788244 -0.63815,0.822877 -0.59823,0.856136 -0.55998,0.888022 -0.52337,0.918534 -0.4884,0.947673 -0.45509,0.975438 -0.42342,1.00183 -0.3934,1.026849 -0.36503,1.050494 -0.33831,1.072765 -0.31323,1.093663 -0.28981,1.113188 -0.26802,1.131339 -0.2479,1.148116 -0.22941,1.16352 -0.21258,1.177551 -0.19739,1.190208 -0.18386,1.201492 -0.33368,2.43134 -0.29931,2.459997 -0.54823,4.96199 -1.36947,-0.40119 -1.36072,-0.37984 -1.35193,-0.35864 -1.34311,-0.33762 -1.33428,-0.31676 -1.32541,-0.29607 -1.31653,-0.27555 -1.30761,-0.25518 -1.29868,-0.23499 -1.28971,-0.21496 -1.28071,-0.1951 -1.2717,-0.17541 -1.26266,-0.15587 -1.2536,-0.13652 -1.24449,-0.11731 -1.23538,-0.0983 -1.22624,-0.0794 -1.21707,-0.0607 -1.20787,-0.0422 -1.19865,-0.0238 -1.1894,-0.006 -1.18014,0.0124 -1.17083,0.0303 -1.16151,0.048 -1.15217,0.0655 -1.14278,0.0829 -1.13339,0.10007 -1.12397,0.11712 -1.11451,0.13398 -1.10504,0.15068 -1.09553,0.16722 -1.08601,0.1836 -1.07645,0.1998 -1.06688,0.21583 -1.05727,0.23171 -1.04764,0.24742 -1.03799,0.26295 -1.0283,0.27833 -1.0186,0.29354 -1.00887,0.30857 -0.99911,0.32346 -0.98932,0.33816 -0.97952,0.3527 -0.96968,0.36708 -0.95983,0.3813 -0.94993,0.39533 -0.940031,0.40921 -0.930091,0.42293 -0.920128,0.43647 -0.91014,0.44985 -0.900128,0.46306 -0.890088,0.47611 -0.880024,0.48899 -0.869935,0.50171 -0.859819,0.51425 -0.849678,0.52663 -0.839511,0.53885 -0.829319,0.5509 -0.819101,0.56279 -0.808859,0.5745 -0.798589,0.58605 -0.788295,0.59744 -0.777975,0.60865 -0.767629,0.61971 -1.50412,1.27191 -1.462432,1.31412 -1.420538,1.35501 -1.37844,1.39456 -1.336138,1.43279 -1.293631,1.46969 -1.25092,1.50525 -1.208004,1.53949 -1.164884,1.5724 -1.121559,1.60397 -1.07803,1.63423 -1.034296,1.66314 -0.990358,1.69073 -0.946215,1.71699 -0.901868,1.74192 -0.857316,1.76552 -0.81256,1.78779 -0.767599,1.80873 -0.722434,1.82834 -0.677064,1.84662 -0.63149,1.86358 -0.585711,1.8792 -0.539728,1.89349 -0.493541,1.90645 -0.447148,1.91808 -0.400551,1.92839 -0.35375,1.93736 -0.306745,1.94501 -0.259534,1.95132 -0.21212,1.9563 -0.1645,1.95996 -0.116677,1.96229 -0.06865,1.96328 -0.02042,1.96295 0.02802,1.96129 0.07666,1.95829 0.125509,1.95397 0.17456,1.94831 0.223814,1.94134 0.273275,1.93302 0.322938,1.92338 0.372807,1.91241 0.422881,1.90011 0.473158,1.88648 0.52364,1.87152 0.574326,1.85523 0.625218,1.83761 0.676313,1.81867 0.727614,1.79838 0.779118,1.77677 0.830827,1.75384 0.882741,1.72957 0.934858,1.70398 0.987182,1.67704 0.513275,0.82801 0.526433,0.82078 0.539616,0.81338 0.552824,0.80582 0.566058,0.7981 0.579318,0.79019 0.592603,0.78214 0.605914,0.77391 0.61925,0.76551 0.632611,0.75695 0.646,0.74823 0.659412,0.73934 0.67285,0.73027 0.686315,0.72105 0.699804,0.71167 0.71332,0.7021 0.72686,0.69238 0.740427,0.68249 0.754018,0.67244 0.767636,0.66221 0.781279,0.65182 0.794947,0.64127 0.808642,0.63055 0.822361,0.61967 0.836107,0.6086 0.849877,0.5974 0.863674,0.586 0.877496,0.57445 0.891343,0.56274 0.905216,0.55085 0.919115,0.5388 0.933039,0.52659 0.946989,0.5142 0.960964,0.50165 0.974965,0.48894 0.988992,0.47605 1.003043,0.46301 1.017121,0.4498 1.031224,0.43641 1.045354,0.42287 1.05951,0.40916 1.07368,0.39528 1.08789,0.38123 1.10213,0.36702 1.11638,0.35265 1.13066,0.3381 1.14497,0.32339 1.1593,0.30852 1.17366,0.29347 1.18805,0.27827 1.20245,0.26289 1.21689,0.24735 1.23136,0.23165 1.24583,0.21577 1.26035,0.19973 1.27489,0.18353 1.28945,0.16715 1.30404,0.15062 1.31866,0.13391 1.33329,0.11704 1.34796,0.10001 1.36265,0.0828 1.37737,0.0654 1.39211,0.0479 1.40688,0.0302 1.42167,0.0123 1.43649,-0.006 1.45133,-0.0239 1.46621,-0.0423 1.4811,-0.0608 1.49602,-0.0795 1.51097,-0.0984 1.52594,-0.1174 1.54093,-0.13659 1.55596,-0.15596 1.57101,-0.17548 1.58609,-0.19519 1.60118,-0.21504 1.61631,-0.23507 1.63146,-0.25527 1.64664,-0.27562 1.66184,-0.29616 1.67707,-0.31684 1.69232,-0.33771 1.49411,0.43702 1.48316,0.41601 1.47221,0.39515 1.46125,0.37447 1.45029,0.35392 1.43933,0.33356 1.42835,0.31333 1.41738,0.29328 1.40639,0.27338 1.39541,0.25364 1.38441,0.23405 1.37342,0.21464 1.36242,0.19537 1.3514,0.17626 1.3404,0.15732 1.32937,0.13854 1.31836,0.1199 1.30732,0.10143 1.29629,0.0831 1.28526,0.065 1.27421,0.047 1.26316,0.0291 1.2521,0.0115 1.24105,-0.006 1.22998,-0.0234 1.21892,-0.0406 1.20784,-0.0576 1.19676,-0.0745 1.18568,-0.0912 1.17458,-0.10781 1.16349,-0.1242 1.15239,-0.14046 1.14129,-0.15654 1.13017,-0.17246 1.11906,-0.18824 1.10794,-0.20384 1.09682,-0.2193 1.08568,-0.23458 1.07455,-0.24972 1.0634,-0.2647 1.05226,-0.27951 1.04111,-0.29416 1.02995,-0.30866 1.01879,-0.32301 1.00763,-0.33718 0.99645,-0.3512 0.98527,-0.36506 0.97409,-0.37877 0.96291,-0.39231 0.95171,-0.4057 0.94052,-0.41892 0.92931,-0.43199 0.9181,-0.4449 0.9069,-0.45765 0.89567,-0.47024 0.88445,-0.48267 0.87322,-0.49495 0.86199,-0.50706 0.85075,-0.51901 0.83951,-0.53081 0.82826,-0.54245 0.817,-0.55393 0.80574,-0.56525 0.79448,-0.57641 0.78322,-0.58741 0.77193,-0.59826 0.76066,-0.60894 0.74937,-0.61946 0.73808,-0.62983 0.72679,-0.64004 1.41967,-1.31007 1.37443,-1.34899 1.32914,-1.38665 1.28382,-1.42303 1.23846,-1.45814 1.19305,-1.49199 1.1476,-1.52455 1.10212,-1.55585 1.05658,-1.58588 1.01102,-1.61464 0.96541,-1.64212 0.91975,-1.66834 0.87406,-1.69328 0.82833,-1.71696 0.78255,-1.73936 0.73673,-1.76049 0.69088,-1.78035 0.64498,-1.79894 0.59904,-1.81625 0.55306,-1.83231 0.50704,-1.84708 0.46097,-1.86059 0.41488,-1.87282 0.36872,-1.88378 0.32255,-1.89348 0.27631,-1.90189 0.23005,-1.90905 0.18374,-1.91493 0.13739,-1.91953 0.091,-1.92288 0.0446,-1.92494 -0.002,-1.92573 -0.0484,-1.92526 -0.095,-1.92351 -0.14157,-1.9205 -0.18821,-1.9162 -0.23489,-1.91065 -0.2816,-1.90382 -0.32837,-1.89571 -0.37517,-1.88635 -0.42201,-1.8757 -0.46889,-1.86378 -0.51582,-1.8506 -0.56278,-1.83614 -0.60979,-1.82042 -0.65684,-1.80342 -0.70392,-1.78515 -0.75106,-1.7656 -0.79822,-1.7448 -0.84544,-1.72272 -0.89269,-1.69936 -0.93998,-1.67473 -0.98732,-1.64884 -1.0347,-1.62168 -1.08211,-1.59324 -1.12957,-1.56353 -1.17707,-1.53255 -1.22461,-1.5003 -1.27219,-1.46678 -1.31981,-1.43199 -1.36747,-1.39592 -0.70163,-0.68404 -0.71355,-0.67455 -0.72549,-0.6649 -0.73744,-0.65509 -0.74938,-0.64511 -0.76133,-0.63499 -0.77328,-0.62471 -0.78525,-0.61426 -0.79722,-0.60365 -0.80919,-0.59289 -0.82117,-0.58197 -0.83315,-0.57088 -0.84513,-0.55965 -0.85713,-0.54825 -0.86913,-0.53669 -0.88113,-0.52497 -0.89314,-0.5131 -0.90515,-0.50106 -0.91717,-0.48887 -0.9292,-0.47652 -0.94122,-0.46401 -0.95325,-0.45134 -0.9653,-0.43851 -0.97734,-0.42552 -0.98939,-0.41237 -1.00144,-0.39907 -1.0135,-0.3856 -1.02557,-0.37199 -1.03764,-0.3582 -1.04971,-0.34426 -1.06179,-0.33015 -1.07387,-0.31591 -1.08597,-0.30148 -1.09806,-0.28691 -1.11017,-0.27217 -1.12226,-0.25727 -1.13438,-0.24223 -1.1465,-0.22701 -1.15861,-0.21164 -1.17074,-0.19612 -1.18288,-0.18042 -1.19501,-0.16458 -1.20715,-0.14857 -1.2193,-0.1324 -1.23145,-0.11608 -1.2436,-0.0996 -1.25577,-0.083 -1.26794,-0.0662 -1.2801,-0.0492 -1.29229,-0.0321 -1.30447,-0.0148 -1.31665,0.003 -1.32885,0.0202 -1.34105,0.038 -1.35325,0.0559 -1.36546,0.074 -1.37767,0.0922 -1.38989,0.11058 -1.40211,0.12914 -1.41434,0.14784 -1.42658,0.16671 -1.43881,0.18573 -1.45106,0.20492 -1.46331,0.22426 -0.19844,-1.34336 -0.16229,-1.29818 -0.12617,-1.25443 -0.0901,-1.21212 -0.054,-1.17125 -0.0179,-1.131806 0.0182,-1.09381 0.0542,-1.057246 0.0902,-1.022117 0.12624,-0.988426 0.16223,-0.95617 0.19819,-0.925351 0.23416,-0.895968 0.27009,-0.868021 0.30601,-0.841512 0.34192,-0.816437 0.3778,-0.7928 0.41367,-0.770598 0.44953,-0.749833 0.48536,-0.730505 0.52118,-0.712612 0.55697,-0.696157 0.59277,-0.681136 0.62852,-0.667553 0.66428,-0.655406 0.70001,-0.644695 0.73573,-0.635421 0.77142,-0.627582 0.8071,-0.621181 0.84277,-0.616215 0.87842,-0.612685 0.91404,-0.610593 -15.86133,-5.28711 v -0.0039"
       style="display:inline;fill:#784421;stroke-width:0.39652702" />
  </g>
  <g
     id="g4984"
     inkscape:groupmode="layer"
     inkscape:label="Margin-disabled"
     style="display:none" />
  <g
     id="g4986"
     inkscape:groupmode="layer"
     inkscape:label="B.CrtYd-disabled"
     style="display:none" />
  <g
     id="g4988"
     inkscape:groupmode="layer"
     inkscape:label="F.CrtYd-disabled"
     style="display:none" />
  <g
     id="g4990"
     inkscape:groupmode="layer"
     inkscape:label="B.Fab-disabled"
     style="display:none" />
  <g
     id="g4992"
     inkscape:groupmode="layer"
     inkscape:label="F.Fab-disabled"
     style="display:none" />
  <g
     id="g4994"
     inkscape:groupmode="layer"
     inkscape:label="Drill"
     style="display:none" />
</svg>
