<?xml version="1.0" encoding="UTF-8" standalone="no"?>
<svg
   xmlns:dc="http://purl.org/dc/elements/1.1/"
   xmlns:cc="http://creativecommons.org/ns#"
   xmlns:rdf="http://www.w3.org/1999/02/22-rdf-syntax-ns#"
   xmlns:svg="http://www.w3.org/2000/svg"
   xmlns="http://www.w3.org/2000/svg"
   xmlns:sodipodi="http://sodipodi.sourceforge.net/DTD/sodipodi-0.dtd"
   xmlns:inkscape="http://www.inkscape.org/namespaces/inkscape"
   height="100.0mm"
   viewBox="0 0 100.0 100.0"
   width="100.0mm"
   version="1.1"
   id="svg1565"
   sodipodi:docname="txrx-fail-cu.svg"
   inkscape:version="0.92.5 (2060ec1f9f, 2020-04-08)">
  <metadata
     id="metadata1571">
    <rdf:RDF>
      <cc:Work
         rdf:about="">
        <dc:format>image/svg+xml</dc:format>
        <dc:type
           rdf:resource="http://purl.org/dc/dcmitype/StillImage" />
        <dc:title />
      </cc:Work>
    </rdf:RDF>
  </metadata>
  <defs
     id="defs1569" />
  <sodipodi:namedview
     pagecolor="#ffffff"
     bordercolor="#666666"
     borderopacity="1"
     objecttolerance="10"
     gridtolerance="10"
     guidetolerance="10"
     inkscape:pageopacity="0"
     inkscape:pageshadow="2"
     inkscape:window-width="1920"
     inkscape:window-height="1016"
     id="namedview1567"
     showgrid="true"
     inkscape:zoom="3.5966764"
     inkscape:cx="163.38474"
     inkscape:cy="198.36924"
     inkscape:window-x="2560"
     inkscape:window-y="387"
     inkscape:window-maximized="1"
     inkscape:current-layer="g1613"
     borderlayer="true"
     inkscape:document-units="mm">
    <inkscape:grid
       spacingx="2.54"
       spacingy="2.54"
       empspacing="1"
       type="xygrid"
       units="mm"
       id="grid1575" />
  </sodipodi:namedview>
  <g
     id="g1611"
     sodipodi:insensitive="true"
     inkscape:groupmode="layer"
     inkscape:label="[fixed] BG">
    <rect
       id="rect1609"
       style="stroke:none;fill-opacity:1;fill:#FFFFFF"
       height="100.0"
       width="100.0"
       y="0"
       x="0" />
  </g>
  <g
     id="g1613"
     inkscape:groupmode="layer"
     inkscape:label="F.Cu">
    <g
       transform="translate(32.116128,24.157744)"
       style="stroke-width:0.26458299"
       id="g1563" />
    <circle
       transform="translate(32.116128,24.157744)"
       style="stroke-width:0.26458299"
       cx="18.488228"
       cy="18.463634"
       r="0.79374999"
       id="circle1535" />
    <circle
       transform="translate(32.116128,24.157744)"
       style="stroke-width:0.26458299"
       cx="25.727005"
       cy="18.463636"
       r="0.79374999"
       id="circle1537" />
    <circle
       transform="translate(32.116128,24.157744)"
       style="stroke-width:0.26458299"
       cx="18.488228"
       cy="25.213305"
       r="0.79374999"
       id="circle1539" />
    <circle
       transform="translate(32.116128,24.157744)"
       style="stroke-width:0.26458299"
       cx="25.727005"
       cy="25.213306"
       r="0.79374999"
       id="circle1541" />
    <circle
       transform="translate(32.116128,24.157744)"
       style="stroke-width:0.26458299"
       cx="18.488228"
       cy="32.259201"
       r="0.79374999"
       id="circle1543" />
    <circle
       transform="translate(32.116128,24.157744)"
       style="stroke-width:0.26458299"
       cx="25.727005"
       cy="32.259197"
       r="0.79374999"
       id="circle1545" />
    <path
       transform="translate(32.116128,24.157744)"
       style="stroke-width:0.26458299;fill:none;stroke:#000000"
       inkscape:connector-curvature="0"
       d="m 18.683871,18.586049 c 0.293464,0.130429 0.590163,0.253809 0.880391,0.391286 0.994537,0.471096 1.902684,1.031013 2.543355,1.956426 0.249012,0.359684 0.361851,0.798728 0.586928,1.173856 0.600504,1.00084 1.308211,1.870726 2.24989,2.543354 0.438239,0.313028 0.224076,0.293464 0.489106,0.293464"
       id="path1547" />
    <path
       transform="translate(32.116128,24.157744)"
       style="stroke-width:0.26458299;fill:none;stroke:#000000"
       inkscape:connector-curvature="0"
       d="m 25.629184,18.488228 c -1.462146,1.367813 -3.7065,3.490309 -5.282351,4.891066 -0.209646,0.186352 -0.486408,0.290765 -0.684749,0.489106 -0.38457,0.38457 -0.208504,0.62103 -0.684749,0.978213 -0.2916,0.2187 -0.07764,0.195643 -0.293464,0.195643"
       id="path1549" />
    <path
       transform="translate(32.116128,24.157744)"
       style="stroke-width:0.26458299;fill:none;stroke:#000000"
       inkscape:connector-curvature="0"
       d="m 18.683871,18.586049 c 9.433833,-0.88442 -2.336159,0.161115 5.673636,-0.391285 0.102868,-0.0071 0.190351,-0.09782 0.293464,-0.09782 0.28629,0 0.609615,0.22577 0.880392,0.293464 0.06327,0.01582 0.149529,-0.04611 0.195642,0 0.03261,0.03261 -0.06521,0.06521 -0.09782,0.09782"
       id="path1551" />
    <path
       transform="translate(32.116128,24.157744)"
       style="stroke-width:0.26458299;fill:none;stroke:#000000"
       inkscape:connector-curvature="0"
       d="m 18.683871,18.586048 c -0.85564,0.570428 0.867174,-0.374101 1.173855,-0.489106 0.155679,-0.05838 0.325373,-0.06893 0.489107,-0.09782 1.658086,-0.292604 3.436857,-0.807765 3.619389,1.56514 0.02851,0.370684 -0.09001,0.764868 -0.293464,1.076035 -0.366133,0.559968 -0.840096,1.058236 -1.369499,1.46732 -0.911275,0.704167 -1.920415,-0.246725 -1.858605,-1.173856 0.0385,-0.577447 0.45466,-1.398426 0.68475,-1.858605 0.323392,-0.646784 0.80753,-2.130107 1.858605,-1.662962 0.388275,0.172567 0.75963,1.305278 0.78257,1.369498 0.707682,1.981511 0.861659,3.599617 -0.489107,5.380172 -0.307837,0.405786 -0.759389,0.682166 -1.173855,0.978213 -0.05307,0.0379 -0.144723,0.04074 -0.195643,0 -0.706016,-0.564812 0.157081,-1.915155 0.293464,-2.445532 0.196196,-0.762985 0.502767,-1.944969 0.391285,-2.836819 -0.0026,-0.02116 -0.333193,-1.369498 -0.489106,-1.369498 -0.09223,0 -0.126233,0.134913 -0.195643,0.195643 -0.965613,0.844911 -0.616298,0.275362 -1.271677,2.054247 -0.260245,0.706379 -0.373241,1.466751 -0.684749,2.152069 -0.344796,0.758551 -0.847785,1.434712 -1.271677,2.152069 1.256837,-0.147863 2.775436,-0.43831 4.010674,0 0.350374,0.124327 0.543982,0.536294 0.684749,0.880392 0.531974,1.30038 -3.79e-4,2.413052 -1.271677,2.836818 -0.218735,0.07291 -0.45866,0.143039 -0.684749,0.09782 -1.294722,-0.258945 1.174353,-3.864502 1.565141,-4.304138 0.322043,-0.362299 0.703647,-0.667891 1.076034,-0.978213 0.236316,-0.196931 0.590405,-0.729314 0.782571,-0.489107 0.148964,0.186205 0.439739,0.731379 0.489106,0.978213 0.03197,0.15987 -0.01622,0.32688 0,0.489107 0.0025,0.02522 0.368099,1.202114 0.09782,0.391285"
       id="path1553" />
    <path
       transform="translate(32.116128,24.157744)"
       style="stroke-width:0.26458299;fill:none;stroke:#000000"
       inkscape:connector-curvature="0"
       d="m 25.43354,24.944435 c -0.54945,0.7326 -0.782934,0.326314 -1.467319,0.78257 -0.30695,0.204633 -0.446156,0.631184 -0.782571,0.78257 -0.428574,0.19286 -1.720226,0.806863 -2.347711,0.293465 -1.284983,-1.05135 1.502467,-2.546077 1.956426,-3.032461 0.306912,-0.328834 0.612344,-1.182907 -0.09782,-1.271677 -0.765218,-0.09565 -5.701709,0.30793 -5.380173,-0.978213 0.03673,-0.146918 1.540603,-0.459747 1.760784,-0.489107 2.286437,-0.304858 4.355762,1.047289 6.651849,0.684749 0.393187,-0.06208 0.756686,-0.05899 0.978213,-0.391285 0.562145,-0.843215 -6.91918,-0.702633 -1.076033,-2.836818 -3.645814,0.405091 -1.755366,0.293464 -5.673637,0.293464 -0.177217,0 -1.271677,0.08129 -1.271677,-0.195643 0.195643,0.423893 0.308349,0.897038 0.586928,1.271678 0.77716,1.045146 3.613706,4.203881 4.988887,4.793244 0.493239,0.211388 0.654584,0.206919 1.173854,0.293464 z"
       id="path1555" />
    <path
       transform="translate(32.116128,24.157744)"
       style="stroke-width:0.26458299;fill:none;stroke:#000000"
       inkscape:connector-curvature="0"
       d="m 25.629184,18.488228 c -2.100726,1.818538 -4.452287,3.302556 -6.651849,4.988887 -0.146384,0.112227 -0.253423,0.268741 -0.391286,0.391285 -0.156049,0.138711 -0.367751,0.221388 -0.489106,0.391285 -0.109062,0.152686 0.07692,0.663852 0.195643,0.782571 0.09223,0.09223 0.260856,0 0.391285,0"
       id="path1557" />
    <path
       transform="translate(32.116128,24.157744)"
       style="stroke-width:0.26458299;fill:none;stroke:#000000"
       inkscape:connector-curvature="0"
       d="m 25.629185,18.488228 c -0.68475,-1.499927 -1.369499,-2.999854 -2.054249,-4.49978 -0.130428,-0.130429 -0.210788,-0.429285 -0.391285,-0.391286 -0.7984,0.168085 -3.485841,1.70513 -2.641175,3.032461 0.298244,0.46867 1.112363,0.556182 1.565141,0.782571 0.518625,0.259312 -0.912574,1.697837 0.78257,-1.076035 0.0113,-0.01849 0.642195,-0.727304 0.391285,-0.978213 -0.329512,-0.329512 -1.25022,0.329313 -1.369498,0.782571 -0.06767,0.257161 -0.0031,1.578099 0.09782,1.956426 0.04003,0.150122 0.632012,1.014448 0.489107,1.271677 -0.139089,0.250359 -0.819805,1.183164 -1.173856,1.271677 -0.520681,0.13017 -2.703414,0.121824 -3.228103,0.489107 -0.331596,0.232116 -0.181453,0.849218 0,1.076034 0.349864,0.43733 1.298767,0.55281 1.076034,1.369498 -0.165522,0.606914 -0.368825,0.321245 -0.586928,0.684749 -0.186474,0.310791 -0.03785,0.324949 -0.09782,0.68475 -0.04233,0.254002 -0.310677,0.266595 0.195643,0.09782"
       id="path1559" />
    <path
       transform="translate(32.116128,24.157744)"
       style="stroke-width:0.26458299"
       inkscape:connector-curvature="0"
       d="m 18.952612,31.991177 h 6.467405 v 0.553363 h -6.467405 z"
       id="path1561" />
  </g>
  <g
     id="g1615"
     inkscape:groupmode="layer"
     inkscape:label="B.Cu-disabled" />
  <g
     id="g1617"
     inkscape:groupmode="layer"
     inkscape:label="B.Adhes-disabled" />
  <g
     id="g1619"
     inkscape:groupmode="layer"
     inkscape:label="F.Adhes-disabled" />
  <g
     id="g1621"
     inkscape:groupmode="layer"
     inkscape:label="B.Paste-disabled" />
  <g
     id="g1623"
     inkscape:groupmode="layer"
     inkscape:label="F.Paste-disabled" />
  <g
     id="g1625"
     inkscape:groupmode="layer"
     inkscape:label="B.SilkS-disabled" />
  <g
     id="g1627"
     inkscape:groupmode="layer"
     inkscape:label="F.SilkS-disabled" />
  <g
     id="g1629"
     inkscape:groupmode="layer"
     inkscape:label="B.Mask-disabled" />
  <g
     id="g1631"
     inkscape:groupmode="layer"
     inkscape:label="F.Mask-disabled" />
  <g
     id="g1633"
     inkscape:groupmode="layer"
     inkscape:label="Dwgs.User-disabled" />
  <g
     id="g1635"
     inkscape:groupmode="layer"
     inkscape:label="Cmts.User-disabled" />
  <g
     id="g1637"
     inkscape:groupmode="layer"
     inkscape:label="Eco1.User-disabled" />
  <g
     id="g1639"
     inkscape:groupmode="layer"
     inkscape:label="Eco2.User-disabled" />
  <g
     id="g1641"
     inkscape:groupmode="layer"
     inkscape:label="Edge.Cuts" />
  <g
     id="g1643"
     inkscape:groupmode="layer"
     inkscape:label="Margin-disabled" />
  <g
     id="g1645"
     inkscape:groupmode="layer"
     inkscape:label="B.CrtYd-disabled" />
  <g
     id="g1647"
     inkscape:groupmode="layer"
     inkscape:label="F.CrtYd-disabled" />
  <g
     id="g1649"
     inkscape:groupmode="layer"
     inkscape:label="B.Fab-disabled" />
  <g
     id="g1651"
     inkscape:groupmode="layer"
     inkscape:label="F.Fab-disabled" />
  <g
     id="g1653"
     inkscape:groupmode="layer"
     inkscape:label="Drill" />
</svg>
